<?xml version="1.0" encoding="utf-8" standalone="no"?>
<!DOCTYPE svg PUBLIC "-//W3C//DTD SVG 1.1//EN"
  "http://www.w3.org/Graphics/SVG/1.1/DTD/svg11.dtd">
<svg xmlns:xlink="http://www.w3.org/1999/xlink" width="460.8pt" height="345.6pt" viewBox="0 0 460.8 345.6" xmlns="http://www.w3.org/2000/svg" version="1.1">
 <metadata>
  <rdf:RDF xmlns:dc="http://purl.org/dc/elements/1.1/" xmlns:cc="http://creativecommons.org/ns#" xmlns:rdf="http://www.w3.org/1999/02/22-rdf-syntax-ns#">
   <cc:Work>
    <dc:type rdf:resource="http://purl.org/dc/dcmitype/StillImage"/>
    <dc:date>2024-02-06T10:21:37.293392</dc:date>
    <dc:format>image/svg+xml</dc:format>
    <dc:creator>
     <cc:Agent>
      <dc:title>Matplotlib v3.7.0, https://matplotlib.org/</dc:title>
     </cc:Agent>
    </dc:creator>
   </cc:Work>
  </rdf:RDF>
 </metadata>
 <defs>
  <style type="text/css">*{stroke-linejoin: round; stroke-linecap: butt}</style>
 </defs>
 <g id="figure_1">
  <g id="patch_1">
   <path d="M 0 345.6 
L 460.8 345.6 
L 460.8 0 
L 0 0 
z
" style="fill: #ffffff"/>
  </g>
  <g id="axes_1">
   <g id="patch_2">
    <path d="M 184.086667 317.72 
L 276.713333 317.72 
L 276.713333 39.84 
L 184.086667 39.84 
z
" style="fill: #ffffff"/>
   </g>
   <g id="matplotlib.axis_1">
    <g id="xtick_1">
     <g id="line2d_1">
      <defs>
       <path id="mae898e3fed" d="M 0 0 
L 0 3.5 
" style="stroke: #000000; stroke-width: 0.8"/>
      </defs>
      <g>
       <use xlink:href="#mae898e3fed" x="184.086667" y="317.72" style="stroke: #000000; stroke-width: 0.8"/>
      </g>
     </g>
     <g id="text_1">
      <!-- K' -->
      <g transform="translate(179.433542 332.318437) scale(0.1 -0.1)">
       <defs>
        <path id="DejaVuSans-4b" d="M 628 4666 
L 1259 4666 
L 1259 2694 
L 3353 4666 
L 4166 4666 
L 1850 2491 
L 4331 0 
L 3500 0 
L 1259 2247 
L 1259 0 
L 628 0 
L 628 4666 
z
" transform="scale(0.015625)"/>
        <path id="DejaVuSans-27" d="M 1147 4666 
L 1147 2931 
L 616 2931 
L 616 4666 
L 1147 4666 
z
" transform="scale(0.015625)"/>
       </defs>
       <use xlink:href="#DejaVuSans-4b"/>
       <use xlink:href="#DejaVuSans-27" x="65.576172"/>
      </g>
     </g>
    </g>
    <g id="xtick_2">
     <g id="line2d_2">
      <g>
       <use xlink:href="#mae898e3fed" x="207.243333" y="317.72" style="stroke: #000000; stroke-width: 0.8"/>
      </g>
     </g>
     <g id="text_2">
      <!-- Γ -->
      <g transform="translate(204.457396 332.318437) scale(0.1 -0.1)">
       <defs>
        <path id="DejaVuSans-393" d="M 628 0 
L 628 4666 
L 3531 4666 
L 3531 4134 
L 1259 4134 
L 1259 0 
L 628 0 
z
" transform="scale(0.015625)"/>
       </defs>
       <use xlink:href="#DejaVuSans-393"/>
      </g>
     </g>
    </g>
    <g id="xtick_3">
     <g id="line2d_3">
      <g>
       <use xlink:href="#mae898e3fed" x="230.4" y="317.72" style="stroke: #000000; stroke-width: 0.8"/>
      </g>
     </g>
     <g id="text_3">
      <!-- K -->
      <g transform="translate(227.121094 332.318437) scale(0.1 -0.1)">
       <use xlink:href="#DejaVuSans-4b"/>
      </g>
     </g>
    </g>
    <g id="xtick_4">
     <g id="line2d_4">
      <g>
       <use xlink:href="#mae898e3fed" x="253.556667" y="317.72" style="stroke: #000000; stroke-width: 0.8"/>
      </g>
     </g>
     <g id="text_4">
      <!-- K -->
      <g transform="translate(250.27776 332.318437) scale(0.1 -0.1)">
       <use xlink:href="#DejaVuSans-4b"/>
      </g>
     </g>
    </g>
    <g id="xtick_5">
     <g id="line2d_5">
      <g>
       <use xlink:href="#mae898e3fed" x="265.135" y="317.72" style="stroke: #000000; stroke-width: 0.8"/>
      </g>
     </g>
     <g id="text_5">
      <!-- M -->
      <g transform="translate(260.820938 332.318437) scale(0.1 -0.1)">
       <defs>
        <path id="DejaVuSans-4d" d="M 628 4666 
L 1569 4666 
L 2759 1491 
L 3956 4666 
L 4897 4666 
L 4897 0 
L 4281 0 
L 4281 4097 
L 3078 897 
L 2444 897 
L 1241 4097 
L 1241 0 
L 628 0 
L 628 4666 
z
" transform="scale(0.015625)"/>
       </defs>
       <use xlink:href="#DejaVuSans-4d"/>
      </g>
     </g>
    </g>
    <g id="xtick_6">
     <g id="line2d_6">
      <g>
       <use xlink:href="#mae898e3fed" x="276.713333" y="317.72" style="stroke: #000000; stroke-width: 0.8"/>
      </g>
     </g>
     <g id="text_6">
      <!-- K' -->
      <g transform="translate(272.060208 332.318437) scale(0.1 -0.1)">
       <use xlink:href="#DejaVuSans-4b"/>
       <use xlink:href="#DejaVuSans-27" x="65.576172"/>
      </g>
     </g>
    </g>
   </g>
   <g id="matplotlib.axis_2">
    <g id="ytick_1">
     <g id="line2d_7">
      <defs>
       <path id="m0fe29a0b75" d="M 0 0 
L -3.5 0 
" style="stroke: #000000; stroke-width: 0.8"/>
      </defs>
      <g>
       <use xlink:href="#m0fe29a0b75" x="184.086667" y="317.72" style="stroke: #000000; stroke-width: 0.8"/>
      </g>
     </g>
     <g id="text_7">
      <!-- −200 -->
      <g transform="translate(141.379323 322.658984) scale(0.13 -0.13)">
       <defs>
        <path id="DejaVuSans-2212" d="M 678 2272 
L 4684 2272 
L 4684 1741 
L 678 1741 
L 678 2272 
z
" transform="scale(0.015625)"/>
        <path id="DejaVuSans-32" d="M 1228 531 
L 3431 531 
L 3431 0 
L 469 0 
L 469 531 
Q 828 903 1448 1529 
Q 2069 2156 2228 2338 
Q 2531 2678 2651 2914 
Q 2772 3150 2772 3378 
Q 2772 3750 2511 3984 
Q 2250 4219 1831 4219 
Q 1534 4219 1204 4116 
Q 875 4013 500 3803 
L 500 4441 
Q 881 4594 1212 4672 
Q 1544 4750 1819 4750 
Q 2544 4750 2975 4387 
Q 3406 4025 3406 3419 
Q 3406 3131 3298 2873 
Q 3191 2616 2906 2266 
Q 2828 2175 2409 1742 
Q 1991 1309 1228 531 
z
" transform="scale(0.015625)"/>
        <path id="DejaVuSans-30" d="M 2034 4250 
Q 1547 4250 1301 3770 
Q 1056 3291 1056 2328 
Q 1056 1369 1301 889 
Q 1547 409 2034 409 
Q 2525 409 2770 889 
Q 3016 1369 3016 2328 
Q 3016 3291 2770 3770 
Q 2525 4250 2034 4250 
z
M 2034 4750 
Q 2819 4750 3233 4129 
Q 3647 3509 3647 2328 
Q 3647 1150 3233 529 
Q 2819 -91 2034 -91 
Q 1250 -91 836 529 
Q 422 1150 422 2328 
Q 422 3509 836 4129 
Q 1250 4750 2034 4750 
z
" transform="scale(0.015625)"/>
       </defs>
       <use xlink:href="#DejaVuSans-2212"/>
       <use xlink:href="#DejaVuSans-32" x="83.789062"/>
       <use xlink:href="#DejaVuSans-30" x="147.412109"/>
       <use xlink:href="#DejaVuSans-30" x="211.035156"/>
      </g>
     </g>
    </g>
    <g id="ytick_2">
     <g id="line2d_8">
      <g>
       <use xlink:href="#m0fe29a0b75" x="184.086667" y="282.985" style="stroke: #000000; stroke-width: 0.8"/>
      </g>
     </g>
     <g id="text_8">
      <!-- −150 -->
      <g transform="translate(141.379323 287.923984) scale(0.13 -0.13)">
       <defs>
        <path id="DejaVuSans-31" d="M 794 531 
L 1825 531 
L 1825 4091 
L 703 3866 
L 703 4441 
L 1819 4666 
L 2450 4666 
L 2450 531 
L 3481 531 
L 3481 0 
L 794 0 
L 794 531 
z
" transform="scale(0.015625)"/>
        <path id="DejaVuSans-35" d="M 691 4666 
L 3169 4666 
L 3169 4134 
L 1269 4134 
L 1269 2991 
Q 1406 3038 1543 3061 
Q 1681 3084 1819 3084 
Q 2600 3084 3056 2656 
Q 3513 2228 3513 1497 
Q 3513 744 3044 326 
Q 2575 -91 1722 -91 
Q 1428 -91 1123 -41 
Q 819 9 494 109 
L 494 744 
Q 775 591 1075 516 
Q 1375 441 1709 441 
Q 2250 441 2565 725 
Q 2881 1009 2881 1497 
Q 2881 1984 2565 2268 
Q 2250 2553 1709 2553 
Q 1456 2553 1204 2497 
Q 953 2441 691 2322 
L 691 4666 
z
" transform="scale(0.015625)"/>
       </defs>
       <use xlink:href="#DejaVuSans-2212"/>
       <use xlink:href="#DejaVuSans-31" x="83.789062"/>
       <use xlink:href="#DejaVuSans-35" x="147.412109"/>
       <use xlink:href="#DejaVuSans-30" x="211.035156"/>
      </g>
     </g>
    </g>
    <g id="ytick_3">
     <g id="line2d_9">
      <g>
       <use xlink:href="#m0fe29a0b75" x="184.086667" y="248.25" style="stroke: #000000; stroke-width: 0.8"/>
      </g>
     </g>
     <g id="text_9">
      <!-- −100 -->
      <g transform="translate(141.379323 253.188984) scale(0.13 -0.13)">
       <use xlink:href="#DejaVuSans-2212"/>
       <use xlink:href="#DejaVuSans-31" x="83.789062"/>
       <use xlink:href="#DejaVuSans-30" x="147.412109"/>
       <use xlink:href="#DejaVuSans-30" x="211.035156"/>
      </g>
     </g>
    </g>
    <g id="ytick_4">
     <g id="line2d_10">
      <g>
       <use xlink:href="#m0fe29a0b75" x="184.086667" y="213.515" style="stroke: #000000; stroke-width: 0.8"/>
      </g>
     </g>
     <g id="text_10">
      <!-- −50 -->
      <g transform="translate(149.650573 218.453984) scale(0.13 -0.13)">
       <use xlink:href="#DejaVuSans-2212"/>
       <use xlink:href="#DejaVuSans-35" x="83.789062"/>
       <use xlink:href="#DejaVuSans-30" x="147.412109"/>
      </g>
     </g>
    </g>
    <g id="ytick_5">
     <g id="line2d_11">
      <g>
       <use xlink:href="#m0fe29a0b75" x="184.086667" y="178.78" style="stroke: #000000; stroke-width: 0.8"/>
      </g>
     </g>
     <g id="text_11">
      <!-- 0 -->
      <g transform="translate(168.815417 183.718984) scale(0.13 -0.13)">
       <use xlink:href="#DejaVuSans-30"/>
      </g>
     </g>
    </g>
    <g id="ytick_6">
     <g id="line2d_12">
      <g>
       <use xlink:href="#m0fe29a0b75" x="184.086667" y="144.045" style="stroke: #000000; stroke-width: 0.8"/>
      </g>
     </g>
     <g id="text_12">
      <!-- 50 -->
      <g transform="translate(160.544167 148.983984) scale(0.13 -0.13)">
       <use xlink:href="#DejaVuSans-35"/>
       <use xlink:href="#DejaVuSans-30" x="63.623047"/>
      </g>
     </g>
    </g>
    <g id="ytick_7">
     <g id="line2d_13">
      <g>
       <use xlink:href="#m0fe29a0b75" x="184.086667" y="109.31" style="stroke: #000000; stroke-width: 0.8"/>
      </g>
     </g>
     <g id="text_13">
      <!-- 100 -->
      <g transform="translate(152.272917 114.248984) scale(0.13 -0.13)">
       <use xlink:href="#DejaVuSans-31"/>
       <use xlink:href="#DejaVuSans-30" x="63.623047"/>
       <use xlink:href="#DejaVuSans-30" x="127.246094"/>
      </g>
     </g>
    </g>
    <g id="ytick_8">
     <g id="line2d_14">
      <g>
       <use xlink:href="#m0fe29a0b75" x="184.086667" y="74.575" style="stroke: #000000; stroke-width: 0.8"/>
      </g>
     </g>
     <g id="text_14">
      <!-- 150 -->
      <g transform="translate(152.272917 79.513984) scale(0.13 -0.13)">
       <use xlink:href="#DejaVuSans-31"/>
       <use xlink:href="#DejaVuSans-35" x="63.623047"/>
       <use xlink:href="#DejaVuSans-30" x="127.246094"/>
      </g>
     </g>
    </g>
    <g id="ytick_9">
     <g id="line2d_15">
      <g>
       <use xlink:href="#m0fe29a0b75" x="184.086667" y="39.84" style="stroke: #000000; stroke-width: 0.8"/>
      </g>
     </g>
     <g id="text_15">
      <!-- 200 -->
      <g transform="translate(152.272917 44.778984) scale(0.13 -0.13)">
       <use xlink:href="#DejaVuSans-32"/>
       <use xlink:href="#DejaVuSans-30" x="63.623047"/>
       <use xlink:href="#DejaVuSans-30" x="127.246094"/>
      </g>
     </g>
    </g>
    <g id="text_16">
     <!-- E(meV) -->
     <g transform="translate(135.299635 197.208125) rotate(-90) scale(0.1 -0.1)">
      <defs>
       <path id="DejaVuSans-45" d="M 628 4666 
L 3578 4666 
L 3578 4134 
L 1259 4134 
L 1259 2753 
L 3481 2753 
L 3481 2222 
L 1259 2222 
L 1259 531 
L 3634 531 
L 3634 0 
L 628 0 
L 628 4666 
z
" transform="scale(0.015625)"/>
       <path id="DejaVuSans-28" d="M 1984 4856 
Q 1566 4138 1362 3434 
Q 1159 2731 1159 2009 
Q 1159 1288 1364 580 
Q 1569 -128 1984 -844 
L 1484 -844 
Q 1016 -109 783 600 
Q 550 1309 550 2009 
Q 550 2706 781 3412 
Q 1013 4119 1484 4856 
L 1984 4856 
z
" transform="scale(0.015625)"/>
       <path id="DejaVuSans-6d" d="M 3328 2828 
Q 3544 3216 3844 3400 
Q 4144 3584 4550 3584 
Q 5097 3584 5394 3201 
Q 5691 2819 5691 2113 
L 5691 0 
L 5113 0 
L 5113 2094 
Q 5113 2597 4934 2840 
Q 4756 3084 4391 3084 
Q 3944 3084 3684 2787 
Q 3425 2491 3425 1978 
L 3425 0 
L 2847 0 
L 2847 2094 
Q 2847 2600 2669 2842 
Q 2491 3084 2119 3084 
Q 1678 3084 1418 2786 
Q 1159 2488 1159 1978 
L 1159 0 
L 581 0 
L 581 3500 
L 1159 3500 
L 1159 2956 
Q 1356 3278 1631 3431 
Q 1906 3584 2284 3584 
Q 2666 3584 2933 3390 
Q 3200 3197 3328 2828 
z
" transform="scale(0.015625)"/>
       <path id="DejaVuSans-65" d="M 3597 1894 
L 3597 1613 
L 953 1613 
Q 991 1019 1311 708 
Q 1631 397 2203 397 
Q 2534 397 2845 478 
Q 3156 559 3463 722 
L 3463 178 
Q 3153 47 2828 -22 
Q 2503 -91 2169 -91 
Q 1331 -91 842 396 
Q 353 884 353 1716 
Q 353 2575 817 3079 
Q 1281 3584 2069 3584 
Q 2775 3584 3186 3129 
Q 3597 2675 3597 1894 
z
M 3022 2063 
Q 3016 2534 2758 2815 
Q 2500 3097 2075 3097 
Q 1594 3097 1305 2825 
Q 1016 2553 972 2059 
L 3022 2063 
z
" transform="scale(0.015625)"/>
       <path id="DejaVuSans-56" d="M 1831 0 
L 50 4666 
L 709 4666 
L 2188 738 
L 3669 4666 
L 4325 4666 
L 2547 0 
L 1831 0 
z
" transform="scale(0.015625)"/>
       <path id="DejaVuSans-29" d="M 513 4856 
L 1013 4856 
Q 1481 4119 1714 3412 
Q 1947 2706 1947 2009 
Q 1947 1309 1714 600 
Q 1481 -109 1013 -844 
L 513 -844 
Q 928 -128 1133 580 
Q 1338 1288 1338 2009 
Q 1338 2731 1133 3434 
Q 928 4138 513 4856 
z
" transform="scale(0.015625)"/>
      </defs>
      <use xlink:href="#DejaVuSans-45"/>
      <use xlink:href="#DejaVuSans-28" x="63.183594"/>
      <use xlink:href="#DejaVuSans-6d" x="102.197266"/>
      <use xlink:href="#DejaVuSans-65" x="199.609375"/>
      <use xlink:href="#DejaVuSans-56" x="261.132812"/>
      <use xlink:href="#DejaVuSans-29" x="329.541016"/>
     </g>
    </g>
   </g>
   <g id="line2d_16">
    <path d="M 0 0 
" clip-path="url(#p633cebb71c)" style="fill: none; stroke: #1f77b4; stroke-width: 0.1; stroke-linecap: square"/>
   </g>
   <g id="line2d_17">
    <path d="M 0 0 
" clip-path="url(#p633cebb71c)" style="fill: none; stroke: #ff7f0e; stroke-width: 0.1; stroke-linecap: square"/>
   </g>
   <g id="line2d_18">
    <path d="M 0 0 
" clip-path="url(#p633cebb71c)" style="fill: none; stroke: #2ca02c; stroke-width: 0.1; stroke-linecap: square"/>
   </g>
   <g id="line2d_19">
    <path d="M 0 0 
" clip-path="url(#p633cebb71c)" style="fill: none; stroke: #d62728; stroke-width: 0.1; stroke-linecap: square"/>
   </g>
   <g id="line2d_20">
    <path d="M 0 0 
" clip-path="url(#p633cebb71c)" style="fill: none; stroke: #9467bd; stroke-width: 0.1; stroke-linecap: square"/>
   </g>
   <g id="line2d_21">
    <path d="M 0 0 
" clip-path="url(#p633cebb71c)" style="fill: none; stroke: #8c564b; stroke-width: 0.1; stroke-linecap: square"/>
   </g>
   <g id="line2d_22">
    <path d="M 0 0 
" clip-path="url(#p633cebb71c)" style="fill: none; stroke: #e377c2; stroke-width: 0.1; stroke-linecap: square"/>
   </g>
   <g id="line2d_23">
    <path d="M 0 0 
" clip-path="url(#p633cebb71c)" style="fill: none; stroke: #7f7f7f; stroke-width: 0.1; stroke-linecap: square"/>
   </g>
   <g id="line2d_24">
    <path d="M 0 0 
" clip-path="url(#p633cebb71c)" style="fill: none; stroke: #bcbd22; stroke-width: 0.1; stroke-linecap: square"/>
   </g>
   <g id="line2d_25">
    <path d="M 0 0 
" clip-path="url(#p633cebb71c)" style="fill: none; stroke: #17becf; stroke-width: 0.1; stroke-linecap: square"/>
   </g>
   <g id="line2d_26">
    <path d="M 0 0 
" clip-path="url(#p633cebb71c)" style="fill: none; stroke: #1f77b4; stroke-width: 0.1; stroke-linecap: square"/>
   </g>
   <g id="line2d_27">
    <path d="M 0 0 
" clip-path="url(#p633cebb71c)" style="fill: none; stroke: #ff7f0e; stroke-width: 0.1; stroke-linecap: square"/>
   </g>
   <g id="line2d_28">
    <path d="M 0 0 
" clip-path="url(#p633cebb71c)" style="fill: none; stroke: #2ca02c; stroke-width: 0.1; stroke-linecap: square"/>
   </g>
   <g id="line2d_29">
    <path d="M 0 0 
" clip-path="url(#p633cebb71c)" style="fill: none; stroke: #d62728; stroke-width: 0.1; stroke-linecap: square"/>
   </g>
   <g id="line2d_30">
    <path d="M 0 0 
" clip-path="url(#p633cebb71c)" style="fill: none; stroke: #9467bd; stroke-width: 0.1; stroke-linecap: square"/>
   </g>
   <g id="line2d_31">
    <path d="M 0 0 
" clip-path="url(#p633cebb71c)" style="fill: none; stroke: #8c564b; stroke-width: 0.1; stroke-linecap: square"/>
   </g>
   <g id="line2d_32">
    <path d="M 0 0 
" clip-path="url(#p633cebb71c)" style="fill: none; stroke: #e377c2; stroke-width: 0.1; stroke-linecap: square"/>
   </g>
   <g id="line2d_33">
    <path d="M 0 0 
" clip-path="url(#p633cebb71c)" style="fill: none; stroke: #7f7f7f; stroke-width: 0.1; stroke-linecap: square"/>
   </g>
   <g id="line2d_34">
    <path d="M 0 0 
" clip-path="url(#p633cebb71c)" style="fill: none; stroke: #bcbd22; stroke-width: 0.1; stroke-linecap: square"/>
   </g>
   <g id="line2d_35">
    <path d="M 0 0 
" clip-path="url(#p633cebb71c)" style="fill: none; stroke: #17becf; stroke-width: 0.1; stroke-linecap: square"/>
   </g>
   <g id="line2d_36">
    <path d="M 0 0 
" clip-path="url(#p633cebb71c)" style="fill: none; stroke: #1f77b4; stroke-width: 0.1; stroke-linecap: square"/>
   </g>
   <g id="line2d_37">
    <path d="M 0 0 
" clip-path="url(#p633cebb71c)" style="fill: none; stroke: #ff7f0e; stroke-width: 0.1; stroke-linecap: square"/>
   </g>
   <g id="line2d_38">
    <path d="M 0 0 
" clip-path="url(#p633cebb71c)" style="fill: none; stroke: #2ca02c; stroke-width: 0.1; stroke-linecap: square"/>
   </g>
   <g id="line2d_39">
    <path d="M 0 0 
" clip-path="url(#p633cebb71c)" style="fill: none; stroke: #d62728; stroke-width: 0.1; stroke-linecap: square"/>
   </g>
   <g id="line2d_40">
    <path d="M 0 0 
" clip-path="url(#p633cebb71c)" style="fill: none; stroke: #9467bd; stroke-width: 0.1; stroke-linecap: square"/>
   </g>
   <g id="line2d_41">
    <path d="M 0 0 
" clip-path="url(#p633cebb71c)" style="fill: none; stroke: #8c564b; stroke-width: 0.1; stroke-linecap: square"/>
   </g>
   <g id="line2d_42">
    <path d="M 0 0 
" clip-path="url(#p633cebb71c)" style="fill: none; stroke: #e377c2; stroke-width: 0.1; stroke-linecap: square"/>
   </g>
   <g id="line2d_43">
    <path d="M 0 0 
" clip-path="url(#p633cebb71c)" style="fill: none; stroke: #7f7f7f; stroke-width: 0.1; stroke-linecap: square"/>
   </g>
   <g id="line2d_44">
    <path d="M 0 0 
" clip-path="url(#p633cebb71c)" style="fill: none; stroke: #bcbd22; stroke-width: 0.1; stroke-linecap: square"/>
   </g>
   <g id="line2d_45">
    <path d="M 0 0 
" clip-path="url(#p633cebb71c)" style="fill: none; stroke: #17becf; stroke-width: 0.1; stroke-linecap: square"/>
   </g>
   <g id="line2d_46">
    <path d="M 0 0 
" clip-path="url(#p633cebb71c)" style="fill: none; stroke: #1f77b4; stroke-width: 0.1; stroke-linecap: square"/>
   </g>
   <g id="line2d_47">
    <path d="M 0 0 
" clip-path="url(#p633cebb71c)" style="fill: none; stroke: #ff7f0e; stroke-width: 0.1; stroke-linecap: square"/>
   </g>
   <g id="line2d_48">
    <path d="M 0 0 
" clip-path="url(#p633cebb71c)" style="fill: none; stroke: #2ca02c; stroke-width: 0.1; stroke-linecap: square"/>
   </g>
   <g id="line2d_49">
    <path d="M 0 0 
" clip-path="url(#p633cebb71c)" style="fill: none; stroke: #d62728; stroke-width: 0.1; stroke-linecap: square"/>
   </g>
   <g id="line2d_50">
    <path d="M 0 0 
" clip-path="url(#p633cebb71c)" style="fill: none; stroke: #9467bd; stroke-width: 0.1; stroke-linecap: square"/>
   </g>
   <g id="line2d_51">
    <path d="M 0 0 
" clip-path="url(#p633cebb71c)" style="fill: none; stroke: #8c564b; stroke-width: 0.1; stroke-linecap: square"/>
   </g>
   <g id="line2d_52">
    <path d="M 0 0 
" clip-path="url(#p633cebb71c)" style="fill: none; stroke: #e377c2; stroke-width: 0.1; stroke-linecap: square"/>
   </g>
   <g id="line2d_53">
    <path d="M 0 0 
" clip-path="url(#p633cebb71c)" style="fill: none; stroke: #7f7f7f; stroke-width: 0.1; stroke-linecap: square"/>
   </g>
   <g id="line2d_54">
    <path d="M 0 0 
" clip-path="url(#p633cebb71c)" style="fill: none; stroke: #bcbd22; stroke-width: 0.1; stroke-linecap: square"/>
   </g>
   <g id="line2d_55">
    <path d="M 0 0 
" clip-path="url(#p633cebb71c)" style="fill: none; stroke: #17becf; stroke-width: 0.1; stroke-linecap: square"/>
   </g>
   <g id="line2d_56">
    <path d="M 0 0 
" clip-path="url(#p633cebb71c)" style="fill: none; stroke: #1f77b4; stroke-width: 0.1; stroke-linecap: square"/>
   </g>
   <g id="line2d_57">
    <path d="M 0 0 
" clip-path="url(#p633cebb71c)" style="fill: none; stroke: #ff7f0e; stroke-width: 0.1; stroke-linecap: square"/>
   </g>
   <g id="line2d_58">
    <path d="M 0 0 
" clip-path="url(#p633cebb71c)" style="fill: none; stroke: #2ca02c; stroke-width: 0.1; stroke-linecap: square"/>
   </g>
   <g id="line2d_59">
    <path d="M 184.086667 334.171711 
L 184.318233 334.156035 
L 184.781367 334.789083 
L 185.707633 336.860219 
L 188.486433 343.866605 
L 189.568897 346.6 
M 224.91777 346.6 
L 229.7053 334.789083 
L 230.168433 334.156035 
L 230.4 334.171711 
L 230.631567 333.815188 
L 231.0947 335.379832 
L 232.252533 340.822592 
L 233.356382 346.6 
M 252.806793 346.6 
L 253.556667 342.710213 
L 254.0198 341.963837 
L 254.482933 341.645508 
L 254.7145 341.670851 
L 255.177633 342.070766 
L 255.640767 342.841548 
L 256.335467 344.439456 
L 257.118492 346.6 
M 271.802353 346.6 
L 274.1661 339.005996 
L 275.787067 334.466923 
L 276.2502 333.362459 
L 276.481767 333.627788 
L 276.481767 333.627788 
" clip-path="url(#p633cebb71c)" style="fill: none; stroke: #d62728; stroke-width: 0.1; stroke-linecap: square"/>
   </g>
   <g id="line2d_60">
    <path d="M 184.086667 332.236284 
L 184.318233 332.334428 
L 184.781367 331.979486 
L 185.9392 330.703867 
L 186.6339 330.244872 
L 187.3286 330.082537 
L 188.0233 330.220649 
L 188.718 330.645858 
L 189.4127 331.333181 
L 190.338967 332.601673 
L 191.4968 334.63746 
L 193.117767 338.058584 
L 196.591267 346.196933 
L 196.765803 346.6 
M 217.720864 346.6 
L 222.989867 334.63746 
L 224.1477 332.601673 
L 225.073967 331.333181 
L 225.768667 330.645858 
L 226.463367 330.220649 
L 227.158067 330.082537 
L 227.852767 330.244872 
L 228.547467 330.703867 
L 229.473733 331.702629 
L 229.936867 332.21708 
L 230.168433 332.334428 
L 230.4 332.236284 
L 230.631567 332.662668 
L 231.0947 331.55045 
L 231.7894 329.840444 
L 232.252533 329.065647 
L 232.715667 328.654464 
L 232.947233 328.610276 
L 233.1788 328.693687 
L 233.410367 328.92595 
L 233.8735 329.945966 
L 234.336633 331.863477 
L 235.031333 336.284144 
L 236.293186 346.6 
M 241.715472 346.6 
L 242.441467 342.52255 
L 242.673033 342.132895 
L 242.9046 342.509736 
L 243.367733 343.834606 
L 244.086444 346.6 
M 247.352613 346.6 
L 249.1569 335.933209 
L 250.083167 331.734365 
L 250.5463 330.286216 
L 251.009433 329.394909 
L 251.472567 329.091359 
L 251.704133 329.150859 
L 252.167267 329.64522 
L 252.6304 330.559387 
L 253.3251 332.492215 
L 253.556667 333.226747 
L 254.0198 333.664479 
L 254.482933 333.815796 
L 254.946067 333.625627 
L 255.640767 332.878429 
L 256.567033 331.768132 
L 257.030167 331.458714 
L 257.4933 331.480232 
L 257.956433 331.938114 
L 258.419567 332.869795 
L 259.114267 335.027117 
L 260.040533 338.801638 
L 261.695746 346.6 
M 267.048139 346.6 
L 269.3032 336.149316 
L 270.461033 331.699078 
L 271.155733 329.69235 
L 271.850433 328.402653 
L 272.313567 327.978894 
L 272.7767 327.880185 
L 273.239833 328.059323 
L 273.702967 328.463846 
L 274.397667 329.393572 
L 275.323933 331.062172 
L 276.2502 333.020366 
L 276.481767 332.750637 
L 276.481767 332.750637 
" clip-path="url(#p633cebb71c)" style="fill: none; stroke: #9467bd; stroke-width: 0.1; stroke-linecap: square"/>
   </g>
   <g id="line2d_61">
    <path d="M 184.086667 296.86239 
L 184.781367 297.840428 
L 185.476067 299.13978 
L 186.170767 300.837383 
L 187.3286 304.460069 
L 189.181133 311.213752 
L 191.959933 322.234538 
L 195.665 337.898417 
L 197.681197 346.6 
M 205.789859 346.6 
L 206.7802 344.515751 
L 207.011767 344.228042 
L 207.243333 344.122074 
L 207.4749 344.228042 
L 207.938033 344.924645 
L 208.696808 346.6 
M 216.805469 346.6 
L 219.516367 334.897347 
L 223.221433 319.409092 
L 226.2318 307.748465 
L 227.852767 302.191916 
L 228.779033 299.657738 
L 229.7053 297.840428 
L 230.4 296.86239 
L 230.631567 296.789909 
L 230.863133 297.349369 
L 231.326267 300.268958 
L 233.8735 319.456333 
L 234.5682 322.697329 
L 235.2629 324.782651 
L 240.1258 336.748259 
L 241.283633 338.883696 
L 242.441467 340.69141 
L 242.673033 340.248204 
L 243.5993 335.240389 
L 245.451833 325.437925 
L 247.0728 317.978377 
L 248.4622 312.593019 
L 249.388467 309.712729 
L 250.083167 308.270846 
L 250.777867 306.869168 
L 251.472567 304.820961 
L 252.167267 302.848506 
L 252.861967 301.640147 
L 253.556667 300.726041 
L 255.872333 311.758501 
L 257.030167 316.247296 
L 257.724867 318.046444 
L 258.188 318.707328 
L 258.651133 318.946057 
L 259.114267 318.853054 
L 259.808967 318.325645 
L 261.198367 316.755246 
L 262.819333 315.012994 
L 263.977167 314.091058 
L 264.903433 313.594044 
L 265.8297 313.316129 
L 266.755967 313.243587 
L 267.9138 313.383815 
L 269.766333 313.695112 
L 270.461033 313.54621 
L 270.924167 313.237682 
L 271.3873 312.692887 
L 271.850433 311.867968 
L 272.545133 310.089272 
L 273.4714 306.887316 
L 275.092367 300.109349 
L 276.018633 296.635402 
L 276.2502 296.314983 
L 276.481767 296.434796 
L 276.481767 296.434796 
" clip-path="url(#p633cebb71c)" style="fill: none; stroke: #8c564b; stroke-width: 0.1; stroke-linecap: square"/>
   </g>
   <g id="line2d_62">
    <path d="M 184.086667 291.758312 
L 184.5498 292.859349 
L 185.707633 295.836592 
L 186.402333 297.114973 
L 187.097033 298.010521 
L 188.0233 298.837853 
L 189.4127 299.723963 
L 191.033667 300.771737 
L 192.1915 301.807279 
L 193.349333 303.216672 
L 194.507167 305.049581 
L 195.665 307.306445 
L 197.0544 310.527229 
L 198.675367 314.876071 
L 200.759467 321.145071 
L 206.548633 339.114513 
L 207.011767 339.891574 
L 207.243333 340.007565 
L 207.4749 339.891574 
L 207.938033 339.114513 
L 208.8643 336.640873 
L 210.9484 330.089615 
L 215.1166 316.896083 
L 216.969133 311.711068 
L 218.5901 307.806244 
L 219.9795 305.049581 
L 221.137333 303.216672 
L 222.295167 301.807279 
L 223.453 300.771737 
L 224.8424 299.86004 
L 226.694933 298.658242 
L 227.6212 297.745908 
L 228.3159 296.73756 
L 229.0106 295.311456 
L 230.4 291.758312 
L 230.863133 293.681837 
L 231.0947 293.817252 
L 231.557833 293.301815 
L 233.410367 290.581615 
L 234.105067 289.957737 
L 234.5682 289.75667 
L 235.031333 289.760919 
L 235.494467 289.991748 
L 235.9576 290.461785 
L 236.6523 291.619942 
L 237.347 293.295297 
L 238.273267 296.220823 
L 239.662667 301.616869 
L 241.5152 308.945863 
L 242.2099 311.054061 
L 242.9046 312.472904 
L 243.367733 312.979353 
L 243.830867 313.146139 
L 244.294 313.021467 
L 244.9887 312.439543 
L 246.609667 310.43668 
L 247.535933 309.494624 
L 248.693767 308.700899 
L 249.388467 308.142284 
L 249.8516 307.41891 
L 251.241 304.228151 
L 251.9357 302.306967 
L 252.6304 299.108117 
L 253.556667 294.488444 
L 254.7145 291.175461 
L 255.640767 289.143982 
L 256.7986 287.218042 
L 258.188 285.325466 
L 259.5774 283.748275 
L 260.9668 282.485372 
L 262.124633 281.688761 
L 263.282467 281.137192 
L 264.4403 280.838564 
L 265.598133 280.796309 
L 266.755967 281.009089 
L 267.9138 281.470681 
L 269.071633 282.16998 
L 270.461033 283.300702 
L 271.850433 284.721035 
L 273.239833 286.460364 
L 273.934533 287.661725 
L 274.8608 290.010602 
L 275.787067 292.38156 
L 276.018633 292.71817 
L 276.2502 292.71666 
L 276.481767 292.320764 
L 276.481767 292.320764 
" clip-path="url(#p633cebb71c)" style="fill: none; stroke: #e377c2; stroke-width: 0.1; stroke-linecap: square"/>
   </g>
   <g id="line2d_63">
    <path d="M 184.086667 290.145755 
L 184.5498 288.401424 
L 186.402333 279.672479 
L 202.612 201.363138 
L 205.853933 187.007634 
L 206.7802 183.453094 
L 207.243333 182.24539 
L 207.706467 183.453094 
L 208.632733 187.007634 
L 210.9484 197.151061 
L 215.348167 217.563061 
L 221.3689 246.635458 
L 230.168433 289.370832 
L 230.4 290.145755 
L 230.863133 287.836447 
L 232.947233 274.817886 
L 235.726033 257.799166 
L 237.347 249.095033 
L 238.7364 242.841357 
L 239.894233 238.743655 
L 240.8205 236.319315 
L 241.5152 235.036311 
L 242.2099 234.219113 
L 242.673033 233.928849 
L 243.136167 233.836463 
L 243.5993 233.937939 
L 244.062433 234.235555 
L 244.525567 234.747695 
L 244.9887 235.524171 
L 245.451833 236.653976 
L 246.146533 239.173601 
L 247.0728 243.865383 
L 248.230633 251.019218 
L 249.8516 262.422603 
L 252.167267 280.370692 
L 253.556667 290.984456 
L 254.7145 288.822273 
L 255.640767 286.614634 
L 259.808967 275.943272 
L 261.198367 273.228075 
L 262.124633 271.815693 
L 263.0509 270.787825 
L 263.7456 270.29982 
L 264.4403 270.071239 
L 265.135 270.1085 
L 265.8297 270.408554 
L 266.5244 270.95948 
L 267.450667 272.051365 
L 268.376933 273.50153 
L 269.534767 275.732866 
L 270.924167 278.894498 
L 273.008267 284.286924 
L 273.934533 286.549431 
L 274.629233 287.742884 
L 276.018633 289.600393 
L 276.481767 290.075727 
L 276.481767 290.075727 
" clip-path="url(#p633cebb71c)" style="fill: none; stroke: #7f7f7f; stroke-width: 0.1; stroke-linecap: square"/>
   </g>
   <g id="line2d_64">
    <path d="M 184.086667 232.387236 
L 188.254867 232.223476 
L 189.181133 231.901223 
L 190.1074 231.358373 
L 191.033667 230.551955 
L 191.959933 229.451165 
L 192.8862 228.039289 
L 194.044033 225.834055 
L 195.201867 223.159891 
L 196.591267 219.389565 
L 198.212233 214.328022 
L 200.296333 206.986157 
L 202.843567 197.088773 
L 206.317067 183.265365 
L 206.7802 182.215886 
L 207.011767 182.042127 
L 207.243333 182.202865 
L 207.4749 182.042127 
L 207.706467 182.215886 
L 208.1696 183.265365 
L 209.095867 186.674372 
L 214.653467 208.686496 
L 216.737567 215.839318 
L 218.358533 220.709661 
L 219.747933 224.283568 
L 221.137333 227.215344 
L 222.295167 229.127697 
L 223.221433 230.305255 
L 224.1477 231.182911 
L 225.073967 231.78805 
L 226.000233 232.160878 
L 227.158067 232.376803 
L 228.779033 232.407833 
L 231.0947 232.454355 
L 233.641933 232.791759 
L 234.336633 232.577325 
L 235.031333 232.089204 
L 235.726033 231.29244 
L 236.6523 229.774467 
L 238.0417 226.875133 
L 239.4311 224.082357 
L 240.1258 223.067405 
L 240.8205 222.473105 
L 241.283633 222.358122 
L 241.746767 222.49083 
L 242.2099 222.881114 
L 242.673033 223.529619 
L 243.367733 224.963513 
L 244.294 227.590542 
L 245.914967 232.451267 
L 246.609667 233.785577 
L 247.304367 234.706797 
L 248.230633 235.511788 
L 249.1569 235.949884 
L 250.083167 236.118182 
L 253.3251 236.398496 
L 253.788233 236.474161 
L 255.4092 236.522632 
L 256.7986 236.766867 
L 258.188 237.221884 
L 260.2721 238.184393 
L 262.124633 239.004661 
L 263.282467 239.29429 
L 264.208733 239.317356 
L 265.135 239.122737 
L 266.061267 238.712153 
L 267.2191 237.944385 
L 269.071633 236.376322 
L 271.3873 234.427783 
L 272.7767 233.512202 
L 274.1661 232.872635 
L 275.5555 232.512006 
L 276.481767 232.40214 
L 276.481767 232.40214 
" clip-path="url(#p633cebb71c)" style="fill: none; stroke: #bcbd22; stroke-width: 0.1; stroke-linecap: square"/>
   </g>
   <g id="line2d_65">
    <path d="M 184.086667 180.876895 
L 202.148867 180.432906 
L 205.853933 180.552767 
L 206.548633 180.800168 
L 207.243333 181.324386 
L 207.706467 180.982936 
L 208.1696 180.678122 
L 208.8643 180.522953 
L 210.9484 180.456082 
L 215.579733 180.475436 
L 230.863133 180.844119 
L 233.1788 180.821618 
L 235.9576 181.046916 
L 238.7364 181.256235 
L 240.1258 181.160887 
L 242.441467 180.884479 
L 244.525567 181.245226 
L 246.841233 181.519664 
L 249.1569 181.555661 
L 251.241 181.369161 
L 254.7145 180.957726 
L 260.2721 181.175844 
L 264.671867 181.218631 
L 269.3032 181.020052 
L 274.629233 180.812825 
L 276.481767 180.866068 
L 276.481767 180.866068 
" clip-path="url(#p633cebb71c)" style="fill: none; stroke: #17becf; stroke-width: 0.1; stroke-linecap: square"/>
   </g>
   <g id="line2d_66">
    <path d="M 184.086667 179.973431 
L 190.1074 179.779855 
L 194.507167 179.929394 
L 203.075133 180.293259 
L 205.622367 180.184834 
L 206.0855 180.030495 
L 206.548633 179.61162 
L 207.243333 178.635329 
L 207.4749 178.834906 
L 208.1696 179.870205 
L 208.632733 180.126771 
L 209.559 180.257045 
L 212.800933 180.28991 
L 216.737567 180.11776 
L 224.1477 179.78203 
L 228.084333 179.854629 
L 231.0947 179.91103 
L 235.031333 179.605619 
L 237.347 179.687071 
L 239.662667 180.011426 
L 241.978333 180.390684 
L 242.9046 180.271605 
L 244.9887 179.946292 
L 246.609667 179.951921 
L 250.314733 180.298678 
L 253.3251 180.442953 
L 254.251367 180.31437 
L 260.2721 179.334112 
L 263.282467 179.089404 
L 266.292833 179.078913 
L 269.534767 179.314963 
L 276.481767 179.966095 
L 276.481767 179.966095 
" clip-path="url(#p633cebb71c)" style="fill: none; stroke: #1f77b4; stroke-width: 0.1; stroke-linecap: square"/>
   </g>
   <g id="line2d_67">
    <path d="M 184.086667 126.471649 
L 188.254867 126.736583 
L 189.181133 127.072719 
L 190.1074 127.623062 
L 191.033667 128.429658 
L 191.959933 129.522809 
L 192.8862 130.919213 
L 194.044033 133.094823 
L 195.201867 135.729531 
L 196.591267 139.442464 
L 198.212233 144.427425 
L 200.296333 151.660992 
L 202.843567 161.412798 
L 206.548633 175.798685 
L 207.011767 176.648095 
L 207.243333 176.56515 
L 207.4749 176.648095 
L 207.706467 176.348579 
L 208.1696 175.097071 
L 209.327433 170.739769 
L 214.190333 151.660992 
L 216.274433 144.427425 
L 218.126967 138.785037 
L 219.516367 135.167499 
L 220.905767 132.167891 
L 222.0636 130.182604 
L 223.221433 128.67519 
L 224.1477 127.799282 
L 225.073967 127.188408 
L 226.000233 126.803187 
L 227.158067 126.564244 
L 228.779033 126.492387 
L 231.326267 126.394987 
L 232.4841 126.066632 
L 234.799767 125.302689 
L 235.494467 125.284832 
L 236.189167 125.456734 
L 236.883867 125.863715 
L 237.578567 126.572026 
L 238.273267 127.706202 
L 238.967967 129.368702 
L 240.8205 134.349043 
L 241.5152 135.573574 
L 241.978333 136.087411 
L 242.441467 136.34786 
L 242.9046 136.356911 
L 243.367733 136.125744 
L 243.830867 135.673669 
L 244.525567 134.640082 
L 245.451833 132.773191 
L 248.4622 126.174005 
L 249.388467 124.830187 
L 250.083167 124.137368 
L 250.777867 123.684546 
L 251.704133 123.35991 
L 253.093533 123.171697 
L 253.788233 123.174287 
L 255.177633 123.316108 
L 256.335467 123.213615 
L 257.4933 122.896109 
L 258.8827 122.259423 
L 261.198367 120.856797 
L 262.587767 120.109687 
L 263.514033 119.796458 
L 264.4403 119.705526 
L 265.366567 119.870955 
L 266.292833 120.286815 
L 267.450667 121.090316 
L 269.3032 122.718499 
L 271.3873 124.495043 
L 272.7767 125.411981 
L 274.1661 126.036416 
L 275.5555 126.371331 
L 276.481767 126.461656 
L 276.481767 126.461656 
" clip-path="url(#p633cebb71c)" style="fill: none; stroke: #ff7f0e; stroke-width: 0.1; stroke-linecap: square"/>
   </g>
   <g id="line2d_68">
    <path d="M 184.086667 68.055951 
L 184.318233 68.425954 
L 184.781367 70.157704 
L 186.402333 77.836285 
L 202.380433 155.804673 
L 206.0855 172.498892 
L 207.011767 176.040901 
L 207.243333 176.545681 
L 207.706467 175.277717 
L 208.8643 170.506827 
L 212.106233 155.804673 
L 217.2007 131.592716 
L 224.1477 97.388628 
L 229.7053 70.157704 
L 230.168433 68.425954 
L 230.4 68.055951 
L 230.631567 68.848109 
L 231.7894 77.807486 
L 234.5682 99.128287 
L 236.189167 110.160905 
L 237.347 116.875306 
L 238.273267 121.008217 
L 238.967967 123.026531 
L 239.4311 123.860593 
L 239.894233 124.378407 
L 240.357367 124.647302 
L 240.8205 124.702457 
L 241.283633 124.556927 
L 241.746767 124.212805 
L 242.441467 123.320153 
L 243.136167 121.971872 
L 243.830867 120.17397 
L 244.757133 117.112338 
L 245.914967 112.327477 
L 247.304367 105.429574 
L 249.1569 94.81858 
L 253.556667 67.679278 
L 255.177633 72.701775 
L 257.724867 80.388133 
L 259.5774 85.285406 
L 260.9668 88.37674 
L 262.124633 90.431476 
L 263.0509 91.643329 
L 263.7456 92.257429 
L 264.4403 92.594531 
L 265.135 92.642934 
L 265.8297 92.403184 
L 266.5244 91.887895 
L 267.2191 91.118942 
L 268.145367 89.745966 
L 269.3032 87.563347 
L 270.6926 84.407758 
L 272.313567 80.171776 
L 274.629233 73.403076 
L 276.481767 68.00424 
L 276.481767 68.00424 
" clip-path="url(#p633cebb71c)" style="fill: none; stroke: #2ca02c; stroke-width: 0.1; stroke-linecap: square"/>
   </g>
   <g id="line2d_69">
    <path d="M 184.086667 66.429796 
L 184.318233 66.683611 
L 184.5498 66.617618 
L 185.2445 65.935266 
L 187.791733 63.284748 
L 191.265233 59.899925 
L 192.423067 58.417576 
L 193.5809 56.597718 
L 194.738733 54.401036 
L 196.128133 51.26861 
L 197.7491 46.996196 
L 199.601633 41.459153 
L 202.380433 32.326972 
L 206.0855 20.130416 
L 206.7802 18.348057 
L 207.011767 17.972496 
L 207.243333 17.830485 
L 207.4749 17.972496 
L 207.938033 18.869095 
L 208.8643 21.532343 
L 211.179967 29.18696 
L 215.1166 42.182382 
L 217.2007 48.278378 
L 218.821667 52.370836 
L 220.211067 55.325726 
L 221.600467 57.733299 
L 222.7583 59.343152 
L 224.1477 60.896811 
L 226.9265 63.505746 
L 229.0106 65.679555 
L 229.936867 66.617618 
L 230.168433 66.683611 
L 230.631567 66.074348 
L 231.7894 61.318209 
L 232.947233 57.99163 
L 234.5682 54.079126 
L 235.494467 52.488022 
L 238.504833 48.299265 
L 239.662667 46.562376 
L 240.357367 45.913948 
L 240.8205 45.78131 
L 241.283633 45.949288 
L 241.746767 46.443011 
L 242.2099 47.256439 
L 242.9046 48.994589 
L 244.062433 52.788293 
L 246.3781 60.651817 
L 247.304367 63.021815 
L 247.999067 64.319564 
L 248.693767 65.162078 
L 249.1569 65.468153 
L 249.620033 65.578121 
L 250.083167 65.506136 
L 250.777867 65.098164 
L 251.472567 64.390945 
L 252.398833 63.077064 
L 253.093533 61.885189 
L 253.3251 61.867077 
L 253.556667 63.416078 
L 257.724867 69.949151 
L 259.114267 71.617408 
L 260.503667 72.939038 
L 261.6615 73.751133 
L 262.819333 74.285336 
L 263.977167 74.533199 
L 264.903433 74.523138 
L 265.8297 74.328909 
L 266.987533 73.832769 
L 268.145367 73.067159 
L 269.3032 72.051456 
L 270.6926 70.541336 
L 272.545133 68.147756 
L 275.092367 64.815963 
L 275.5555 64.605916 
L 275.787067 64.738365 
L 276.2502 65.67286 
L 276.481767 66.277708 
L 276.481767 66.277708 
" clip-path="url(#p633cebb71c)" style="fill: none; stroke: #d62728; stroke-width: 0.1; stroke-linecap: square"/>
   </g>
   <g id="line2d_70">
    <path d="M 184.086667 60.871173 
L 184.781367 58.984858 
L 186.402333 53.605924 
L 189.181133 43.546723 
L 193.5809 27.451175 
L 194.9703 23.253711 
L 196.822833 18.440788 
L 198.906933 13.635257 
L 200.296333 10.93 
L 201.2226 9.525274 
L 201.9173 8.78691 
L 202.612 8.403127 
L 203.075133 8.378001 
L 203.538267 8.551734 
L 204.0014 8.925089 
L 204.6961 9.833878 
L 205.622367 11.570235 
L 207.011767 14.359942 
L 207.243333 14.486476 
L 207.4749 14.359942 
L 207.938033 13.588005 
L 209.790567 9.833878 
L 210.485267 8.925089 
L 211.179967 8.439696 
L 211.6431 8.366189 
L 212.106233 8.487088 
L 212.800933 8.997425 
L 213.495633 9.836848 
L 214.4219 11.339235 
L 215.8113 14.134026 
L 217.663833 18.440788 
L 219.516367 23.253711 
L 220.905767 27.451175 
L 222.526733 33.142284 
L 229.0106 56.759094 
L 230.168433 60.315117 
L 230.4 60.871173 
L 230.863133 59.967011 
L 231.557833 57.791092 
L 233.1788 52.252753 
L 233.8735 50.720193 
L 235.2629 48.049237 
L 235.9576 46.108312 
L 236.883867 42.842374 
L 238.273267 36.962992 
L 239.894233 29.027439 
L 241.978333 17.532982 
L 242.441467 14.98035 
L 242.673033 14.33144 
L 242.9046 14.502846 
L 243.5993 15.722538 
L 244.525567 17.814172 
L 248.693767 27.968296 
L 249.1569 29.209753 
L 249.620033 31.184394 
L 250.314733 35.938558 
L 252.167267 51.534858 
L 253.3251 60.80911 
L 253.556667 60.639802 
L 256.335467 50.018467 
L 257.030167 48.199388 
L 257.724867 46.957538 
L 258.188 46.452409 
L 258.651133 46.17383 
L 259.345833 46.085492 
L 260.040533 46.259276 
L 261.429933 46.937048 
L 263.0509 47.697929 
L 264.208733 48.008769 
L 265.366567 48.063364 
L 266.5244 47.864481 
L 267.9138 47.376049 
L 269.534767 46.821416 
L 270.229467 46.807302 
L 270.6926 46.9639 
L 271.155733 47.307075 
L 271.618867 47.878809 
L 272.313567 49.216147 
L 273.008267 51.108441 
L 273.934533 54.289147 
L 275.5555 60.251977 
L 276.018633 61.094748 
L 276.2502 61.166187 
L 276.481767 61.070907 
L 276.481767 61.070907 
" clip-path="url(#p633cebb71c)" style="fill: none; stroke: #9467bd; stroke-width: 0.1; stroke-linecap: square"/>
   </g>
   <g id="line2d_71">
    <path d="M 184.086667 24.943824 
L 185.2445 27.136924 
L 186.170767 28.443611 
L 186.865467 29.126352 
L 187.560167 29.539449 
L 188.254867 29.677181 
L 188.949567 29.541124 
L 189.644267 29.13909 
L 190.338967 28.482629 
L 191.265233 27.230726 
L 192.1915 25.556442 
L 193.117767 23.431496 
L 194.044033 20.799867 
L 195.201867 16.821448 
L 197.0544 9.445555 
L 199.470428 -1 
M 215.016238 -1 
L 218.126967 12.308248 
L 219.747933 18.493289 
L 220.905767 22.181471 
L 222.0636 25.069567 
L 222.989867 26.852066 
L 223.916133 28.209342 
L 224.8424 29.13909 
L 225.5371 29.541124 
L 226.2318 29.677181 
L 226.9265 29.539449 
L 227.6212 29.126352 
L 228.3159 28.443611 
L 229.242167 27.136924 
L 230.168433 25.423956 
L 230.4 24.943824 
L 231.557833 28.279013 
L 232.020967 29.095903 
L 232.4841 29.459679 
L 232.715667 29.445682 
L 232.947233 29.290722 
L 233.410367 28.546161 
L 233.8735 27.242622 
L 234.5682 24.407312 
L 235.494467 19.513113 
L 238.0417 4.831344 
L 238.504833 3.679424 
L 238.7364 3.714234 
L 238.967967 4.10154 
L 239.662667 6.273159 
L 240.8205 10.086176 
L 241.5152 11.785508 
L 242.2099 13.032295 
L 242.441467 13.286669 
L 242.673033 12.938573 
L 243.367733 8.99829 
L 244.940654 -1 
M 246.477721 -1 
L 248.693767 18.669973 
L 249.388467 23.533994 
L 249.8516 25.406659 
L 250.314733 26.186769 
L 250.777867 26.340408 
L 251.241 26.125012 
L 251.9357 25.392905 
L 252.6304 24.615934 
L 253.093533 24.47568 
L 253.556667 24.837756 
L 254.7145 26.785084 
L 255.4092 27.61829 
L 255.872333 27.967189 
L 256.335467 28.104515 
L 256.7986 27.988843 
L 257.261733 27.585531 
L 257.724867 26.876803 
L 258.419567 25.260233 
L 259.345833 22.251987 
L 260.503667 17.592503 
L 262.587767 8.070135 
L 263.977167 1.83927 
L 264.4403 0.601336 
L 264.671867 0.727865 
L 265.135 2.261075 
L 266.5244 8.715256 
L 269.071633 20.396283 
L 270.229467 24.872285 
L 271.155733 27.610158 
L 271.850433 28.952793 
L 272.313567 29.465104 
L 272.7767 29.680496 
L 273.239833 29.630223 
L 273.702967 29.355465 
L 274.397667 28.613138 
L 275.323933 27.194176 
L 276.481767 25.194307 
L 276.481767 25.194307 
" clip-path="url(#p633cebb71c)" style="fill: none; stroke: #8c564b; stroke-width: 0.1; stroke-linecap: square"/>
   </g>
   <g id="line2d_72">
    <path d="M 184.086667 23.064443 
L 185.707633 18.990138 
L 188.718 10.686351 
L 192.423067 0.572647 
L 193.045776 -1 
M 221.44089 -1 
L 223.453 4.251887 
L 230.4 23.064443 
L 231.0947 20.48454 
L 232.252533 15.152107 
L 235.599622 -1 
M 248.795305 -1 
L 250.777867 9.083661 
L 251.9357 13.94782 
L 252.398833 15.36137 
L 252.861967 16.164995 
L 253.093533 16.250211 
L 253.3251 16.100301 
L 253.556667 15.726831 
L 255.4092 9.070825 
L 258.093547 -1 
M 268.484351 -1 
L 270.6926 6.392233 
L 273.4714 15.451822 
L 275.092367 19.983958 
L 276.018633 22.094454 
L 276.481767 22.866633 
L 276.481767 22.866633 
" clip-path="url(#p633cebb71c)" style="fill: none; stroke: #e377c2; stroke-width: 0.1; stroke-linecap: square"/>
   </g>
   <g id="line2d_73">
    <path d="M 0 0 
" clip-path="url(#p633cebb71c)" style="fill: none; stroke: #7f7f7f; stroke-width: 0.1; stroke-linecap: square"/>
   </g>
   <g id="line2d_74">
    <path d="M 0 0 
" clip-path="url(#p633cebb71c)" style="fill: none; stroke: #bcbd22; stroke-width: 0.1; stroke-linecap: square"/>
   </g>
   <g id="line2d_75">
    <path d="M 0 0 
" clip-path="url(#p633cebb71c)" style="fill: none; stroke: #17becf; stroke-width: 0.1; stroke-linecap: square"/>
   </g>
   <g id="line2d_76">
    <path d="M 0 0 
" clip-path="url(#p633cebb71c)" style="fill: none; stroke: #1f77b4; stroke-width: 0.1; stroke-linecap: square"/>
   </g>
   <g id="line2d_77">
    <path d="M 0 0 
" clip-path="url(#p633cebb71c)" style="fill: none; stroke: #ff7f0e; stroke-width: 0.1; stroke-linecap: square"/>
   </g>
   <g id="line2d_78">
    <path d="M 0 0 
" clip-path="url(#p633cebb71c)" style="fill: none; stroke: #2ca02c; stroke-width: 0.1; stroke-linecap: square"/>
   </g>
   <g id="line2d_79">
    <path d="M 0 0 
" clip-path="url(#p633cebb71c)" style="fill: none; stroke: #d62728; stroke-width: 0.1; stroke-linecap: square"/>
   </g>
   <g id="line2d_80">
    <path d="M 0 0 
" clip-path="url(#p633cebb71c)" style="fill: none; stroke: #9467bd; stroke-width: 0.1; stroke-linecap: square"/>
   </g>
   <g id="line2d_81">
    <path d="M 0 0 
" clip-path="url(#p633cebb71c)" style="fill: none; stroke: #8c564b; stroke-width: 0.1; stroke-linecap: square"/>
   </g>
   <g id="line2d_82">
    <path d="M 0 0 
" clip-path="url(#p633cebb71c)" style="fill: none; stroke: #e377c2; stroke-width: 0.1; stroke-linecap: square"/>
   </g>
   <g id="line2d_83">
    <path d="M 0 0 
" clip-path="url(#p633cebb71c)" style="fill: none; stroke: #7f7f7f; stroke-width: 0.1; stroke-linecap: square"/>
   </g>
   <g id="line2d_84">
    <path d="M 0 0 
" clip-path="url(#p633cebb71c)" style="fill: none; stroke: #bcbd22; stroke-width: 0.1; stroke-linecap: square"/>
   </g>
   <g id="line2d_85">
    <path d="M 0 0 
" clip-path="url(#p633cebb71c)" style="fill: none; stroke: #17becf; stroke-width: 0.1; stroke-linecap: square"/>
   </g>
   <g id="line2d_86">
    <path d="M 0 0 
" clip-path="url(#p633cebb71c)" style="fill: none; stroke: #1f77b4; stroke-width: 0.1; stroke-linecap: square"/>
   </g>
   <g id="line2d_87">
    <path d="M 0 0 
" clip-path="url(#p633cebb71c)" style="fill: none; stroke: #ff7f0e; stroke-width: 0.1; stroke-linecap: square"/>
   </g>
   <g id="line2d_88">
    <path d="M 0 0 
" clip-path="url(#p633cebb71c)" style="fill: none; stroke: #2ca02c; stroke-width: 0.1; stroke-linecap: square"/>
   </g>
   <g id="line2d_89">
    <path d="M 0 0 
" clip-path="url(#p633cebb71c)" style="fill: none; stroke: #d62728; stroke-width: 0.1; stroke-linecap: square"/>
   </g>
   <g id="line2d_90">
    <path d="M 0 0 
" clip-path="url(#p633cebb71c)" style="fill: none; stroke: #9467bd; stroke-width: 0.1; stroke-linecap: square"/>
   </g>
   <g id="line2d_91">
    <path d="M 0 0 
" clip-path="url(#p633cebb71c)" style="fill: none; stroke: #8c564b; stroke-width: 0.1; stroke-linecap: square"/>
   </g>
   <g id="line2d_92">
    <path d="M 0 0 
" clip-path="url(#p633cebb71c)" style="fill: none; stroke: #e377c2; stroke-width: 0.1; stroke-linecap: square"/>
   </g>
   <g id="line2d_93">
    <path d="M 0 0 
" clip-path="url(#p633cebb71c)" style="fill: none; stroke: #7f7f7f; stroke-width: 0.1; stroke-linecap: square"/>
   </g>
   <g id="line2d_94">
    <path d="M 0 0 
" clip-path="url(#p633cebb71c)" style="fill: none; stroke: #bcbd22; stroke-width: 0.1; stroke-linecap: square"/>
   </g>
   <g id="line2d_95">
    <path d="M 0 0 
" clip-path="url(#p633cebb71c)" style="fill: none; stroke: #17becf; stroke-width: 0.1; stroke-linecap: square"/>
   </g>
   <g id="line2d_96">
    <path d="M 0 0 
" clip-path="url(#p633cebb71c)" style="fill: none; stroke: #1f77b4; stroke-width: 0.1; stroke-linecap: square"/>
   </g>
   <g id="line2d_97">
    <path d="M 0 0 
" clip-path="url(#p633cebb71c)" style="fill: none; stroke: #ff7f0e; stroke-width: 0.1; stroke-linecap: square"/>
   </g>
   <g id="line2d_98">
    <path d="M 0 0 
" clip-path="url(#p633cebb71c)" style="fill: none; stroke: #2ca02c; stroke-width: 0.1; stroke-linecap: square"/>
   </g>
   <g id="line2d_99">
    <path d="M 0 0 
" clip-path="url(#p633cebb71c)" style="fill: none; stroke: #d62728; stroke-width: 0.1; stroke-linecap: square"/>
   </g>
   <g id="line2d_100">
    <path d="M 0 0 
" clip-path="url(#p633cebb71c)" style="fill: none; stroke: #9467bd; stroke-width: 0.1; stroke-linecap: square"/>
   </g>
   <g id="line2d_101">
    <path d="M 0 0 
" clip-path="url(#p633cebb71c)" style="fill: none; stroke: #8c564b; stroke-width: 0.1; stroke-linecap: square"/>
   </g>
   <g id="line2d_102">
    <path d="M 0 0 
" clip-path="url(#p633cebb71c)" style="fill: none; stroke: #e377c2; stroke-width: 0.1; stroke-linecap: square"/>
   </g>
   <g id="line2d_103">
    <path d="M 0 0 
" clip-path="url(#p633cebb71c)" style="fill: none; stroke: #7f7f7f; stroke-width: 0.1; stroke-linecap: square"/>
   </g>
   <g id="line2d_104">
    <path d="M 0 0 
" clip-path="url(#p633cebb71c)" style="fill: none; stroke: #bcbd22; stroke-width: 0.1; stroke-linecap: square"/>
   </g>
   <g id="line2d_105">
    <path d="M 0 0 
" clip-path="url(#p633cebb71c)" style="fill: none; stroke: #17becf; stroke-width: 0.1; stroke-linecap: square"/>
   </g>
   <g id="line2d_106">
    <path d="M 0 0 
" clip-path="url(#p633cebb71c)" style="fill: none; stroke: #1f77b4; stroke-width: 0.1; stroke-linecap: square"/>
   </g>
   <g id="line2d_107">
    <path d="M 0 0 
" clip-path="url(#p633cebb71c)" style="fill: none; stroke: #ff7f0e; stroke-width: 0.1; stroke-linecap: square"/>
   </g>
   <g id="line2d_108">
    <path d="M 0 0 
" clip-path="url(#p633cebb71c)" style="fill: none; stroke: #2ca02c; stroke-width: 0.1; stroke-linecap: square"/>
   </g>
   <g id="line2d_109">
    <path d="M 0 0 
" clip-path="url(#p633cebb71c)" style="fill: none; stroke: #d62728; stroke-width: 0.1; stroke-linecap: square"/>
   </g>
   <g id="line2d_110">
    <path d="M 0 0 
" clip-path="url(#p633cebb71c)" style="fill: none; stroke: #9467bd; stroke-width: 0.1; stroke-linecap: square"/>
   </g>
   <g id="line2d_111">
    <path d="M 0 0 
" clip-path="url(#p633cebb71c)" style="fill: none; stroke: #8c564b; stroke-width: 0.1; stroke-linecap: square"/>
   </g>
   <g id="line2d_112">
    <path d="M 0 0 
" clip-path="url(#p633cebb71c)" style="fill: none; stroke: #e377c2; stroke-width: 0.1; stroke-linecap: square"/>
   </g>
   <g id="line2d_113">
    <path d="M 0 0 
" clip-path="url(#p633cebb71c)" style="fill: none; stroke: #7f7f7f; stroke-width: 0.1; stroke-linecap: square"/>
   </g>
   <g id="line2d_114">
    <path d="M 0 0 
" clip-path="url(#p633cebb71c)" style="fill: none; stroke: #bcbd22; stroke-width: 0.1; stroke-linecap: square"/>
   </g>
   <g id="line2d_115">
    <path d="M 0 0 
" clip-path="url(#p633cebb71c)" style="fill: none; stroke: #17becf; stroke-width: 0.1; stroke-linecap: square"/>
   </g>
   <g id="LineCollection_1">
    <path d="M 207.243333 317.72 
L 207.243333 39.84 
" clip-path="url(#p633cebb71c)" style="fill: none; stroke: #000000; stroke-width: 0.1"/>
    <path d="M 230.4 317.72 
L 230.4 39.84 
" clip-path="url(#p633cebb71c)" style="fill: none; stroke: #000000; stroke-width: 0.1"/>
    <path d="M 253.556667 317.72 
L 253.556667 39.84 
" clip-path="url(#p633cebb71c)" style="fill: none; stroke: #000000; stroke-width: 0.1"/>
    <path d="M 265.135 317.72 
L 265.135 39.84 
" clip-path="url(#p633cebb71c)" style="fill: none; stroke: #000000; stroke-width: 0.1"/>
   </g>
   <g id="patch_3">
    <path d="M 184.086667 317.72 
L 184.086667 39.84 
" style="fill: none; stroke: #000000; stroke-width: 0.8; stroke-linejoin: miter; stroke-linecap: square"/>
   </g>
   <g id="patch_4">
    <path d="M 276.713333 317.72 
L 276.713333 39.84 
" style="fill: none; stroke: #000000; stroke-width: 0.8; stroke-linejoin: miter; stroke-linecap: square"/>
   </g>
   <g id="patch_5">
    <path d="M 184.086667 317.72 
L 276.713333 317.72 
" style="fill: none; stroke: #000000; stroke-width: 0.8; stroke-linejoin: miter; stroke-linecap: square"/>
   </g>
   <g id="patch_6">
    <path d="M 184.086667 39.84 
L 276.713333 39.84 
" style="fill: none; stroke: #000000; stroke-width: 0.8; stroke-linejoin: miter; stroke-linecap: square"/>
   </g>
   <g id="text_17">
    <!-- Moire bands of twisted bilayer graphene -->
    <g transform="translate(129.346875 21.055937) scale(0.1 -0.1)">
     <defs>
      <path id="DejaVuSans-6f" d="M 1959 3097 
Q 1497 3097 1228 2736 
Q 959 2375 959 1747 
Q 959 1119 1226 758 
Q 1494 397 1959 397 
Q 2419 397 2687 759 
Q 2956 1122 2956 1747 
Q 2956 2369 2687 2733 
Q 2419 3097 1959 3097 
z
M 1959 3584 
Q 2709 3584 3137 3096 
Q 3566 2609 3566 1747 
Q 3566 888 3137 398 
Q 2709 -91 1959 -91 
Q 1206 -91 779 398 
Q 353 888 353 1747 
Q 353 2609 779 3096 
Q 1206 3584 1959 3584 
z
" transform="scale(0.015625)"/>
      <path id="DejaVuSans-69" d="M 603 3500 
L 1178 3500 
L 1178 0 
L 603 0 
L 603 3500 
z
M 603 4863 
L 1178 4863 
L 1178 4134 
L 603 4134 
L 603 4863 
z
" transform="scale(0.015625)"/>
      <path id="DejaVuSans-72" d="M 2631 2963 
Q 2534 3019 2420 3045 
Q 2306 3072 2169 3072 
Q 1681 3072 1420 2755 
Q 1159 2438 1159 1844 
L 1159 0 
L 581 0 
L 581 3500 
L 1159 3500 
L 1159 2956 
Q 1341 3275 1631 3429 
Q 1922 3584 2338 3584 
Q 2397 3584 2469 3576 
Q 2541 3569 2628 3553 
L 2631 2963 
z
" transform="scale(0.015625)"/>
      <path id="DejaVuSans-20" transform="scale(0.015625)"/>
      <path id="DejaVuSans-62" d="M 3116 1747 
Q 3116 2381 2855 2742 
Q 2594 3103 2138 3103 
Q 1681 3103 1420 2742 
Q 1159 2381 1159 1747 
Q 1159 1113 1420 752 
Q 1681 391 2138 391 
Q 2594 391 2855 752 
Q 3116 1113 3116 1747 
z
M 1159 2969 
Q 1341 3281 1617 3432 
Q 1894 3584 2278 3584 
Q 2916 3584 3314 3078 
Q 3713 2572 3713 1747 
Q 3713 922 3314 415 
Q 2916 -91 2278 -91 
Q 1894 -91 1617 61 
Q 1341 213 1159 525 
L 1159 0 
L 581 0 
L 581 4863 
L 1159 4863 
L 1159 2969 
z
" transform="scale(0.015625)"/>
      <path id="DejaVuSans-61" d="M 2194 1759 
Q 1497 1759 1228 1600 
Q 959 1441 959 1056 
Q 959 750 1161 570 
Q 1363 391 1709 391 
Q 2188 391 2477 730 
Q 2766 1069 2766 1631 
L 2766 1759 
L 2194 1759 
z
M 3341 1997 
L 3341 0 
L 2766 0 
L 2766 531 
Q 2569 213 2275 61 
Q 1981 -91 1556 -91 
Q 1019 -91 701 211 
Q 384 513 384 1019 
Q 384 1609 779 1909 
Q 1175 2209 1959 2209 
L 2766 2209 
L 2766 2266 
Q 2766 2663 2505 2880 
Q 2244 3097 1772 3097 
Q 1472 3097 1187 3025 
Q 903 2953 641 2809 
L 641 3341 
Q 956 3463 1253 3523 
Q 1550 3584 1831 3584 
Q 2591 3584 2966 3190 
Q 3341 2797 3341 1997 
z
" transform="scale(0.015625)"/>
      <path id="DejaVuSans-6e" d="M 3513 2113 
L 3513 0 
L 2938 0 
L 2938 2094 
Q 2938 2591 2744 2837 
Q 2550 3084 2163 3084 
Q 1697 3084 1428 2787 
Q 1159 2491 1159 1978 
L 1159 0 
L 581 0 
L 581 3500 
L 1159 3500 
L 1159 2956 
Q 1366 3272 1645 3428 
Q 1925 3584 2291 3584 
Q 2894 3584 3203 3211 
Q 3513 2838 3513 2113 
z
" transform="scale(0.015625)"/>
      <path id="DejaVuSans-64" d="M 2906 2969 
L 2906 4863 
L 3481 4863 
L 3481 0 
L 2906 0 
L 2906 525 
Q 2725 213 2448 61 
Q 2172 -91 1784 -91 
Q 1150 -91 751 415 
Q 353 922 353 1747 
Q 353 2572 751 3078 
Q 1150 3584 1784 3584 
Q 2172 3584 2448 3432 
Q 2725 3281 2906 2969 
z
M 947 1747 
Q 947 1113 1208 752 
Q 1469 391 1925 391 
Q 2381 391 2643 752 
Q 2906 1113 2906 1747 
Q 2906 2381 2643 2742 
Q 2381 3103 1925 3103 
Q 1469 3103 1208 2742 
Q 947 2381 947 1747 
z
" transform="scale(0.015625)"/>
      <path id="DejaVuSans-73" d="M 2834 3397 
L 2834 2853 
Q 2591 2978 2328 3040 
Q 2066 3103 1784 3103 
Q 1356 3103 1142 2972 
Q 928 2841 928 2578 
Q 928 2378 1081 2264 
Q 1234 2150 1697 2047 
L 1894 2003 
Q 2506 1872 2764 1633 
Q 3022 1394 3022 966 
Q 3022 478 2636 193 
Q 2250 -91 1575 -91 
Q 1294 -91 989 -36 
Q 684 19 347 128 
L 347 722 
Q 666 556 975 473 
Q 1284 391 1588 391 
Q 1994 391 2212 530 
Q 2431 669 2431 922 
Q 2431 1156 2273 1281 
Q 2116 1406 1581 1522 
L 1381 1569 
Q 847 1681 609 1914 
Q 372 2147 372 2553 
Q 372 3047 722 3315 
Q 1072 3584 1716 3584 
Q 2034 3584 2315 3537 
Q 2597 3491 2834 3397 
z
" transform="scale(0.015625)"/>
      <path id="DejaVuSans-66" d="M 2375 4863 
L 2375 4384 
L 1825 4384 
Q 1516 4384 1395 4259 
Q 1275 4134 1275 3809 
L 1275 3500 
L 2222 3500 
L 2222 3053 
L 1275 3053 
L 1275 0 
L 697 0 
L 697 3053 
L 147 3053 
L 147 3500 
L 697 3500 
L 697 3744 
Q 697 4328 969 4595 
Q 1241 4863 1831 4863 
L 2375 4863 
z
" transform="scale(0.015625)"/>
      <path id="DejaVuSans-74" d="M 1172 4494 
L 1172 3500 
L 2356 3500 
L 2356 3053 
L 1172 3053 
L 1172 1153 
Q 1172 725 1289 603 
Q 1406 481 1766 481 
L 2356 481 
L 2356 0 
L 1766 0 
Q 1100 0 847 248 
Q 594 497 594 1153 
L 594 3053 
L 172 3053 
L 172 3500 
L 594 3500 
L 594 4494 
L 1172 4494 
z
" transform="scale(0.015625)"/>
      <path id="DejaVuSans-77" d="M 269 3500 
L 844 3500 
L 1563 769 
L 2278 3500 
L 2956 3500 
L 3675 769 
L 4391 3500 
L 4966 3500 
L 4050 0 
L 3372 0 
L 2619 2869 
L 1863 0 
L 1184 0 
L 269 3500 
z
" transform="scale(0.015625)"/>
      <path id="DejaVuSans-6c" d="M 603 4863 
L 1178 4863 
L 1178 0 
L 603 0 
L 603 4863 
z
" transform="scale(0.015625)"/>
      <path id="DejaVuSans-79" d="M 2059 -325 
Q 1816 -950 1584 -1140 
Q 1353 -1331 966 -1331 
L 506 -1331 
L 506 -850 
L 844 -850 
Q 1081 -850 1212 -737 
Q 1344 -625 1503 -206 
L 1606 56 
L 191 3500 
L 800 3500 
L 1894 763 
L 2988 3500 
L 3597 3500 
L 2059 -325 
z
" transform="scale(0.015625)"/>
      <path id="DejaVuSans-67" d="M 2906 1791 
Q 2906 2416 2648 2759 
Q 2391 3103 1925 3103 
Q 1463 3103 1205 2759 
Q 947 2416 947 1791 
Q 947 1169 1205 825 
Q 1463 481 1925 481 
Q 2391 481 2648 825 
Q 2906 1169 2906 1791 
z
M 3481 434 
Q 3481 -459 3084 -895 
Q 2688 -1331 1869 -1331 
Q 1566 -1331 1297 -1286 
Q 1028 -1241 775 -1147 
L 775 -588 
Q 1028 -725 1275 -790 
Q 1522 -856 1778 -856 
Q 2344 -856 2625 -561 
Q 2906 -266 2906 331 
L 2906 616 
Q 2728 306 2450 153 
Q 2172 0 1784 0 
Q 1141 0 747 490 
Q 353 981 353 1791 
Q 353 2603 747 3093 
Q 1141 3584 1784 3584 
Q 2172 3584 2450 3431 
Q 2728 3278 2906 2969 
L 2906 3500 
L 3481 3500 
L 3481 434 
z
" transform="scale(0.015625)"/>
      <path id="DejaVuSans-70" d="M 1159 525 
L 1159 -1331 
L 581 -1331 
L 581 3500 
L 1159 3500 
L 1159 2969 
Q 1341 3281 1617 3432 
Q 1894 3584 2278 3584 
Q 2916 3584 3314 3078 
Q 3713 2572 3713 1747 
Q 3713 922 3314 415 
Q 2916 -91 2278 -91 
Q 1894 -91 1617 61 
Q 1341 213 1159 525 
z
M 3116 1747 
Q 3116 2381 2855 2742 
Q 2594 3103 2138 3103 
Q 1681 3103 1420 2742 
Q 1159 2381 1159 1747 
Q 1159 1113 1420 752 
Q 1681 391 2138 391 
Q 2594 391 2855 752 
Q 3116 1113 3116 1747 
z
" transform="scale(0.015625)"/>
      <path id="DejaVuSans-68" d="M 3513 2113 
L 3513 0 
L 2938 0 
L 2938 2094 
Q 2938 2591 2744 2837 
Q 2550 3084 2163 3084 
Q 1697 3084 1428 2787 
Q 1159 2491 1159 1978 
L 1159 0 
L 581 0 
L 581 4863 
L 1159 4863 
L 1159 2956 
Q 1366 3272 1645 3428 
Q 1925 3584 2291 3584 
Q 2894 3584 3203 3211 
Q 3513 2838 3513 2113 
z
" transform="scale(0.015625)"/>
     </defs>
     <use xlink:href="#DejaVuSans-4d"/>
     <use xlink:href="#DejaVuSans-6f" x="86.279297"/>
     <use xlink:href="#DejaVuSans-69" x="147.460938"/>
     <use xlink:href="#DejaVuSans-72" x="175.244141"/>
     <use xlink:href="#DejaVuSans-65" x="214.107422"/>
     <use xlink:href="#DejaVuSans-20" x="275.630859"/>
     <use xlink:href="#DejaVuSans-62" x="307.417969"/>
     <use xlink:href="#DejaVuSans-61" x="370.894531"/>
     <use xlink:href="#DejaVuSans-6e" x="432.173828"/>
     <use xlink:href="#DejaVuSans-64" x="495.552734"/>
     <use xlink:href="#DejaVuSans-73" x="559.029297"/>
     <use xlink:href="#DejaVuSans-20" x="611.128906"/>
     <use xlink:href="#DejaVuSans-6f" x="642.916016"/>
     <use xlink:href="#DejaVuSans-66" x="704.097656"/>
     <use xlink:href="#DejaVuSans-20" x="739.302734"/>
     <use xlink:href="#DejaVuSans-74" x="771.089844"/>
     <use xlink:href="#DejaVuSans-77" x="810.298828"/>
     <use xlink:href="#DejaVuSans-69" x="892.085938"/>
     <use xlink:href="#DejaVuSans-73" x="919.869141"/>
     <use xlink:href="#DejaVuSans-74" x="971.96875"/>
     <use xlink:href="#DejaVuSans-65" x="1011.177734"/>
     <use xlink:href="#DejaVuSans-64" x="1072.701172"/>
     <use xlink:href="#DejaVuSans-20" x="1136.177734"/>
     <use xlink:href="#DejaVuSans-62" x="1167.964844"/>
     <use xlink:href="#DejaVuSans-69" x="1231.441406"/>
     <use xlink:href="#DejaVuSans-6c" x="1259.224609"/>
     <use xlink:href="#DejaVuSans-61" x="1287.007812"/>
     <use xlink:href="#DejaVuSans-79" x="1348.287109"/>
     <use xlink:href="#DejaVuSans-65" x="1407.466797"/>
     <use xlink:href="#DejaVuSans-72" x="1468.990234"/>
     <use xlink:href="#DejaVuSans-20" x="1510.103516"/>
     <use xlink:href="#DejaVuSans-67" x="1541.890625"/>
     <use xlink:href="#DejaVuSans-72" x="1605.367188"/>
     <use xlink:href="#DejaVuSans-61" x="1646.480469"/>
     <use xlink:href="#DejaVuSans-70" x="1707.759766"/>
     <use xlink:href="#DejaVuSans-68" x="1771.236328"/>
     <use xlink:href="#DejaVuSans-65" x="1834.615234"/>
     <use xlink:href="#DejaVuSans-6e" x="1896.138672"/>
     <use xlink:href="#DejaVuSans-65" x="1959.517578"/>
    </g>
    <!--           θ=1.05°     $t_\perp$=110.70MeV    $\hbar v_F$=6326Mev·Å  siteN=25 -->
    <g transform="translate(73.95 33.84) scale(0.1 -0.1)">
     <defs>
      <path id="DejaVuSans-3b8" d="M 2953 2219 
L 963 2219 
Q 1009 1284 1225 888 
Q 1494 400 1959 400 
Q 2428 400 2688 891 
Q 2916 1322 2953 2219 
z
M 2944 2750 
Q 2856 3638 2688 3950 
Q 2419 4444 1959 4444 
Q 1481 4444 1228 3956 
Q 1028 3563 969 2750 
L 2944 2750 
z
M 1959 4913 
Q 2709 4913 3138 4250 
Q 3566 3591 3566 2422 
Q 3566 1256 3138 594 
Q 2709 -72 1959 -72 
Q 1206 -72 781 594 
Q 353 1256 353 2422 
Q 353 3591 781 4250 
Q 1206 4913 1959 4913 
z
" transform="scale(0.015625)"/>
      <path id="DejaVuSans-3d" d="M 678 2906 
L 4684 2906 
L 4684 2381 
L 678 2381 
L 678 2906 
z
M 678 1631 
L 4684 1631 
L 4684 1100 
L 678 1100 
L 678 1631 
z
" transform="scale(0.015625)"/>
      <path id="DejaVuSans-2e" d="M 684 794 
L 1344 794 
L 1344 0 
L 684 0 
L 684 794 
z
" transform="scale(0.015625)"/>
      <path id="DejaVuSans-b0" d="M 1600 4347 
Q 1350 4347 1178 4173 
Q 1006 4000 1006 3750 
Q 1006 3503 1178 3333 
Q 1350 3163 1600 3163 
Q 1850 3163 2022 3333 
Q 2194 3503 2194 3750 
Q 2194 3997 2020 4172 
Q 1847 4347 1600 4347 
z
M 1600 4750 
Q 1800 4750 1984 4673 
Q 2169 4597 2303 4453 
Q 2447 4313 2519 4134 
Q 2591 3956 2591 3750 
Q 2591 3338 2302 3052 
Q 2013 2766 1594 2766 
Q 1172 2766 890 3047 
Q 609 3328 609 3750 
Q 609 4169 896 4459 
Q 1184 4750 1600 4750 
z
" transform="scale(0.015625)"/>
      <path id="DejaVuSans-Oblique-74" d="M 2706 3500 
L 2619 3053 
L 1472 3053 
L 1100 1153 
Q 1081 1047 1072 975 
Q 1063 903 1063 863 
Q 1063 663 1183 572 
Q 1303 481 1569 481 
L 2150 481 
L 2053 0 
L 1503 0 
Q 991 0 739 200 
Q 488 400 488 806 
Q 488 878 497 964 
Q 506 1050 525 1153 
L 897 3053 
L 409 3053 
L 500 3500 
L 978 3500 
L 1172 4494 
L 1747 4494 
L 1556 3500 
L 2706 3500 
z
" transform="scale(0.015625)"/>
      <path id="STIXGeneral-Regular-27c2" d="M 4102 0 
L 333 0 
L 333 422 
L 2010 422 
L 2010 4237 
L 2432 4237 
L 2432 422 
L 4102 422 
L 4102 0 
z
" transform="scale(0.015625)"/>
      <path id="DejaVuSans-37" d="M 525 4666 
L 3525 4666 
L 3525 4397 
L 1831 0 
L 1172 0 
L 2766 4134 
L 525 4134 
L 525 4666 
z
" transform="scale(0.015625)"/>
      <path id="DejaVuSans-Oblique-127" d="M 3634 2113 
L 3225 0 
L 2650 0 
L 3056 2094 
Q 3094 2291 3094 2450 
Q 3094 2688 3006 2838 
Q 2863 3084 2475 3084 
Q 2009 3084 1681 2788 
Q 1356 2491 1256 1978 
L 872 0 
L 294 0 
L 1066 3969 
L 675 3969 
L 775 4481 
L 1166 4481 
L 1238 4863 
L 1816 4863 
L 1744 4481 
L 2844 4481 
L 2744 3969 
L 1644 3969 
L 1447 2956 
Q 1713 3272 2025 3428 
Q 2331 3584 2700 3584 
Q 3300 3584 3538 3213 
Q 3688 2975 3688 2606 
Q 3688 2381 3634 2113 
z
" transform="scale(0.015625)"/>
      <path id="DejaVuSans-Oblique-76" d="M 459 3500 
L 1069 3500 
L 1581 525 
L 3256 3500 
L 3866 3500 
L 1875 0 
L 1100 0 
L 459 3500 
z
" transform="scale(0.015625)"/>
      <path id="DejaVuSans-Oblique-46" d="M 1081 4666 
L 3756 4666 
L 3653 4134 
L 1606 4134 
L 1338 2759 
L 3188 2759 
L 3084 2228 
L 1234 2228 
L 800 0 
L 172 0 
L 1081 4666 
z
" transform="scale(0.015625)"/>
      <path id="DejaVuSans-36" d="M 2113 2584 
Q 1688 2584 1439 2293 
Q 1191 2003 1191 1497 
Q 1191 994 1439 701 
Q 1688 409 2113 409 
Q 2538 409 2786 701 
Q 3034 994 3034 1497 
Q 3034 2003 2786 2293 
Q 2538 2584 2113 2584 
z
M 3366 4563 
L 3366 3988 
Q 3128 4100 2886 4159 
Q 2644 4219 2406 4219 
Q 1781 4219 1451 3797 
Q 1122 3375 1075 2522 
Q 1259 2794 1537 2939 
Q 1816 3084 2150 3084 
Q 2853 3084 3261 2657 
Q 3669 2231 3669 1497 
Q 3669 778 3244 343 
Q 2819 -91 2113 -91 
Q 1303 -91 875 529 
Q 447 1150 447 2328 
Q 447 3434 972 4092 
Q 1497 4750 2381 4750 
Q 2619 4750 2861 4703 
Q 3103 4656 3366 4563 
z
" transform="scale(0.015625)"/>
      <path id="DejaVuSans-33" d="M 2597 2516 
Q 3050 2419 3304 2112 
Q 3559 1806 3559 1356 
Q 3559 666 3084 287 
Q 2609 -91 1734 -91 
Q 1441 -91 1130 -33 
Q 819 25 488 141 
L 488 750 
Q 750 597 1062 519 
Q 1375 441 1716 441 
Q 2309 441 2620 675 
Q 2931 909 2931 1356 
Q 2931 1769 2642 2001 
Q 2353 2234 1838 2234 
L 1294 2234 
L 1294 2753 
L 1863 2753 
Q 2328 2753 2575 2939 
Q 2822 3125 2822 3475 
Q 2822 3834 2567 4026 
Q 2313 4219 1838 4219 
Q 1578 4219 1281 4162 
Q 984 4106 628 3988 
L 628 4550 
Q 988 4650 1302 4700 
Q 1616 4750 1894 4750 
Q 2613 4750 3031 4423 
Q 3450 4097 3450 3541 
Q 3450 3153 3228 2886 
Q 3006 2619 2597 2516 
z
" transform="scale(0.015625)"/>
      <path id="DejaVuSans-76" d="M 191 3500 
L 800 3500 
L 1894 563 
L 2988 3500 
L 3597 3500 
L 2284 0 
L 1503 0 
L 191 3500 
z
" transform="scale(0.015625)"/>
      <path id="DejaVuSans-b7" d="M 684 2619 
L 1344 2619 
L 1344 1825 
L 684 1825 
L 684 2619 
z
" transform="scale(0.015625)"/>
      <path id="DejaVuSans-212b" d="M 2663 5081 
Q 2663 5278 2523 5417 
Q 2384 5556 2188 5556 
Q 1988 5556 1852 5420 
Q 1716 5284 1716 5081 
Q 1716 4884 1853 4746 
Q 1991 4609 2188 4609 
Q 2384 4609 2523 4746 
Q 2663 4884 2663 5081 
z
M 2188 4044 
L 1338 1722 
L 3041 1722 
L 2188 4044 
z
M 1716 4366 
Q 1525 4494 1428 4673 
Q 1331 4853 1331 5081 
Q 1331 5441 1579 5691 
Q 1828 5941 2188 5941 
Q 2544 5941 2795 5689 
Q 3047 5438 3047 5081 
Q 3047 4863 2948 4678 
Q 2850 4494 2663 4366 
L 4325 0 
L 3669 0 
L 3244 1197 
L 1141 1197 
L 716 0 
L 50 0 
L 1716 4366 
z
" transform="scale(0.015625)"/>
      <path id="DejaVuSans-4e" d="M 628 4666 
L 1478 4666 
L 3547 763 
L 3547 4666 
L 4159 4666 
L 4159 0 
L 3309 0 
L 1241 3903 
L 1241 0 
L 628 0 
L 628 4666 
z
" transform="scale(0.015625)"/>
     </defs>
     <use xlink:href="#DejaVuSans-20" transform="translate(0 0.171875)"/>
     <use xlink:href="#DejaVuSans-20" transform="translate(31.787109 0.171875)"/>
     <use xlink:href="#DejaVuSans-20" transform="translate(63.574219 0.171875)"/>
     <use xlink:href="#DejaVuSans-20" transform="translate(95.361328 0.171875)"/>
     <use xlink:href="#DejaVuSans-20" transform="translate(127.148438 0.171875)"/>
     <use xlink:href="#DejaVuSans-20" transform="translate(158.935547 0.171875)"/>
     <use xlink:href="#DejaVuSans-20" transform="translate(190.722656 0.171875)"/>
     <use xlink:href="#DejaVuSans-20" transform="translate(222.509766 0.171875)"/>
     <use xlink:href="#DejaVuSans-20" transform="translate(254.296875 0.171875)"/>
     <use xlink:href="#DejaVuSans-20" transform="translate(286.083984 0.171875)"/>
     <use xlink:href="#DejaVuSans-3b8" transform="translate(317.871094 0.171875)"/>
     <use xlink:href="#DejaVuSans-3d" transform="translate(379.052734 0.171875)"/>
     <use xlink:href="#DejaVuSans-31" transform="translate(462.841797 0.171875)"/>
     <use xlink:href="#DejaVuSans-2e" transform="translate(526.464844 0.171875)"/>
     <use xlink:href="#DejaVuSans-30" transform="translate(558.251953 0.171875)"/>
     <use xlink:href="#DejaVuSans-35" transform="translate(621.875 0.171875)"/>
     <use xlink:href="#DejaVuSans-b0" transform="translate(685.498047 0.171875)"/>
     <use xlink:href="#DejaVuSans-20" transform="translate(735.498047 0.171875)"/>
     <use xlink:href="#DejaVuSans-20" transform="translate(767.285156 0.171875)"/>
     <use xlink:href="#DejaVuSans-20" transform="translate(799.072266 0.171875)"/>
     <use xlink:href="#DejaVuSans-20" transform="translate(830.859375 0.171875)"/>
     <use xlink:href="#DejaVuSans-20" transform="translate(862.646484 0.171875)"/>
     <use xlink:href="#DejaVuSans-Oblique-74" transform="translate(894.433594 0.171875)"/>
     <use xlink:href="#STIXGeneral-Regular-27c2" transform="translate(947.280273 -16.234375) scale(0.7)"/>
     <use xlink:href="#DejaVuSans-3d" transform="translate(1012.162335 0.171875)"/>
     <use xlink:href="#DejaVuSans-31" transform="translate(1095.951398 0.171875)"/>
     <use xlink:href="#DejaVuSans-31" transform="translate(1159.574445 0.171875)"/>
     <use xlink:href="#DejaVuSans-30" transform="translate(1223.197491 0.171875)"/>
     <use xlink:href="#DejaVuSans-2e" transform="translate(1286.820538 0.171875)"/>
     <use xlink:href="#DejaVuSans-37" transform="translate(1310.857648 0.171875)"/>
     <use xlink:href="#DejaVuSans-30" transform="translate(1374.480695 0.171875)"/>
     <use xlink:href="#DejaVuSans-4d" transform="translate(1438.103741 0.171875)"/>
     <use xlink:href="#DejaVuSans-65" transform="translate(1524.383038 0.171875)"/>
     <use xlink:href="#DejaVuSans-56" transform="translate(1585.906476 0.171875)"/>
     <use xlink:href="#DejaVuSans-20" transform="translate(1654.314679 0.171875)"/>
     <use xlink:href="#DejaVuSans-20" transform="translate(1686.101788 0.171875)"/>
     <use xlink:href="#DejaVuSans-20" transform="translate(1717.888898 0.171875)"/>
     <use xlink:href="#DejaVuSans-20" transform="translate(1749.676007 0.171875)"/>
     <use xlink:href="#DejaVuSans-Oblique-127" transform="translate(1781.463116 0.171875)"/>
     <use xlink:href="#DejaVuSans-Oblique-76" transform="translate(1850.945538 0.171875)"/>
     <use xlink:href="#DejaVuSans-Oblique-46" transform="translate(1910.125226 -16.234375) scale(0.7)"/>
     <use xlink:href="#DejaVuSans-3d" transform="translate(1953.123273 0.171875)"/>
     <use xlink:href="#DejaVuSans-36" transform="translate(2036.912335 0.171875)"/>
     <use xlink:href="#DejaVuSans-33" transform="translate(2100.535382 0.171875)"/>
     <use xlink:href="#DejaVuSans-32" transform="translate(2164.158429 0.171875)"/>
     <use xlink:href="#DejaVuSans-36" transform="translate(2227.781476 0.171875)"/>
     <use xlink:href="#DejaVuSans-4d" transform="translate(2291.404523 0.171875)"/>
     <use xlink:href="#DejaVuSans-65" transform="translate(2377.68382 0.171875)"/>
     <use xlink:href="#DejaVuSans-76" transform="translate(2439.207257 0.171875)"/>
     <use xlink:href="#DejaVuSans-b7" transform="translate(2498.386945 0.171875)"/>
     <use xlink:href="#DejaVuSans-212b" transform="translate(2530.174054 0.171875)"/>
     <use xlink:href="#DejaVuSans-20" transform="translate(2598.582257 0.171875)"/>
     <use xlink:href="#DejaVuSans-20" transform="translate(2630.369366 0.171875)"/>
     <use xlink:href="#DejaVuSans-73" transform="translate(2662.156476 0.171875)"/>
     <use xlink:href="#DejaVuSans-69" transform="translate(2714.256085 0.171875)"/>
     <use xlink:href="#DejaVuSans-74" transform="translate(2742.039288 0.171875)"/>
     <use xlink:href="#DejaVuSans-65" transform="translate(2781.248273 0.171875)"/>
     <use xlink:href="#DejaVuSans-4e" transform="translate(2842.77171 0.171875)"/>
     <use xlink:href="#DejaVuSans-3d" transform="translate(2917.576398 0.171875)"/>
     <use xlink:href="#DejaVuSans-32" transform="translate(3001.36546 0.171875)"/>
     <use xlink:href="#DejaVuSans-35" transform="translate(3064.988507 0.171875)"/>
    </g>
   </g>
  </g>
 </g>
 <defs>
  <clipPath id="p633cebb71c">
   <rect x="184.086667" y="39.84" width="92.626667" height="277.88"/>
  </clipPath>
 </defs>
</svg>
