<?xml version="1.0" encoding="utf-8" standalone="no"?>
<!DOCTYPE svg PUBLIC "-//W3C//DTD SVG 1.1//EN"
  "http://www.w3.org/Graphics/SVG/1.1/DTD/svg11.dtd">
<svg xmlns:xlink="http://www.w3.org/1999/xlink" width="460.8pt" height="345.6pt" viewBox="0 0 460.8 345.6" xmlns="http://www.w3.org/2000/svg" version="1.1">
 <metadata>
  <rdf:RDF xmlns:dc="http://purl.org/dc/elements/1.1/" xmlns:cc="http://creativecommons.org/ns#" xmlns:rdf="http://www.w3.org/1999/02/22-rdf-syntax-ns#">
   <cc:Work>
    <dc:type rdf:resource="http://purl.org/dc/dcmitype/StillImage"/>
    <dc:date>2024-02-02T15:58:15.578469</dc:date>
    <dc:format>image/svg+xml</dc:format>
    <dc:creator>
     <cc:Agent>
      <dc:title>Matplotlib v3.7.0, https://matplotlib.org/</dc:title>
     </cc:Agent>
    </dc:creator>
   </cc:Work>
  </rdf:RDF>
 </metadata>
 <defs>
  <style type="text/css">*{stroke-linejoin: round; stroke-linecap: butt}</style>
 </defs>
 <g id="figure_1">
  <g id="patch_1">
   <path d="M 0 345.6 
L 460.8 345.6 
L 460.8 0 
L 0 0 
z
" style="fill: #ffffff"/>
  </g>
  <g id="axes_1">
   <g id="patch_2">
    <path d="M 184.086667 317.72 
L 276.713333 317.72 
L 276.713333 39.84 
L 184.086667 39.84 
z
" style="fill: #ffffff"/>
   </g>
   <g id="matplotlib.axis_1">
    <g id="xtick_1">
     <g id="line2d_1">
      <defs>
       <path id="m6048278472" d="M 0 0 
L 0 3.5 
" style="stroke: #000000; stroke-width: 0.8"/>
      </defs>
      <g>
       <use xlink:href="#m6048278472" x="184.086667" y="317.72" style="stroke: #000000; stroke-width: 0.8"/>
      </g>
     </g>
     <g id="text_1">
      <!-- K' -->
      <g transform="translate(179.433542 332.318437) scale(0.1 -0.1)">
       <defs>
        <path id="DejaVuSans-4b" d="M 628 4666 
L 1259 4666 
L 1259 2694 
L 3353 4666 
L 4166 4666 
L 1850 2491 
L 4331 0 
L 3500 0 
L 1259 2247 
L 1259 0 
L 628 0 
L 628 4666 
z
" transform="scale(0.015625)"/>
        <path id="DejaVuSans-27" d="M 1147 4666 
L 1147 2931 
L 616 2931 
L 616 4666 
L 1147 4666 
z
" transform="scale(0.015625)"/>
       </defs>
       <use xlink:href="#DejaVuSans-4b"/>
       <use xlink:href="#DejaVuSans-27" x="65.576172"/>
      </g>
     </g>
    </g>
    <g id="xtick_2">
     <g id="line2d_2">
      <g>
       <use xlink:href="#m6048278472" x="207.243333" y="317.72" style="stroke: #000000; stroke-width: 0.8"/>
      </g>
     </g>
     <g id="text_2">
      <!-- Γ -->
      <g transform="translate(204.457396 332.318437) scale(0.1 -0.1)">
       <defs>
        <path id="DejaVuSans-393" d="M 628 0 
L 628 4666 
L 3531 4666 
L 3531 4134 
L 1259 4134 
L 1259 0 
L 628 0 
z
" transform="scale(0.015625)"/>
       </defs>
       <use xlink:href="#DejaVuSans-393"/>
      </g>
     </g>
    </g>
    <g id="xtick_3">
     <g id="line2d_3">
      <g>
       <use xlink:href="#m6048278472" x="230.4" y="317.72" style="stroke: #000000; stroke-width: 0.8"/>
      </g>
     </g>
     <g id="text_3">
      <!-- K -->
      <g transform="translate(227.121094 332.318437) scale(0.1 -0.1)">
       <use xlink:href="#DejaVuSans-4b"/>
      </g>
     </g>
    </g>
    <g id="xtick_4">
     <g id="line2d_4">
      <g>
       <use xlink:href="#m6048278472" x="253.556667" y="317.72" style="stroke: #000000; stroke-width: 0.8"/>
      </g>
     </g>
     <g id="text_4">
      <!-- K -->
      <g transform="translate(250.27776 332.318437) scale(0.1 -0.1)">
       <use xlink:href="#DejaVuSans-4b"/>
      </g>
     </g>
    </g>
    <g id="xtick_5">
     <g id="line2d_5">
      <g>
       <use xlink:href="#m6048278472" x="265.135" y="317.72" style="stroke: #000000; stroke-width: 0.8"/>
      </g>
     </g>
     <g id="text_5">
      <!-- M -->
      <g transform="translate(260.820938 332.318437) scale(0.1 -0.1)">
       <defs>
        <path id="DejaVuSans-4d" d="M 628 4666 
L 1569 4666 
L 2759 1491 
L 3956 4666 
L 4897 4666 
L 4897 0 
L 4281 0 
L 4281 4097 
L 3078 897 
L 2444 897 
L 1241 4097 
L 1241 0 
L 628 0 
L 628 4666 
z
" transform="scale(0.015625)"/>
       </defs>
       <use xlink:href="#DejaVuSans-4d"/>
      </g>
     </g>
    </g>
    <g id="xtick_6">
     <g id="line2d_6">
      <g>
       <use xlink:href="#m6048278472" x="276.713333" y="317.72" style="stroke: #000000; stroke-width: 0.8"/>
      </g>
     </g>
     <g id="text_6">
      <!-- K' -->
      <g transform="translate(272.060208 332.318437) scale(0.1 -0.1)">
       <use xlink:href="#DejaVuSans-4b"/>
       <use xlink:href="#DejaVuSans-27" x="65.576172"/>
      </g>
     </g>
    </g>
   </g>
   <g id="matplotlib.axis_2">
    <g id="ytick_1">
     <g id="line2d_7">
      <defs>
       <path id="m45a723faa6" d="M 0 0 
L -3.5 0 
" style="stroke: #000000; stroke-width: 0.8"/>
      </defs>
      <g>
       <use xlink:href="#m45a723faa6" x="184.086667" y="294.563333" style="stroke: #000000; stroke-width: 0.8"/>
      </g>
     </g>
     <g id="text_7">
      <!-- −1000 -->
      <g transform="translate(133.108073 299.502318) scale(0.13 -0.13)">
       <defs>
        <path id="DejaVuSans-2212" d="M 678 2272 
L 4684 2272 
L 4684 1741 
L 678 1741 
L 678 2272 
z
" transform="scale(0.015625)"/>
        <path id="DejaVuSans-31" d="M 794 531 
L 1825 531 
L 1825 4091 
L 703 3866 
L 703 4441 
L 1819 4666 
L 2450 4666 
L 2450 531 
L 3481 531 
L 3481 0 
L 794 0 
L 794 531 
z
" transform="scale(0.015625)"/>
        <path id="DejaVuSans-30" d="M 2034 4250 
Q 1547 4250 1301 3770 
Q 1056 3291 1056 2328 
Q 1056 1369 1301 889 
Q 1547 409 2034 409 
Q 2525 409 2770 889 
Q 3016 1369 3016 2328 
Q 3016 3291 2770 3770 
Q 2525 4250 2034 4250 
z
M 2034 4750 
Q 2819 4750 3233 4129 
Q 3647 3509 3647 2328 
Q 3647 1150 3233 529 
Q 2819 -91 2034 -91 
Q 1250 -91 836 529 
Q 422 1150 422 2328 
Q 422 3509 836 4129 
Q 1250 4750 2034 4750 
z
" transform="scale(0.015625)"/>
       </defs>
       <use xlink:href="#DejaVuSans-2212"/>
       <use xlink:href="#DejaVuSans-31" x="83.789062"/>
       <use xlink:href="#DejaVuSans-30" x="147.412109"/>
       <use xlink:href="#DejaVuSans-30" x="211.035156"/>
       <use xlink:href="#DejaVuSans-30" x="274.658203"/>
      </g>
     </g>
    </g>
    <g id="ytick_2">
     <g id="line2d_8">
      <g>
       <use xlink:href="#m45a723faa6" x="184.086667" y="236.671667" style="stroke: #000000; stroke-width: 0.8"/>
      </g>
     </g>
     <g id="text_8">
      <!-- −500 -->
      <g transform="translate(141.379323 241.610651) scale(0.13 -0.13)">
       <defs>
        <path id="DejaVuSans-35" d="M 691 4666 
L 3169 4666 
L 3169 4134 
L 1269 4134 
L 1269 2991 
Q 1406 3038 1543 3061 
Q 1681 3084 1819 3084 
Q 2600 3084 3056 2656 
Q 3513 2228 3513 1497 
Q 3513 744 3044 326 
Q 2575 -91 1722 -91 
Q 1428 -91 1123 -41 
Q 819 9 494 109 
L 494 744 
Q 775 591 1075 516 
Q 1375 441 1709 441 
Q 2250 441 2565 725 
Q 2881 1009 2881 1497 
Q 2881 1984 2565 2268 
Q 2250 2553 1709 2553 
Q 1456 2553 1204 2497 
Q 953 2441 691 2322 
L 691 4666 
z
" transform="scale(0.015625)"/>
       </defs>
       <use xlink:href="#DejaVuSans-2212"/>
       <use xlink:href="#DejaVuSans-35" x="83.789062"/>
       <use xlink:href="#DejaVuSans-30" x="147.412109"/>
       <use xlink:href="#DejaVuSans-30" x="211.035156"/>
      </g>
     </g>
    </g>
    <g id="ytick_3">
     <g id="line2d_9">
      <g>
       <use xlink:href="#m45a723faa6" x="184.086667" y="178.78" style="stroke: #000000; stroke-width: 0.8"/>
      </g>
     </g>
     <g id="text_9">
      <!-- 0 -->
      <g transform="translate(168.815417 183.718984) scale(0.13 -0.13)">
       <use xlink:href="#DejaVuSans-30"/>
      </g>
     </g>
    </g>
    <g id="ytick_4">
     <g id="line2d_10">
      <g>
       <use xlink:href="#m45a723faa6" x="184.086667" y="120.888333" style="stroke: #000000; stroke-width: 0.8"/>
      </g>
     </g>
     <g id="text_10">
      <!-- 500 -->
      <g transform="translate(152.272917 125.827318) scale(0.13 -0.13)">
       <use xlink:href="#DejaVuSans-35"/>
       <use xlink:href="#DejaVuSans-30" x="63.623047"/>
       <use xlink:href="#DejaVuSans-30" x="127.246094"/>
      </g>
     </g>
    </g>
    <g id="ytick_5">
     <g id="line2d_11">
      <g>
       <use xlink:href="#m45a723faa6" x="184.086667" y="62.996667" style="stroke: #000000; stroke-width: 0.8"/>
      </g>
     </g>
     <g id="text_11">
      <!-- 1000 -->
      <g transform="translate(144.001667 67.935651) scale(0.13 -0.13)">
       <use xlink:href="#DejaVuSans-31"/>
       <use xlink:href="#DejaVuSans-30" x="63.623047"/>
       <use xlink:href="#DejaVuSans-30" x="127.246094"/>
       <use xlink:href="#DejaVuSans-30" x="190.869141"/>
      </g>
     </g>
    </g>
    <g id="text_12">
     <!-- E(meV) -->
     <g transform="translate(127.028385 197.208125) rotate(-90) scale(0.1 -0.1)">
      <defs>
       <path id="DejaVuSans-45" d="M 628 4666 
L 3578 4666 
L 3578 4134 
L 1259 4134 
L 1259 2753 
L 3481 2753 
L 3481 2222 
L 1259 2222 
L 1259 531 
L 3634 531 
L 3634 0 
L 628 0 
L 628 4666 
z
" transform="scale(0.015625)"/>
       <path id="DejaVuSans-28" d="M 1984 4856 
Q 1566 4138 1362 3434 
Q 1159 2731 1159 2009 
Q 1159 1288 1364 580 
Q 1569 -128 1984 -844 
L 1484 -844 
Q 1016 -109 783 600 
Q 550 1309 550 2009 
Q 550 2706 781 3412 
Q 1013 4119 1484 4856 
L 1984 4856 
z
" transform="scale(0.015625)"/>
       <path id="DejaVuSans-6d" d="M 3328 2828 
Q 3544 3216 3844 3400 
Q 4144 3584 4550 3584 
Q 5097 3584 5394 3201 
Q 5691 2819 5691 2113 
L 5691 0 
L 5113 0 
L 5113 2094 
Q 5113 2597 4934 2840 
Q 4756 3084 4391 3084 
Q 3944 3084 3684 2787 
Q 3425 2491 3425 1978 
L 3425 0 
L 2847 0 
L 2847 2094 
Q 2847 2600 2669 2842 
Q 2491 3084 2119 3084 
Q 1678 3084 1418 2786 
Q 1159 2488 1159 1978 
L 1159 0 
L 581 0 
L 581 3500 
L 1159 3500 
L 1159 2956 
Q 1356 3278 1631 3431 
Q 1906 3584 2284 3584 
Q 2666 3584 2933 3390 
Q 3200 3197 3328 2828 
z
" transform="scale(0.015625)"/>
       <path id="DejaVuSans-65" d="M 3597 1894 
L 3597 1613 
L 953 1613 
Q 991 1019 1311 708 
Q 1631 397 2203 397 
Q 2534 397 2845 478 
Q 3156 559 3463 722 
L 3463 178 
Q 3153 47 2828 -22 
Q 2503 -91 2169 -91 
Q 1331 -91 842 396 
Q 353 884 353 1716 
Q 353 2575 817 3079 
Q 1281 3584 2069 3584 
Q 2775 3584 3186 3129 
Q 3597 2675 3597 1894 
z
M 3022 2063 
Q 3016 2534 2758 2815 
Q 2500 3097 2075 3097 
Q 1594 3097 1305 2825 
Q 1016 2553 972 2059 
L 3022 2063 
z
" transform="scale(0.015625)"/>
       <path id="DejaVuSans-56" d="M 1831 0 
L 50 4666 
L 709 4666 
L 2188 738 
L 3669 4666 
L 4325 4666 
L 2547 0 
L 1831 0 
z
" transform="scale(0.015625)"/>
       <path id="DejaVuSans-29" d="M 513 4856 
L 1013 4856 
Q 1481 4119 1714 3412 
Q 1947 2706 1947 2009 
Q 1947 1309 1714 600 
Q 1481 -109 1013 -844 
L 513 -844 
Q 928 -128 1133 580 
Q 1338 1288 1338 2009 
Q 1338 2731 1133 3434 
Q 928 4138 513 4856 
z
" transform="scale(0.015625)"/>
      </defs>
      <use xlink:href="#DejaVuSans-45"/>
      <use xlink:href="#DejaVuSans-28" x="63.183594"/>
      <use xlink:href="#DejaVuSans-6d" x="102.197266"/>
      <use xlink:href="#DejaVuSans-65" x="199.609375"/>
      <use xlink:href="#DejaVuSans-56" x="261.132812"/>
      <use xlink:href="#DejaVuSans-29" x="329.541016"/>
     </g>
    </g>
   </g>
   <g id="line2d_12">
    <path d="M 0 0 
" clip-path="url(#p1adf3accd2)" style="fill: none; stroke: #1f77b4; stroke-linecap: square"/>
   </g>
   <g id="line2d_13">
    <path d="M 0 0 
" clip-path="url(#p1adf3accd2)" style="fill: none; stroke: #ff7f0e; stroke-linecap: square"/>
   </g>
   <g id="line2d_14">
    <path d="M 0 0 
" clip-path="url(#p1adf3accd2)" style="fill: none; stroke: #2ca02c; stroke-linecap: square"/>
   </g>
   <g id="line2d_15">
    <path d="M 0 0 
" clip-path="url(#p1adf3accd2)" style="fill: none; stroke: #d62728; stroke-linecap: square"/>
   </g>
   <g id="line2d_16">
    <path d="M 0 0 
" clip-path="url(#p1adf3accd2)" style="fill: none; stroke: #9467bd; stroke-linecap: square"/>
   </g>
   <g id="line2d_17">
    <path d="M 0 0 
" clip-path="url(#p1adf3accd2)" style="fill: none; stroke: #8c564b; stroke-linecap: square"/>
   </g>
   <g id="line2d_18">
    <path d="M 0 0 
" clip-path="url(#p1adf3accd2)" style="fill: none; stroke: #e377c2; stroke-linecap: square"/>
   </g>
   <g id="line2d_19">
    <path d="M 0 0 
" clip-path="url(#p1adf3accd2)" style="fill: none; stroke: #7f7f7f; stroke-linecap: square"/>
   </g>
   <g id="line2d_20">
    <path d="M 0 0 
" clip-path="url(#p1adf3accd2)" style="fill: none; stroke: #bcbd22; stroke-linecap: square"/>
   </g>
   <g id="line2d_21">
    <path d="M 0 0 
" clip-path="url(#p1adf3accd2)" style="fill: none; stroke: #17becf; stroke-linecap: square"/>
   </g>
   <g id="line2d_22">
    <path d="M 0 0 
" clip-path="url(#p1adf3accd2)" style="fill: none; stroke: #1f77b4; stroke-linecap: square"/>
   </g>
   <g id="line2d_23">
    <path d="M 0 0 
" clip-path="url(#p1adf3accd2)" style="fill: none; stroke: #ff7f0e; stroke-linecap: square"/>
   </g>
   <g id="line2d_24">
    <path d="M 0 0 
" clip-path="url(#p1adf3accd2)" style="fill: none; stroke: #2ca02c; stroke-linecap: square"/>
   </g>
   <g id="line2d_25">
    <path d="M 0 0 
" clip-path="url(#p1adf3accd2)" style="fill: none; stroke: #d62728; stroke-linecap: square"/>
   </g>
   <g id="line2d_26">
    <path d="M 0 0 
" clip-path="url(#p1adf3accd2)" style="fill: none; stroke: #9467bd; stroke-linecap: square"/>
   </g>
   <g id="line2d_27">
    <path d="M 0 0 
" clip-path="url(#p1adf3accd2)" style="fill: none; stroke: #8c564b; stroke-linecap: square"/>
   </g>
   <g id="line2d_28">
    <path d="M 0 0 
" clip-path="url(#p1adf3accd2)" style="fill: none; stroke: #e377c2; stroke-linecap: square"/>
   </g>
   <g id="line2d_29">
    <path d="M 0 0 
" clip-path="url(#p1adf3accd2)" style="fill: none; stroke: #7f7f7f; stroke-linecap: square"/>
   </g>
   <g id="line2d_30">
    <path d="M 0 0 
" clip-path="url(#p1adf3accd2)" style="fill: none; stroke: #bcbd22; stroke-linecap: square"/>
   </g>
   <g id="line2d_31">
    <path d="M 0 0 
" clip-path="url(#p1adf3accd2)" style="fill: none; stroke: #17becf; stroke-linecap: square"/>
   </g>
   <g id="line2d_32">
    <path d="M 0 0 
" clip-path="url(#p1adf3accd2)" style="fill: none; stroke: #1f77b4; stroke-linecap: square"/>
   </g>
   <g id="line2d_33">
    <path d="M 0 0 
" clip-path="url(#p1adf3accd2)" style="fill: none; stroke: #ff7f0e; stroke-linecap: square"/>
   </g>
   <g id="line2d_34">
    <path d="M 0 0 
" clip-path="url(#p1adf3accd2)" style="fill: none; stroke: #2ca02c; stroke-linecap: square"/>
   </g>
   <g id="line2d_35">
    <path d="M 0 0 
" clip-path="url(#p1adf3accd2)" style="fill: none; stroke: #d62728; stroke-linecap: square"/>
   </g>
   <g id="line2d_36">
    <path d="M 0 0 
" clip-path="url(#p1adf3accd2)" style="fill: none; stroke: #9467bd; stroke-linecap: square"/>
   </g>
   <g id="line2d_37">
    <path d="M 0 0 
" clip-path="url(#p1adf3accd2)" style="fill: none; stroke: #8c564b; stroke-linecap: square"/>
   </g>
   <g id="line2d_38">
    <path d="M 0 0 
" clip-path="url(#p1adf3accd2)" style="fill: none; stroke: #e377c2; stroke-linecap: square"/>
   </g>
   <g id="line2d_39">
    <path d="M 0 0 
" clip-path="url(#p1adf3accd2)" style="fill: none; stroke: #7f7f7f; stroke-linecap: square"/>
   </g>
   <g id="line2d_40">
    <path d="M 0 0 
" clip-path="url(#p1adf3accd2)" style="fill: none; stroke: #bcbd22; stroke-linecap: square"/>
   </g>
   <g id="line2d_41">
    <path d="M 0 0 
" clip-path="url(#p1adf3accd2)" style="fill: none; stroke: #17becf; stroke-linecap: square"/>
   </g>
   <g id="line2d_42">
    <path d="M 0 0 
" clip-path="url(#p1adf3accd2)" style="fill: none; stroke: #1f77b4; stroke-linecap: square"/>
   </g>
   <g id="line2d_43">
    <path d="M 0 0 
" clip-path="url(#p1adf3accd2)" style="fill: none; stroke: #ff7f0e; stroke-linecap: square"/>
   </g>
   <g id="line2d_44">
    <path d="M 0 0 
" clip-path="url(#p1adf3accd2)" style="fill: none; stroke: #2ca02c; stroke-linecap: square"/>
   </g>
   <g id="line2d_45">
    <path d="M 0 0 
" clip-path="url(#p1adf3accd2)" style="fill: none; stroke: #d62728; stroke-linecap: square"/>
   </g>
   <g id="line2d_46">
    <path d="M 0 0 
" clip-path="url(#p1adf3accd2)" style="fill: none; stroke: #9467bd; stroke-linecap: square"/>
   </g>
   <g id="line2d_47">
    <path d="M 0 0 
" clip-path="url(#p1adf3accd2)" style="fill: none; stroke: #8c564b; stroke-linecap: square"/>
   </g>
   <g id="line2d_48">
    <path d="M 0 0 
" clip-path="url(#p1adf3accd2)" style="fill: none; stroke: #e377c2; stroke-linecap: square"/>
   </g>
   <g id="line2d_49">
    <path d="M 0 0 
" clip-path="url(#p1adf3accd2)" style="fill: none; stroke: #7f7f7f; stroke-linecap: square"/>
   </g>
   <g id="line2d_50">
    <path d="M 0 0 
" clip-path="url(#p1adf3accd2)" style="fill: none; stroke: #bcbd22; stroke-linecap: square"/>
   </g>
   <g id="line2d_51">
    <path d="M 0 0 
" clip-path="url(#p1adf3accd2)" style="fill: none; stroke: #17becf; stroke-linecap: square"/>
   </g>
   <g id="line2d_52">
    <path d="M 0 0 
" clip-path="url(#p1adf3accd2)" style="fill: none; stroke: #1f77b4; stroke-linecap: square"/>
   </g>
   <g id="line2d_53">
    <path d="M 0 0 
" clip-path="url(#p1adf3accd2)" style="fill: none; stroke: #ff7f0e; stroke-linecap: square"/>
   </g>
   <g id="line2d_54">
    <path d="M 0 0 
" clip-path="url(#p1adf3accd2)" style="fill: none; stroke: #2ca02c; stroke-linecap: square"/>
   </g>
   <g id="line2d_55">
    <path d="M 0 0 
" clip-path="url(#p1adf3accd2)" style="fill: none; stroke: #d62728; stroke-linecap: square"/>
   </g>
   <g id="line2d_56">
    <path d="M 0 0 
" clip-path="url(#p1adf3accd2)" style="fill: none; stroke: #9467bd; stroke-linecap: square"/>
   </g>
   <g id="line2d_57">
    <path d="M 0 0 
" clip-path="url(#p1adf3accd2)" style="fill: none; stroke: #8c564b; stroke-linecap: square"/>
   </g>
   <g id="line2d_58">
    <path d="M 0 0 
" clip-path="url(#p1adf3accd2)" style="fill: none; stroke: #e377c2; stroke-linecap: square"/>
   </g>
   <g id="line2d_59">
    <path d="M 0 0 
" clip-path="url(#p1adf3accd2)" style="fill: none; stroke: #7f7f7f; stroke-linecap: square"/>
   </g>
   <g id="line2d_60">
    <path d="M 0 0 
" clip-path="url(#p1adf3accd2)" style="fill: none; stroke: #bcbd22; stroke-linecap: square"/>
   </g>
   <g id="line2d_61">
    <path d="M 0 0 
" clip-path="url(#p1adf3accd2)" style="fill: none; stroke: #17becf; stroke-linecap: square"/>
   </g>
   <g id="line2d_62">
    <path d="M 0 0 
" clip-path="url(#p1adf3accd2)" style="fill: none; stroke: #1f77b4; stroke-linecap: square"/>
   </g>
   <g id="line2d_63">
    <path d="M 0 0 
" clip-path="url(#p1adf3accd2)" style="fill: none; stroke: #ff7f0e; stroke-linecap: square"/>
   </g>
   <g id="line2d_64">
    <path d="M 0 0 
" clip-path="url(#p1adf3accd2)" style="fill: none; stroke: #2ca02c; stroke-linecap: square"/>
   </g>
   <g id="line2d_65">
    <path d="M 0 0 
" clip-path="url(#p1adf3accd2)" style="fill: none; stroke: #d62728; stroke-linecap: square"/>
   </g>
   <g id="line2d_66">
    <path d="M 0 0 
" clip-path="url(#p1adf3accd2)" style="fill: none; stroke: #9467bd; stroke-linecap: square"/>
   </g>
   <g id="line2d_67">
    <path d="M 0 0 
" clip-path="url(#p1adf3accd2)" style="fill: none; stroke: #8c564b; stroke-linecap: square"/>
   </g>
   <g id="line2d_68">
    <path d="M 0 0 
" clip-path="url(#p1adf3accd2)" style="fill: none; stroke: #e377c2; stroke-linecap: square"/>
   </g>
   <g id="line2d_69">
    <path d="M 0 0 
" clip-path="url(#p1adf3accd2)" style="fill: none; stroke: #7f7f7f; stroke-linecap: square"/>
   </g>
   <g id="line2d_70">
    <path d="M 0 0 
" clip-path="url(#p1adf3accd2)" style="fill: none; stroke: #bcbd22; stroke-linecap: square"/>
   </g>
   <g id="line2d_71">
    <path d="M 0 0 
" clip-path="url(#p1adf3accd2)" style="fill: none; stroke: #17becf; stroke-linecap: square"/>
   </g>
   <g id="line2d_72">
    <path d="M 0 0 
" clip-path="url(#p1adf3accd2)" style="fill: none; stroke: #1f77b4; stroke-linecap: square"/>
   </g>
   <g id="line2d_73">
    <path d="M 0 0 
" clip-path="url(#p1adf3accd2)" style="fill: none; stroke: #ff7f0e; stroke-linecap: square"/>
   </g>
   <g id="line2d_74">
    <path d="M 0 0 
" clip-path="url(#p1adf3accd2)" style="fill: none; stroke: #2ca02c; stroke-linecap: square"/>
   </g>
   <g id="line2d_75">
    <path d="M 0 0 
" clip-path="url(#p1adf3accd2)" style="fill: none; stroke: #d62728; stroke-linecap: square"/>
   </g>
   <g id="line2d_76">
    <path d="M 0 0 
" clip-path="url(#p1adf3accd2)" style="fill: none; stroke: #9467bd; stroke-linecap: square"/>
   </g>
   <g id="line2d_77">
    <path d="M 0 0 
" clip-path="url(#p1adf3accd2)" style="fill: none; stroke: #8c564b; stroke-linecap: square"/>
   </g>
   <g id="line2d_78">
    <path d="M 0 0 
" clip-path="url(#p1adf3accd2)" style="fill: none; stroke: #e377c2; stroke-linecap: square"/>
   </g>
   <g id="line2d_79">
    <path d="M 0 0 
" clip-path="url(#p1adf3accd2)" style="fill: none; stroke: #7f7f7f; stroke-linecap: square"/>
   </g>
   <g id="line2d_80">
    <path d="M 0 0 
" clip-path="url(#p1adf3accd2)" style="fill: none; stroke: #bcbd22; stroke-linecap: square"/>
   </g>
   <g id="line2d_81">
    <path d="M 0 0 
" clip-path="url(#p1adf3accd2)" style="fill: none; stroke: #17becf; stroke-linecap: square"/>
   </g>
   <g id="line2d_82">
    <path d="M 0 0 
" clip-path="url(#p1adf3accd2)" style="fill: none; stroke: #1f77b4; stroke-linecap: square"/>
   </g>
   <g id="line2d_83">
    <path d="M 0 0 
" clip-path="url(#p1adf3accd2)" style="fill: none; stroke: #ff7f0e; stroke-linecap: square"/>
   </g>
   <g id="line2d_84">
    <path d="M 0 0 
" clip-path="url(#p1adf3accd2)" style="fill: none; stroke: #2ca02c; stroke-linecap: square"/>
   </g>
   <g id="line2d_85">
    <path d="M 0 0 
" clip-path="url(#p1adf3accd2)" style="fill: none; stroke: #d62728; stroke-linecap: square"/>
   </g>
   <g id="line2d_86">
    <path d="M 0 0 
" clip-path="url(#p1adf3accd2)" style="fill: none; stroke: #9467bd; stroke-linecap: square"/>
   </g>
   <g id="line2d_87">
    <path d="M 0 0 
" clip-path="url(#p1adf3accd2)" style="fill: none; stroke: #8c564b; stroke-linecap: square"/>
   </g>
   <g id="line2d_88">
    <path d="M 0 0 
" clip-path="url(#p1adf3accd2)" style="fill: none; stroke: #e377c2; stroke-linecap: square"/>
   </g>
   <g id="line2d_89">
    <path d="M 0 0 
" clip-path="url(#p1adf3accd2)" style="fill: none; stroke: #7f7f7f; stroke-linecap: square"/>
   </g>
   <g id="line2d_90">
    <path d="M 0 0 
" clip-path="url(#p1adf3accd2)" style="fill: none; stroke: #bcbd22; stroke-linecap: square"/>
   </g>
   <g id="line2d_91">
    <path d="M 0 0 
" clip-path="url(#p1adf3accd2)" style="fill: none; stroke: #17becf; stroke-linecap: square"/>
   </g>
   <g id="line2d_92">
    <path d="M 0 0 
" clip-path="url(#p1adf3accd2)" style="fill: none; stroke: #1f77b4; stroke-linecap: square"/>
   </g>
   <g id="line2d_93">
    <path d="M 0 0 
" clip-path="url(#p1adf3accd2)" style="fill: none; stroke: #ff7f0e; stroke-linecap: square"/>
   </g>
   <g id="line2d_94">
    <path d="M 0 0 
" clip-path="url(#p1adf3accd2)" style="fill: none; stroke: #2ca02c; stroke-linecap: square"/>
   </g>
   <g id="line2d_95">
    <path d="M 0 0 
" clip-path="url(#p1adf3accd2)" style="fill: none; stroke: #d62728; stroke-linecap: square"/>
   </g>
   <g id="line2d_96">
    <path d="M 0 0 
" clip-path="url(#p1adf3accd2)" style="fill: none; stroke: #9467bd; stroke-linecap: square"/>
   </g>
   <g id="line2d_97">
    <path d="M 0 0 
" clip-path="url(#p1adf3accd2)" style="fill: none; stroke: #8c564b; stroke-linecap: square"/>
   </g>
   <g id="line2d_98">
    <path d="M 0 0 
" clip-path="url(#p1adf3accd2)" style="fill: none; stroke: #e377c2; stroke-linecap: square"/>
   </g>
   <g id="line2d_99">
    <path d="M 0 0 
" clip-path="url(#p1adf3accd2)" style="fill: none; stroke: #7f7f7f; stroke-linecap: square"/>
   </g>
   <g id="line2d_100">
    <path d="M 0 0 
" clip-path="url(#p1adf3accd2)" style="fill: none; stroke: #bcbd22; stroke-linecap: square"/>
   </g>
   <g id="line2d_101">
    <path d="M 0 0 
" clip-path="url(#p1adf3accd2)" style="fill: none; stroke: #17becf; stroke-linecap: square"/>
   </g>
   <g id="line2d_102">
    <path d="M 0 0 
" clip-path="url(#p1adf3accd2)" style="fill: none; stroke: #1f77b4; stroke-linecap: square"/>
   </g>
   <g id="line2d_103">
    <path d="M 233.54123 346.6 
L 233.8735 345.395436 
L 234.5682 343.725744 
L 235.726033 341.604682 
L 236.883867 339.965739 
L 237.810133 338.981907 
L 238.0417 338.782232 
L 238.273267 339.840909 
L 239.199784 346.6 
L 239.199784 346.6 
" clip-path="url(#p1adf3accd2)" style="fill: none; stroke: #ff7f0e; stroke-linecap: square"/>
   </g>
   <g id="line2d_104">
    <path d="M 190.443181 346.6 
L 193.5809 336.280817 
L 194.507167 333.442513 
L 194.738733 334.123703 
L 197.450567 346.6 
M 198.234709 346.6 
L 202.843567 327.404501 
L 205.853933 315.738968 
L 206.7802 312.741549 
L 207.011767 312.278368 
L 207.243333 312.105125 
L 207.4749 312.278368 
L 207.938033 313.384056 
L 209.095867 317.443701 
L 211.6431 327.404501 
L 215.579733 343.736944 
L 216.251958 346.6 
M 217.0361 346.6 
L 219.9795 333.442513 
L 221.600467 338.492875 
L 224.043486 346.6 
M 232.876398 346.6 
L 233.1788 345.608444 
L 233.641933 343.281799 
L 234.799767 334.711254 
L 235.2629 331.422887 
L 236.420733 326.697062 
L 237.347 333.138399 
L 238.0417 338.15985 
L 238.273267 338.601332 
L 239.199533 338.068821 
L 239.894233 337.874022 
L 240.588933 337.858433 
L 241.283633 338.024896 
L 241.978333 338.375658 
L 242.9046 339.134093 
L 243.367733 339.648543 
L 243.5993 340.07663 
L 244.639421 346.6 
M 245.468109 346.6 
L 245.914967 344.01831 
L 246.3781 344.914367 
L 247.076729 346.6 
M 259.274515 346.6 
L 263.7456 329.137772 
L 264.903433 324.855119 
L 265.135 324.322685 
L 265.366567 324.855119 
L 267.2191 331.786986 
L 270.995485 346.6 
L 270.995485 346.6 
" clip-path="url(#p1adf3accd2)" style="fill: none; stroke: #2ca02c; stroke-linecap: square"/>
   </g>
   <g id="line2d_105">
    <path d="M 185.70849 346.6 
L 191.728367 321.753221 
L 191.959933 321.367373 
L 194.507167 333.012828 
L 194.738733 332.692629 
L 197.285967 325.421849 
L 199.1385 320.756211 
L 200.759467 317.218868 
L 202.148867 314.670969 
L 203.3067 312.940618 
L 204.464533 311.606826 
L 205.3908 310.840974 
L 207.011767 309.761873 
L 207.243333 309.354951 
L 207.706467 310.016536 
L 208.632733 310.553676 
L 209.559 311.190409 
L 210.485267 312.090743 
L 211.6431 313.587099 
L 212.800933 315.466057 
L 214.190333 318.171554 
L 215.8113 321.865184 
L 217.663833 326.677462 
L 219.9795 333.012828 
L 222.526733 321.367373 
L 222.7583 321.753221 
L 228.547467 345.632555 
L 228.778177 346.6 
M 231.825828 346.6 
L 234.336633 335.335806 
L 235.2629 331.105339 
L 235.9576 325.684474 
L 236.189167 324.852618 
L 236.420733 326.498641 
L 236.883867 324.854702 
L 239.199533 316.014372 
L 239.4311 315.60765 
L 241.052067 324.516919 
L 243.830867 340.191473 
L 244.9887 342.017167 
L 245.6834 343.278871 
L 245.914967 342.932859 
L 247.999067 327.043459 
L 248.925333 319.987305 
L 249.1569 319.399474 
L 252.6779 346.6 
M 255.491963 346.6 
L 260.2721 330.263788 
L 263.7456 319.021785 
L 264.208733 320.4353 
L 265.135 323.450852 
L 265.366567 322.921642 
L 266.5244 319.021794 
L 268.6085 325.683444 
L 272.7767 339.661954 
L 274.778033 346.6 
L 274.778033 346.6 
" clip-path="url(#p1adf3accd2)" style="fill: none; stroke: #d62728; stroke-linecap: square"/>
   </g>
   <g id="line2d_106">
    <path d="M 184.086667 286.913342 
L 184.5498 288.339904 
L 185.707633 293.123143 
L 189.644267 310.799603 
L 191.728367 320.306869 
L 191.959933 320.815632 
L 197.0544 300.685007 
L 199.8332 290.288311 
L 200.296333 289.20408 
L 200.5279 289.398745 
L 201.2226 290.968968 
L 202.843567 295.459603 
L 204.927667 302.002697 
L 207.243333 309.354951 
L 207.938033 307.392499 
L 212.106233 294.11222 
L 213.495633 290.394304 
L 213.958767 289.398745 
L 214.190333 289.20408 
L 214.4219 289.577891 
L 215.1166 291.929944 
L 218.358533 304.271408 
L 222.526733 320.815632 
L 222.7583 320.306869 
L 229.242167 291.130983 
L 230.168433 287.546206 
L 230.4 286.913342 
L 231.0947 290.483045 
L 232.715667 300.827134 
L 236.189167 323.872843 
L 238.0417 309.761557 
L 238.273267 309.805226 
L 239.4311 315.100487 
L 244.062433 299.241429 
L 245.6834 294.484929 
L 245.914967 294.651596 
L 248.925333 317.618646 
L 249.1569 318.229507 
L 252.861967 290.982044 
L 253.556667 286.913346 
L 254.946067 290.309434 
L 256.7986 295.505835 
L 259.114267 302.726407 
L 261.893067 312.134193 
L 263.7456 318.711751 
L 263.977167 318.248168 
L 265.135 314.692368 
L 266.5244 318.711752 
L 271.850433 300.491915 
L 274.1661 293.484256 
L 276.018633 288.546926 
L 276.481767 287.44248 
L 276.481767 287.44248 
" clip-path="url(#p1adf3accd2)" style="fill: none; stroke: #9467bd; stroke-linecap: square"/>
   </g>
   <g id="line2d_107">
    <path d="M 184.086667 286.913342 
L 185.476067 284.085139 
L 186.6339 282.18151 
L 187.791733 280.66114 
L 188.949567 279.50501 
L 189.875833 278.840674 
L 190.8021 278.412042 
L 191.728367 278.22503 
L 192.654633 278.285943 
L 193.5809 278.600393 
L 194.507167 279.172466 
L 195.433433 280.004026 
L 196.591267 281.406535 
L 197.7491 283.202388 
L 199.1385 285.832826 
L 200.064767 287.634578 
L 200.296333 287.698033 
L 200.759467 286.472142 
L 207.243333 264.16644 
L 207.706467 265.388771 
L 209.559 271.64302 
L 214.190333 287.698033 
L 214.4219 287.634578 
L 215.1166 286.309878 
L 216.737567 283.202388 
L 217.8954 281.406535 
L 219.053233 280.004026 
L 219.9795 279.172466 
L 220.905767 278.600393 
L 221.832033 278.285943 
L 222.7583 278.22503 
L 223.684567 278.412042 
L 224.610833 278.840674 
L 225.5371 279.50501 
L 226.694933 280.66114 
L 227.852767 282.18151 
L 229.0106 284.085139 
L 230.168433 286.400282 
L 230.4 286.913342 
L 230.631567 286.30238 
L 230.863133 286.195994 
L 231.326267 286.61647 
L 232.020967 287.731937 
L 232.947233 289.705124 
L 234.105067 292.853925 
L 235.2629 296.708898 
L 236.6523 302.18169 
L 238.0417 308.223262 
L 238.273267 307.52067 
L 242.9046 274.5809 
L 243.136167 274.560464 
L 243.5993 277.382551 
L 245.914967 293.851886 
L 247.304367 290.437589 
L 248.4622 288.114934 
L 249.388467 286.663473 
L 250.314733 285.620253 
L 251.009433 285.131556 
L 251.704133 284.918575 
L 252.167267 284.948738 
L 252.6304 285.153938 
L 253.093533 285.662332 
L 253.3251 286.15466 
L 253.556667 286.913342 
L 253.788233 286.533255 
L 254.0198 286.448166 
L 254.251367 286.598763 
L 254.7145 287.271944 
L 255.872333 289.628363 
L 257.956433 294.523902 
L 260.2721 300.530666 
L 263.0509 308.381557 
L 265.135 314.609733 
L 271.155733 297.460249 
L 273.4714 291.73501 
L 275.323933 287.697946 
L 276.018633 286.59876 
L 276.2502 286.448163 
L 276.481767 286.533253 
L 276.481767 286.533253 
" clip-path="url(#p1adf3accd2)" style="fill: none; stroke: #8c564b; stroke-linecap: square"/>
   </g>
   <g id="line2d_108">
    <path d="M 184.086667 282.715235 
L 184.318233 282.604325 
L 184.781367 281.973978 
L 185.9392 279.716749 
L 188.949567 273.672364 
L 190.8021 270.498099 
L 192.423067 268.188246 
L 193.812467 266.579547 
L 195.201867 265.3164 
L 196.591267 264.387889 
L 197.980667 263.769636 
L 199.370067 263.423501 
L 200.759467 263.297996 
L 202.612 263.363894 
L 206.7802 263.768372 
L 207.011767 263.874998 
L 207.243333 264.16644 
L 207.4749 263.874998 
L 207.938033 263.725614 
L 213.0325 263.298658 
L 214.653467 263.360054 
L 216.042867 263.6263 
L 217.432267 264.148931 
L 218.5901 264.811518 
L 219.747933 265.699456 
L 221.137333 267.077225 
L 222.526733 268.801266 
L 223.916133 270.864931 
L 225.5371 273.672364 
L 227.6212 277.791822 
L 229.7053 281.973978 
L 230.168433 282.604325 
L 230.4 282.715235 
L 230.631567 282.325045 
L 231.0947 279.947191 
L 236.189167 247.895185 
L 237.115433 243.598986 
L 237.578567 242.110765 
L 237.810133 241.682415 
L 238.0417 241.558085 
L 238.273267 241.793928 
L 238.504833 242.393385 
L 238.967967 244.44176 
L 239.894233 250.175982 
L 242.2099 266.639684 
L 242.9046 271.200032 
L 243.136167 271.442068 
L 243.5993 269.185518 
L 244.757133 263.021083 
L 245.451833 260.15579 
L 246.146533 258.231084 
L 246.609667 257.558293 
L 247.0728 257.394001 
L 247.535933 257.717805 
L 247.999067 258.483597 
L 248.693767 260.331561 
L 249.620033 263.798598 
L 250.777867 269.234875 
L 253.3251 282.373828 
L 253.556667 282.715237 
L 253.788233 282.575008 
L 254.251367 281.474987 
L 255.177633 277.887357 
L 261.6615 251.029863 
L 262.819333 247.153615 
L 263.7456 244.745433 
L 264.4403 243.589266 
L 264.903433 243.225244 
L 265.366567 243.225244 
L 265.8297 243.589266 
L 266.292833 244.2868 
L 266.987533 245.84796 
L 267.9138 248.616777 
L 269.3032 253.629517 
L 271.618867 263.036663 
L 276.2502 282.141694 
L 276.481767 282.575007 
L 276.481767 282.575007 
" clip-path="url(#p1adf3accd2)" style="fill: none; stroke: #e377c2; stroke-linecap: square"/>
   </g>
   <g id="line2d_109">
    <path d="M 184.086667 179.169423 
L 189.875833 202.667196 
L 193.812467 217.722743 
L 197.517533 230.973046 
L 201.9173 245.788707 
L 207.011767 262.305878 
L 207.243333 262.555081 
L 207.4749 262.305878 
L 208.1696 260.310264 
L 213.958767 241.177209 
L 218.126967 226.92686 
L 221.600467 214.268108 
L 225.305533 199.91734 
L 230.168433 180.127679 
L 230.4 179.169423 
L 236.883867 224.934643 
L 237.578567 228.885449 
L 238.0417 230.616804 
L 238.273267 231.026794 
L 238.504833 231.11304 
L 238.7364 230.931492 
L 239.199533 230.076948 
L 241.283633 225.409942 
L 241.978333 224.459247 
L 242.673033 223.877714 
L 243.367733 223.597569 
L 245.220267 223.142345 
L 245.6834 222.717768 
L 246.146533 222.010607 
L 246.609667 220.96256 
L 247.304367 218.702503 
L 247.999067 215.670261 
L 248.925333 210.685812 
L 250.314733 201.931073 
L 252.861967 184.148428 
L 253.556667 179.169423 
L 260.735233 208.501393 
L 262.3562 214.278971 
L 263.282467 216.999024 
L 263.977167 218.536447 
L 264.4403 219.22425 
L 264.903433 219.583408 
L 265.366567 219.583408 
L 265.8297 219.22425 
L 266.292833 218.536447 
L 266.987533 216.999024 
L 267.9138 214.278971 
L 269.3032 209.376182 
L 271.618867 200.248797 
L 276.481767 180.128509 
L 276.481767 180.128509 
" clip-path="url(#p1adf3accd2)" style="fill: none; stroke: #7f7f7f; stroke-linecap: square"/>
   </g>
   <g id="line2d_110">
    <path d="M 184.086667 179.169423 
L 189.644267 156.632547 
L 193.5809 141.576834 
L 197.285967 128.297116 
L 201.9173 112.639269 
L 206.7802 96.856196 
L 207.011767 96.396178 
L 207.243333 96.217384 
L 207.4749 96.396178 
L 207.938033 97.469218 
L 209.327433 101.891469 
L 216.969133 127.494186 
L 220.6742 140.721327 
L 224.379267 154.814168 
L 228.779033 172.487487 
L 230.4 179.169423 
L 233.8735 155.014039 
L 235.2629 146.608965 
L 236.189167 141.97903 
L 236.883867 139.262323 
L 237.578567 137.312077 
L 238.273267 136.111124 
L 238.967967 135.499922 
L 239.662667 135.233349 
L 241.052067 134.782442 
L 241.746767 134.251135 
L 242.441467 133.386412 
L 243.136167 132.16848 
L 244.294 129.562032 
L 244.9887 128.130462 
L 245.220267 127.84365 
L 245.451833 127.741406 
L 245.6834 127.882753 
L 245.914967 128.304947 
L 246.3781 129.947308 
L 247.0728 133.712739 
L 248.4622 142.905082 
L 253.093533 175.848917 
L 253.556667 179.169423 
L 260.2721 151.788022 
L 262.124633 145.166205 
L 263.282467 141.839327 
L 263.977167 140.397443 
L 264.4403 139.759706 
L 264.903433 139.428825 
L 265.366567 139.428825 
L 265.8297 139.759706 
L 266.292833 140.397443 
L 266.987533 141.839327 
L 267.9138 144.431406 
L 269.3032 149.185012 
L 271.3873 157.241124 
L 276.018633 176.290816 
L 276.481767 178.210452 
L 276.481767 178.210452 
" clip-path="url(#p1adf3accd2)" style="fill: none; stroke: #bcbd22; stroke-linecap: square"/>
   </g>
   <g id="line2d_111">
    <path d="M 184.086667 75.092218 
L 184.318233 75.195116 
L 184.781367 75.796401 
L 185.707633 77.542859 
L 189.4127 84.904863 
L 191.033667 87.618277 
L 192.654633 89.895717 
L 194.044033 91.480706 
L 195.433433 92.725312 
L 196.822833 93.641827 
L 198.212233 94.255928 
L 199.601633 94.606734 
L 201.2226 94.752895 
L 203.3067 94.678806 
L 206.548633 94.36883 
L 207.011767 94.116141 
L 207.243333 93.790041 
L 207.706467 94.285228 
L 208.401167 94.445467 
L 212.3378 94.744975 
L 214.190333 94.699136 
L 215.579733 94.461286 
L 216.969133 93.984546 
L 218.126967 93.37147 
L 219.2848 92.541158 
L 220.6742 91.240318 
L 222.0636 89.598327 
L 223.453 87.618277 
L 225.073967 84.904863 
L 226.9265 81.351295 
L 229.936867 75.450528 
L 230.4 75.092218 
L 230.631567 75.407296 
L 231.0947 77.231084 
L 234.5682 94.434614 
L 235.494467 97.517277 
L 236.189167 99.001364 
L 236.6523 99.494059 
L 236.883867 99.572609 
L 237.115433 99.533035 
L 237.578567 99.089814 
L 238.0417 98.163587 
L 238.7364 95.938746 
L 239.662667 91.728654 
L 240.8205 86.219047 
L 241.052067 86.745479 
L 241.746767 91.251838 
L 244.525567 110.373791 
L 245.220267 113.967819 
L 245.6834 115.319106 
L 245.914967 115.532708 
L 246.146533 115.430251 
L 246.3781 115.051197 
L 246.841233 113.67737 
L 247.535933 110.684907 
L 248.693767 104.471229 
L 250.5463 93.000906 
L 253.3251 75.451357 
L 253.556667 75.092216 
L 253.788233 75.219815 
L 254.0198 75.617075 
L 254.482933 77.013425 
L 255.640767 81.654926 
L 260.735233 102.778423 
L 262.3562 108.510663 
L 263.282467 111.148189 
L 263.977167 112.612215 
L 264.4403 113.259032 
L 264.903433 113.594451 
L 265.366567 113.594451 
L 265.8297 113.259032 
L 266.292833 112.612215 
L 266.987533 111.148189 
L 267.9138 108.510663 
L 269.3032 103.654794 
L 271.3873 95.370902 
L 276.2502 75.617076 
L 276.481767 75.219816 
L 276.481767 75.219816 
" clip-path="url(#p1adf3accd2)" style="fill: none; stroke: #17becf; stroke-linecap: square"/>
   </g>
   <g id="line2d_112">
    <path d="M 184.086667 70.518173 
L 185.476067 73.322396 
L 186.6339 75.204472 
L 187.791733 76.699452 
L 188.949567 77.825924 
L 189.875833 78.4641 
L 190.8021 78.865184 
L 191.728367 79.024057 
L 192.654633 78.935273 
L 193.5809 78.594165 
L 194.507167 77.997708 
L 195.433433 77.145291 
L 196.591267 75.724258 
L 197.7491 73.924248 
L 200.064767 70.057118 
L 200.296333 70.349364 
L 200.759467 71.689719 
L 203.3067 80.775353 
L 206.548633 91.951013 
L 207.243333 93.790041 
L 207.706467 92.652319 
L 209.095867 88.09772 
L 212.800933 74.950482 
L 214.190333 70.349364 
L 214.4219 70.057118 
L 214.653467 70.163337 
L 215.348167 71.350571 
L 216.969133 74.313065 
L 218.126967 76.039554 
L 219.2848 77.382313 
L 220.211067 78.170843 
L 221.137333 78.703298 
L 222.0636 78.980964 
L 222.989867 79.007349 
L 223.916133 78.787405 
L 224.8424 78.32661 
L 225.768667 77.629786 
L 226.9265 76.430282 
L 228.084333 74.859905 
L 229.242167 72.897008 
L 230.4 70.518173 
L 230.863133 71.80392 
L 231.326267 72.368974 
L 231.7894 72.612778 
L 232.252533 72.672021 
L 232.947233 72.495412 
L 233.641933 72.039385 
L 234.336633 71.327744 
L 235.2629 70.01361 
L 236.189167 68.321536 
L 237.347 65.742672 
L 238.0417 63.998321 
L 238.273267 64.950733 
L 240.588933 81.785941 
L 240.8205 82.734187 
L 241.052067 82.444957 
L 241.5152 79.927417 
L 242.9046 70.415675 
L 245.914967 49.212111 
L 246.609667 52.154073 
L 248.230633 58.957592 
L 249.620033 63.852965 
L 250.777867 67.179029 
L 251.704133 69.305343 
L 252.6304 70.884593 
L 253.093533 71.281417 
L 253.3251 71.142971 
L 253.556667 70.518173 
L 253.788233 70.906903 
L 254.0198 71.023953 
L 254.251367 70.911844 
L 254.7145 70.295096 
L 255.640767 68.493525 
L 257.4933 64.268686 
L 259.808967 58.406037 
L 262.587767 50.698481 
L 265.135 43.179673 
L 266.5244 47.303025 
L 269.534767 55.911757 
L 272.082 62.569665 
L 274.1661 67.488082 
L 275.5555 70.295097 
L 276.018633 70.911846 
L 276.2502 71.023954 
L 276.481767 70.906904 
L 276.481767 70.906904 
" clip-path="url(#p1adf3accd2)" style="fill: none; stroke: #1f77b4; stroke-linecap: square"/>
   </g>
   <g id="line2d_113">
    <path d="M 184.086667 70.518173 
L 184.5498 69.122063 
L 185.707633 64.403635 
L 189.4127 47.842309 
L 191.728367 37.298453 
L 191.959933 37.076111 
L 197.285967 58.15068 
L 199.601633 66.712184 
L 200.064767 67.826226 
L 200.296333 67.84866 
L 200.759467 67.091874 
L 201.685733 64.821645 
L 203.3067 60.20602 
L 205.622367 52.842809 
L 207.011767 48.536102 
L 207.243333 47.993304 
L 207.938033 49.8608 
L 212.800933 64.821645 
L 213.958767 67.544846 
L 214.190333 67.84866 
L 214.4219 67.826226 
L 214.653467 67.389768 
L 215.348167 65.116375 
L 217.8954 55.467798 
L 222.526733 37.076111 
L 222.7583 37.298453 
L 229.242167 66.376462 
L 230.168433 69.897184 
L 230.4 70.518173 
L 230.863133 68.026317 
L 232.252533 58.303837 
L 234.799767 39.322317 
L 235.031333 40.222164 
L 238.0417 63.170242 
L 238.273267 63.348512 
L 239.894233 58.647533 
L 241.978333 51.854902 
L 244.525567 42.91948 
L 244.757133 43.099642 
L 245.6834 47.501019 
L 245.914967 47.526176 
L 246.841233 40.708838 
L 247.7675 33.543513 
L 247.999067 34.463428 
L 251.472567 58.294432 
L 253.093533 68.317796 
L 253.556667 70.518169 
L 254.946067 67.143541 
L 256.7986 61.964319 
L 259.114267 54.750629 
L 261.893067 45.343308 
L 263.7456 38.870488 
L 265.135 43.027904 
L 266.5244 38.870489 
L 267.2191 41.238316 
L 270.461033 52.465802 
L 273.008267 60.577829 
L 275.092367 66.533506 
L 276.481767 69.992932 
L 276.481767 69.992932 
" clip-path="url(#p1adf3accd2)" style="fill: none; stroke: #ff7f0e; stroke-linecap: square"/>
   </g>
   <g id="line2d_114">
    <path d="M 184.086667 4.39063 
L 191.4968 35.19441 
L 191.728367 36.134298 
L 191.959933 36.237511 
L 194.507167 24.590019 
L 194.738733 24.649412 
L 197.285967 31.864257 
L 199.1385 36.48746 
L 200.759467 39.986626 
L 202.148867 42.503563 
L 203.3067 44.212215 
L 204.464533 45.532886 
L 205.3908 46.303683 
L 206.7802 47.269873 
L 207.243333 47.993304 
L 207.706467 47.269873 
L 208.401167 46.748365 
L 209.559 45.948938 
L 210.485267 45.052671 
L 211.6431 43.573732 
L 212.800933 41.718408 
L 214.190333 39.044786 
L 215.8113 35.389326 
L 217.663833 30.618769 
L 219.9795 24.590019 
L 222.526733 36.237511 
L 222.7583 36.134298 
L 228.547467 12.197442 
L 230.4 4.39063 
L 234.799767 38.438179 
L 235.031333 37.562931 
L 238.0417 14.638159 
L 238.273267 14.288507 
L 240.357367 17.751448 
L 240.8205 20.310979 
L 243.367733 35.433101 
L 244.525567 41.643122 
L 244.757133 41.81885 
L 245.914967 37.564951 
L 247.535933 31.227358 
L 247.7675 32.815235 
L 247.999067 31.739303 
L 248.693767 26.596909 
L 253.556667 4.390623 
L 258.8827 22.871965 
L 263.0509 36.576323 
L 263.7456 38.639967 
L 265.135 34.06059 
L 265.366567 34.569325 
L 266.5244 38.639969 
L 267.2191 36.576323 
L 271.155733 23.653203 
L 275.787067 7.667569 
L 276.481767 5.210979 
L 276.481767 5.210979 
" clip-path="url(#p1adf3accd2)" style="fill: none; stroke: #2ca02c; stroke-linecap: square"/>
   </g>
   <g id="line2d_115">
    <path d="M 184.086667 4.390619 
L 187.3286 2.245282 
L 187.560167 2.299948 
L 187.791733 2.533428 
L 188.254867 3.571846 
L 189.4127 7.314869 
L 193.5809 21.07891 
L 194.507167 23.912988 
L 194.738733 23.488906 
L 197.7491 9.647455 
L 197.980667 9.499574 
L 202.612 28.749302 
L 205.3908 39.513126 
L 206.548633 43.357978 
L 207.011767 44.293812 
L 207.243333 44.429894 
L 207.4749 44.293812 
L 207.938033 43.357978 
L 208.8643 40.348773 
L 210.9484 32.436906 
L 214.4219 18.29795 
L 216.506 9.499574 
L 216.737567 9.647455 
L 219.747933 23.488906 
L 219.9795 23.912988 
L 222.0636 17.38643 
L 226.694933 2.533428 
L 226.9265 2.299948 
L 227.389633 2.300137 
L 228.084333 2.714968 
L 230.4 4.390619 
L 232.180967 -1 
M 233.153725 -1 
L 234.5682 4.068968 
L 236.189167 9.077616 
L 237.578567 12.628924 
L 238.0417 13.518894 
L 238.273267 12.563796 
L 238.7364 9.048943 
L 238.967967 8.51776 
L 240.357367 17.328976 
L 240.588933 17.939682 
L 241.5152 18.897318 
L 242.441467 19.505361 
L 243.136167 19.745465 
L 243.830867 19.802817 
L 244.525567 19.679998 
L 245.451833 19.241574 
L 245.6834 19.083951 
L 245.914967 19.527869 
L 247.535933 31.155101 
L 248.4622 27.392461 
L 248.925333 24.489051 
L 250.314733 14.272488 
L 250.777867 12.102217 
L 251.704133 9.455522 
L 253.556667 4.390599 
L 255.640767 5.65376 
L 257.4933 6.537093 
L 258.188 6.812734 
L 258.651133 8.363744 
L 263.282467 26.568239 
L 264.903433 32.599515 
L 265.135 33.11148 
L 265.366567 32.599512 
L 266.987533 26.568235 
L 271.3873 9.294798 
L 272.082 6.812752 
L 274.1661 5.895624 
L 276.018633 4.842473 
L 276.481767 4.543629 
L 276.481767 4.543629 
" clip-path="url(#p1adf3accd2)" style="fill: none; stroke: #d62728; stroke-linecap: square"/>
   </g>
   <g id="line2d_116">
    <path d="M 184.086667 4.385947 
L 185.594944 -1 
M 187.327883 -1 
L 187.560167 -0.434889 
L 187.791733 -0.058419 
L 188.0233 0.103218 
L 188.486433 -0.002595 
L 189.181133 -0.564967 
L 189.611158 -1 
M 195.543402 -1 
L 197.7491 8.506814 
L 197.980667 8.575691 
L 200.055517 -1 
M 214.43115 -1 
L 216.506 8.575691 
L 216.737567 8.506814 
L 218.943265 -1 
M 224.875509 -1 
L 225.768667 -0.160488 
L 226.2318 0.099557 
L 226.463367 0.103218 
L 226.694933 -0.058419 
L 227.158784 -1 
M 228.891723 -1 
L 230.4 4.385947 
L 231.491764 -1 
M 234.587183 -1 
L 235.726033 0.861169 
L 236.6523 1.967434 
L 238.0417 3.368408 
L 238.504833 5.588734 
L 238.7364 7.031393 
L 238.967967 7.251716 
L 239.662667 2.452953 
L 240.8205 1.34118 
L 241.746767 -0.048959 
L 242.246087 -1 
M 243.112152 -1 
L 244.757133 11.096542 
L 245.914967 18.906414 
L 246.841233 18.013011 
L 247.7675 16.825717 
L 248.925333 14.923305 
L 249.8516 12.947972 
L 250.314733 11.495557 
L 250.777867 8.9824 
L 252.098518 -1 
M 252.864353 -1 
L 253.556667 4.385933 
L 254.830349 -1 
M 256.347229 -1 
L 258.188 6.494441 
L 258.419567 6.89602 
L 260.503667 7.518592 
L 262.587767 7.899258 
L 264.671867 8.055669 
L 266.755967 7.995748 
L 268.840067 7.716395 
L 270.924167 7.204174 
L 271.850433 6.896036 
L 272.082 6.494438 
L 273.92277 -1 
M 275.439647 -1 
L 276.481767 3.409911 
L 276.481767 3.409911 
" clip-path="url(#p1adf3accd2)" style="fill: none; stroke: #9467bd; stroke-linecap: square"/>
   </g>
   <g id="line2d_117">
    <path d="M 237.590481 -1 
L 238.0417 1.602342 
L 238.273267 2.291298 
L 238.504833 2.530707 
L 238.967967 2.60847 
L 239.4311 2.45955 
L 239.662667 1.772176 
L 240.025219 -1 
L 240.025219 -1 
" clip-path="url(#p1adf3accd2)" style="fill: none; stroke: #8c564b; stroke-linecap: square"/>
   </g>
   <g id="line2d_118">
    <path d="M 0 0 
" clip-path="url(#p1adf3accd2)" style="fill: none; stroke: #e377c2; stroke-linecap: square"/>
   </g>
   <g id="line2d_119">
    <path d="M 0 0 
" clip-path="url(#p1adf3accd2)" style="fill: none; stroke: #7f7f7f; stroke-linecap: square"/>
   </g>
   <g id="line2d_120">
    <path d="M 0 0 
" clip-path="url(#p1adf3accd2)" style="fill: none; stroke: #bcbd22; stroke-linecap: square"/>
   </g>
   <g id="line2d_121">
    <path d="M 0 0 
" clip-path="url(#p1adf3accd2)" style="fill: none; stroke: #17becf; stroke-linecap: square"/>
   </g>
   <g id="line2d_122">
    <path d="M 0 0 
" clip-path="url(#p1adf3accd2)" style="fill: none; stroke: #1f77b4; stroke-linecap: square"/>
   </g>
   <g id="line2d_123">
    <path d="M 0 0 
" clip-path="url(#p1adf3accd2)" style="fill: none; stroke: #ff7f0e; stroke-linecap: square"/>
   </g>
   <g id="line2d_124">
    <path d="M 0 0 
" clip-path="url(#p1adf3accd2)" style="fill: none; stroke: #2ca02c; stroke-linecap: square"/>
   </g>
   <g id="line2d_125">
    <path d="M 0 0 
" clip-path="url(#p1adf3accd2)" style="fill: none; stroke: #d62728; stroke-linecap: square"/>
   </g>
   <g id="line2d_126">
    <path d="M 0 0 
" clip-path="url(#p1adf3accd2)" style="fill: none; stroke: #9467bd; stroke-linecap: square"/>
   </g>
   <g id="line2d_127">
    <path d="M 0 0 
" clip-path="url(#p1adf3accd2)" style="fill: none; stroke: #8c564b; stroke-linecap: square"/>
   </g>
   <g id="line2d_128">
    <path d="M 0 0 
" clip-path="url(#p1adf3accd2)" style="fill: none; stroke: #e377c2; stroke-linecap: square"/>
   </g>
   <g id="line2d_129">
    <path d="M 0 0 
" clip-path="url(#p1adf3accd2)" style="fill: none; stroke: #7f7f7f; stroke-linecap: square"/>
   </g>
   <g id="line2d_130">
    <path d="M 0 0 
" clip-path="url(#p1adf3accd2)" style="fill: none; stroke: #bcbd22; stroke-linecap: square"/>
   </g>
   <g id="line2d_131">
    <path d="M 0 0 
" clip-path="url(#p1adf3accd2)" style="fill: none; stroke: #17becf; stroke-linecap: square"/>
   </g>
   <g id="line2d_132">
    <path d="M 0 0 
" clip-path="url(#p1adf3accd2)" style="fill: none; stroke: #1f77b4; stroke-linecap: square"/>
   </g>
   <g id="line2d_133">
    <path d="M 0 0 
" clip-path="url(#p1adf3accd2)" style="fill: none; stroke: #ff7f0e; stroke-linecap: square"/>
   </g>
   <g id="line2d_134">
    <path d="M 0 0 
" clip-path="url(#p1adf3accd2)" style="fill: none; stroke: #2ca02c; stroke-linecap: square"/>
   </g>
   <g id="line2d_135">
    <path d="M 0 0 
" clip-path="url(#p1adf3accd2)" style="fill: none; stroke: #d62728; stroke-linecap: square"/>
   </g>
   <g id="line2d_136">
    <path d="M 0 0 
" clip-path="url(#p1adf3accd2)" style="fill: none; stroke: #9467bd; stroke-linecap: square"/>
   </g>
   <g id="line2d_137">
    <path d="M 0 0 
" clip-path="url(#p1adf3accd2)" style="fill: none; stroke: #8c564b; stroke-linecap: square"/>
   </g>
   <g id="line2d_138">
    <path d="M 0 0 
" clip-path="url(#p1adf3accd2)" style="fill: none; stroke: #e377c2; stroke-linecap: square"/>
   </g>
   <g id="line2d_139">
    <path d="M 0 0 
" clip-path="url(#p1adf3accd2)" style="fill: none; stroke: #7f7f7f; stroke-linecap: square"/>
   </g>
   <g id="line2d_140">
    <path d="M 0 0 
" clip-path="url(#p1adf3accd2)" style="fill: none; stroke: #bcbd22; stroke-linecap: square"/>
   </g>
   <g id="line2d_141">
    <path d="M 0 0 
" clip-path="url(#p1adf3accd2)" style="fill: none; stroke: #17becf; stroke-linecap: square"/>
   </g>
   <g id="line2d_142">
    <path d="M 0 0 
" clip-path="url(#p1adf3accd2)" style="fill: none; stroke: #1f77b4; stroke-linecap: square"/>
   </g>
   <g id="line2d_143">
    <path d="M 0 0 
" clip-path="url(#p1adf3accd2)" style="fill: none; stroke: #ff7f0e; stroke-linecap: square"/>
   </g>
   <g id="line2d_144">
    <path d="M 0 0 
" clip-path="url(#p1adf3accd2)" style="fill: none; stroke: #2ca02c; stroke-linecap: square"/>
   </g>
   <g id="line2d_145">
    <path d="M 0 0 
" clip-path="url(#p1adf3accd2)" style="fill: none; stroke: #d62728; stroke-linecap: square"/>
   </g>
   <g id="line2d_146">
    <path d="M 0 0 
" clip-path="url(#p1adf3accd2)" style="fill: none; stroke: #9467bd; stroke-linecap: square"/>
   </g>
   <g id="line2d_147">
    <path d="M 0 0 
" clip-path="url(#p1adf3accd2)" style="fill: none; stroke: #8c564b; stroke-linecap: square"/>
   </g>
   <g id="line2d_148">
    <path d="M 0 0 
" clip-path="url(#p1adf3accd2)" style="fill: none; stroke: #e377c2; stroke-linecap: square"/>
   </g>
   <g id="line2d_149">
    <path d="M 0 0 
" clip-path="url(#p1adf3accd2)" style="fill: none; stroke: #7f7f7f; stroke-linecap: square"/>
   </g>
   <g id="line2d_150">
    <path d="M 0 0 
" clip-path="url(#p1adf3accd2)" style="fill: none; stroke: #bcbd22; stroke-linecap: square"/>
   </g>
   <g id="line2d_151">
    <path d="M 0 0 
" clip-path="url(#p1adf3accd2)" style="fill: none; stroke: #17becf; stroke-linecap: square"/>
   </g>
   <g id="line2d_152">
    <path d="M 0 0 
" clip-path="url(#p1adf3accd2)" style="fill: none; stroke: #1f77b4; stroke-linecap: square"/>
   </g>
   <g id="line2d_153">
    <path d="M 0 0 
" clip-path="url(#p1adf3accd2)" style="fill: none; stroke: #ff7f0e; stroke-linecap: square"/>
   </g>
   <g id="line2d_154">
    <path d="M 0 0 
" clip-path="url(#p1adf3accd2)" style="fill: none; stroke: #2ca02c; stroke-linecap: square"/>
   </g>
   <g id="line2d_155">
    <path d="M 0 0 
" clip-path="url(#p1adf3accd2)" style="fill: none; stroke: #d62728; stroke-linecap: square"/>
   </g>
   <g id="line2d_156">
    <path d="M 0 0 
" clip-path="url(#p1adf3accd2)" style="fill: none; stroke: #9467bd; stroke-linecap: square"/>
   </g>
   <g id="line2d_157">
    <path d="M 0 0 
" clip-path="url(#p1adf3accd2)" style="fill: none; stroke: #8c564b; stroke-linecap: square"/>
   </g>
   <g id="line2d_158">
    <path d="M 0 0 
" clip-path="url(#p1adf3accd2)" style="fill: none; stroke: #e377c2; stroke-linecap: square"/>
   </g>
   <g id="line2d_159">
    <path d="M 0 0 
" clip-path="url(#p1adf3accd2)" style="fill: none; stroke: #7f7f7f; stroke-linecap: square"/>
   </g>
   <g id="line2d_160">
    <path d="M 0 0 
" clip-path="url(#p1adf3accd2)" style="fill: none; stroke: #bcbd22; stroke-linecap: square"/>
   </g>
   <g id="line2d_161">
    <path d="M 0 0 
" clip-path="url(#p1adf3accd2)" style="fill: none; stroke: #17becf; stroke-linecap: square"/>
   </g>
   <g id="line2d_162">
    <path d="M 0 0 
" clip-path="url(#p1adf3accd2)" style="fill: none; stroke: #1f77b4; stroke-linecap: square"/>
   </g>
   <g id="line2d_163">
    <path d="M 0 0 
" clip-path="url(#p1adf3accd2)" style="fill: none; stroke: #ff7f0e; stroke-linecap: square"/>
   </g>
   <g id="line2d_164">
    <path d="M 0 0 
" clip-path="url(#p1adf3accd2)" style="fill: none; stroke: #2ca02c; stroke-linecap: square"/>
   </g>
   <g id="line2d_165">
    <path d="M 0 0 
" clip-path="url(#p1adf3accd2)" style="fill: none; stroke: #d62728; stroke-linecap: square"/>
   </g>
   <g id="line2d_166">
    <path d="M 0 0 
" clip-path="url(#p1adf3accd2)" style="fill: none; stroke: #9467bd; stroke-linecap: square"/>
   </g>
   <g id="line2d_167">
    <path d="M 0 0 
" clip-path="url(#p1adf3accd2)" style="fill: none; stroke: #8c564b; stroke-linecap: square"/>
   </g>
   <g id="line2d_168">
    <path d="M 0 0 
" clip-path="url(#p1adf3accd2)" style="fill: none; stroke: #e377c2; stroke-linecap: square"/>
   </g>
   <g id="line2d_169">
    <path d="M 0 0 
" clip-path="url(#p1adf3accd2)" style="fill: none; stroke: #7f7f7f; stroke-linecap: square"/>
   </g>
   <g id="line2d_170">
    <path d="M 0 0 
" clip-path="url(#p1adf3accd2)" style="fill: none; stroke: #bcbd22; stroke-linecap: square"/>
   </g>
   <g id="line2d_171">
    <path d="M 0 0 
" clip-path="url(#p1adf3accd2)" style="fill: none; stroke: #17becf; stroke-linecap: square"/>
   </g>
   <g id="line2d_172">
    <path d="M 0 0 
" clip-path="url(#p1adf3accd2)" style="fill: none; stroke: #1f77b4; stroke-linecap: square"/>
   </g>
   <g id="line2d_173">
    <path d="M 0 0 
" clip-path="url(#p1adf3accd2)" style="fill: none; stroke: #ff7f0e; stroke-linecap: square"/>
   </g>
   <g id="line2d_174">
    <path d="M 0 0 
" clip-path="url(#p1adf3accd2)" style="fill: none; stroke: #2ca02c; stroke-linecap: square"/>
   </g>
   <g id="line2d_175">
    <path d="M 0 0 
" clip-path="url(#p1adf3accd2)" style="fill: none; stroke: #d62728; stroke-linecap: square"/>
   </g>
   <g id="line2d_176">
    <path d="M 0 0 
" clip-path="url(#p1adf3accd2)" style="fill: none; stroke: #9467bd; stroke-linecap: square"/>
   </g>
   <g id="line2d_177">
    <path d="M 0 0 
" clip-path="url(#p1adf3accd2)" style="fill: none; stroke: #8c564b; stroke-linecap: square"/>
   </g>
   <g id="line2d_178">
    <path d="M 0 0 
" clip-path="url(#p1adf3accd2)" style="fill: none; stroke: #e377c2; stroke-linecap: square"/>
   </g>
   <g id="line2d_179">
    <path d="M 0 0 
" clip-path="url(#p1adf3accd2)" style="fill: none; stroke: #7f7f7f; stroke-linecap: square"/>
   </g>
   <g id="line2d_180">
    <path d="M 0 0 
" clip-path="url(#p1adf3accd2)" style="fill: none; stroke: #bcbd22; stroke-linecap: square"/>
   </g>
   <g id="line2d_181">
    <path d="M 0 0 
" clip-path="url(#p1adf3accd2)" style="fill: none; stroke: #17becf; stroke-linecap: square"/>
   </g>
   <g id="line2d_182">
    <path d="M 0 0 
" clip-path="url(#p1adf3accd2)" style="fill: none; stroke: #1f77b4; stroke-linecap: square"/>
   </g>
   <g id="line2d_183">
    <path d="M 0 0 
" clip-path="url(#p1adf3accd2)" style="fill: none; stroke: #ff7f0e; stroke-linecap: square"/>
   </g>
   <g id="line2d_184">
    <path d="M 0 0 
" clip-path="url(#p1adf3accd2)" style="fill: none; stroke: #2ca02c; stroke-linecap: square"/>
   </g>
   <g id="line2d_185">
    <path d="M 0 0 
" clip-path="url(#p1adf3accd2)" style="fill: none; stroke: #d62728; stroke-linecap: square"/>
   </g>
   <g id="line2d_186">
    <path d="M 0 0 
" clip-path="url(#p1adf3accd2)" style="fill: none; stroke: #9467bd; stroke-linecap: square"/>
   </g>
   <g id="line2d_187">
    <path d="M 0 0 
" clip-path="url(#p1adf3accd2)" style="fill: none; stroke: #8c564b; stroke-linecap: square"/>
   </g>
   <g id="line2d_188">
    <path d="M 0 0 
" clip-path="url(#p1adf3accd2)" style="fill: none; stroke: #e377c2; stroke-linecap: square"/>
   </g>
   <g id="line2d_189">
    <path d="M 0 0 
" clip-path="url(#p1adf3accd2)" style="fill: none; stroke: #7f7f7f; stroke-linecap: square"/>
   </g>
   <g id="line2d_190">
    <path d="M 0 0 
" clip-path="url(#p1adf3accd2)" style="fill: none; stroke: #bcbd22; stroke-linecap: square"/>
   </g>
   <g id="line2d_191">
    <path d="M 0 0 
" clip-path="url(#p1adf3accd2)" style="fill: none; stroke: #17becf; stroke-linecap: square"/>
   </g>
   <g id="line2d_192">
    <path d="M 0 0 
" clip-path="url(#p1adf3accd2)" style="fill: none; stroke: #1f77b4; stroke-linecap: square"/>
   </g>
   <g id="line2d_193">
    <path d="M 0 0 
" clip-path="url(#p1adf3accd2)" style="fill: none; stroke: #ff7f0e; stroke-linecap: square"/>
   </g>
   <g id="line2d_194">
    <path d="M 0 0 
" clip-path="url(#p1adf3accd2)" style="fill: none; stroke: #2ca02c; stroke-linecap: square"/>
   </g>
   <g id="line2d_195">
    <path d="M 0 0 
" clip-path="url(#p1adf3accd2)" style="fill: none; stroke: #d62728; stroke-linecap: square"/>
   </g>
   <g id="line2d_196">
    <path d="M 0 0 
" clip-path="url(#p1adf3accd2)" style="fill: none; stroke: #9467bd; stroke-linecap: square"/>
   </g>
   <g id="line2d_197">
    <path d="M 0 0 
" clip-path="url(#p1adf3accd2)" style="fill: none; stroke: #8c564b; stroke-linecap: square"/>
   </g>
   <g id="line2d_198">
    <path d="M 0 0 
" clip-path="url(#p1adf3accd2)" style="fill: none; stroke: #e377c2; stroke-linecap: square"/>
   </g>
   <g id="line2d_199">
    <path d="M 0 0 
" clip-path="url(#p1adf3accd2)" style="fill: none; stroke: #7f7f7f; stroke-linecap: square"/>
   </g>
   <g id="line2d_200">
    <path d="M 0 0 
" clip-path="url(#p1adf3accd2)" style="fill: none; stroke: #bcbd22; stroke-linecap: square"/>
   </g>
   <g id="line2d_201">
    <path d="M 0 0 
" clip-path="url(#p1adf3accd2)" style="fill: none; stroke: #17becf; stroke-linecap: square"/>
   </g>
   <g id="line2d_202">
    <path d="M 0 0 
" clip-path="url(#p1adf3accd2)" style="fill: none; stroke: #1f77b4; stroke-linecap: square"/>
   </g>
   <g id="line2d_203">
    <path d="M 0 0 
" clip-path="url(#p1adf3accd2)" style="fill: none; stroke: #ff7f0e; stroke-linecap: square"/>
   </g>
   <g id="line2d_204">
    <path d="M 0 0 
" clip-path="url(#p1adf3accd2)" style="fill: none; stroke: #2ca02c; stroke-linecap: square"/>
   </g>
   <g id="line2d_205">
    <path d="M 0 0 
" clip-path="url(#p1adf3accd2)" style="fill: none; stroke: #d62728; stroke-linecap: square"/>
   </g>
   <g id="line2d_206">
    <path d="M 0 0 
" clip-path="url(#p1adf3accd2)" style="fill: none; stroke: #9467bd; stroke-linecap: square"/>
   </g>
   <g id="line2d_207">
    <path d="M 0 0 
" clip-path="url(#p1adf3accd2)" style="fill: none; stroke: #8c564b; stroke-linecap: square"/>
   </g>
   <g id="LineCollection_1">
    <path d="M 207.243333 317.72 
L 207.243333 39.84 
" clip-path="url(#p1adf3accd2)" style="fill: none; stroke: #000000; stroke-width: 0.5"/>
    <path d="M 230.4 317.72 
L 230.4 39.84 
" clip-path="url(#p1adf3accd2)" style="fill: none; stroke: #000000; stroke-width: 0.5"/>
    <path d="M 253.556667 317.72 
L 253.556667 39.84 
" clip-path="url(#p1adf3accd2)" style="fill: none; stroke: #000000; stroke-width: 0.5"/>
    <path d="M 265.135 317.72 
L 265.135 39.84 
" clip-path="url(#p1adf3accd2)" style="fill: none; stroke: #000000; stroke-width: 0.5"/>
   </g>
   <g id="patch_3">
    <path d="M 184.086667 317.72 
L 184.086667 39.84 
" style="fill: none; stroke: #000000; stroke-width: 0.8; stroke-linejoin: miter; stroke-linecap: square"/>
   </g>
   <g id="patch_4">
    <path d="M 276.713333 317.72 
L 276.713333 39.84 
" style="fill: none; stroke: #000000; stroke-width: 0.8; stroke-linejoin: miter; stroke-linecap: square"/>
   </g>
   <g id="patch_5">
    <path d="M 184.086667 317.72 
L 276.713333 317.72 
" style="fill: none; stroke: #000000; stroke-width: 0.8; stroke-linejoin: miter; stroke-linecap: square"/>
   </g>
   <g id="patch_6">
    <path d="M 184.086667 39.84 
L 276.713333 39.84 
" style="fill: none; stroke: #000000; stroke-width: 0.8; stroke-linejoin: miter; stroke-linecap: square"/>
   </g>
   <g id="text_13">
    <!-- Moire bands of twisted bilayer graphene -->
    <g transform="translate(129.346875 21.055937) scale(0.1 -0.1)">
     <defs>
      <path id="DejaVuSans-6f" d="M 1959 3097 
Q 1497 3097 1228 2736 
Q 959 2375 959 1747 
Q 959 1119 1226 758 
Q 1494 397 1959 397 
Q 2419 397 2687 759 
Q 2956 1122 2956 1747 
Q 2956 2369 2687 2733 
Q 2419 3097 1959 3097 
z
M 1959 3584 
Q 2709 3584 3137 3096 
Q 3566 2609 3566 1747 
Q 3566 888 3137 398 
Q 2709 -91 1959 -91 
Q 1206 -91 779 398 
Q 353 888 353 1747 
Q 353 2609 779 3096 
Q 1206 3584 1959 3584 
z
" transform="scale(0.015625)"/>
      <path id="DejaVuSans-69" d="M 603 3500 
L 1178 3500 
L 1178 0 
L 603 0 
L 603 3500 
z
M 603 4863 
L 1178 4863 
L 1178 4134 
L 603 4134 
L 603 4863 
z
" transform="scale(0.015625)"/>
      <path id="DejaVuSans-72" d="M 2631 2963 
Q 2534 3019 2420 3045 
Q 2306 3072 2169 3072 
Q 1681 3072 1420 2755 
Q 1159 2438 1159 1844 
L 1159 0 
L 581 0 
L 581 3500 
L 1159 3500 
L 1159 2956 
Q 1341 3275 1631 3429 
Q 1922 3584 2338 3584 
Q 2397 3584 2469 3576 
Q 2541 3569 2628 3553 
L 2631 2963 
z
" transform="scale(0.015625)"/>
      <path id="DejaVuSans-20" transform="scale(0.015625)"/>
      <path id="DejaVuSans-62" d="M 3116 1747 
Q 3116 2381 2855 2742 
Q 2594 3103 2138 3103 
Q 1681 3103 1420 2742 
Q 1159 2381 1159 1747 
Q 1159 1113 1420 752 
Q 1681 391 2138 391 
Q 2594 391 2855 752 
Q 3116 1113 3116 1747 
z
M 1159 2969 
Q 1341 3281 1617 3432 
Q 1894 3584 2278 3584 
Q 2916 3584 3314 3078 
Q 3713 2572 3713 1747 
Q 3713 922 3314 415 
Q 2916 -91 2278 -91 
Q 1894 -91 1617 61 
Q 1341 213 1159 525 
L 1159 0 
L 581 0 
L 581 4863 
L 1159 4863 
L 1159 2969 
z
" transform="scale(0.015625)"/>
      <path id="DejaVuSans-61" d="M 2194 1759 
Q 1497 1759 1228 1600 
Q 959 1441 959 1056 
Q 959 750 1161 570 
Q 1363 391 1709 391 
Q 2188 391 2477 730 
Q 2766 1069 2766 1631 
L 2766 1759 
L 2194 1759 
z
M 3341 1997 
L 3341 0 
L 2766 0 
L 2766 531 
Q 2569 213 2275 61 
Q 1981 -91 1556 -91 
Q 1019 -91 701 211 
Q 384 513 384 1019 
Q 384 1609 779 1909 
Q 1175 2209 1959 2209 
L 2766 2209 
L 2766 2266 
Q 2766 2663 2505 2880 
Q 2244 3097 1772 3097 
Q 1472 3097 1187 3025 
Q 903 2953 641 2809 
L 641 3341 
Q 956 3463 1253 3523 
Q 1550 3584 1831 3584 
Q 2591 3584 2966 3190 
Q 3341 2797 3341 1997 
z
" transform="scale(0.015625)"/>
      <path id="DejaVuSans-6e" d="M 3513 2113 
L 3513 0 
L 2938 0 
L 2938 2094 
Q 2938 2591 2744 2837 
Q 2550 3084 2163 3084 
Q 1697 3084 1428 2787 
Q 1159 2491 1159 1978 
L 1159 0 
L 581 0 
L 581 3500 
L 1159 3500 
L 1159 2956 
Q 1366 3272 1645 3428 
Q 1925 3584 2291 3584 
Q 2894 3584 3203 3211 
Q 3513 2838 3513 2113 
z
" transform="scale(0.015625)"/>
      <path id="DejaVuSans-64" d="M 2906 2969 
L 2906 4863 
L 3481 4863 
L 3481 0 
L 2906 0 
L 2906 525 
Q 2725 213 2448 61 
Q 2172 -91 1784 -91 
Q 1150 -91 751 415 
Q 353 922 353 1747 
Q 353 2572 751 3078 
Q 1150 3584 1784 3584 
Q 2172 3584 2448 3432 
Q 2725 3281 2906 2969 
z
M 947 1747 
Q 947 1113 1208 752 
Q 1469 391 1925 391 
Q 2381 391 2643 752 
Q 2906 1113 2906 1747 
Q 2906 2381 2643 2742 
Q 2381 3103 1925 3103 
Q 1469 3103 1208 2742 
Q 947 2381 947 1747 
z
" transform="scale(0.015625)"/>
      <path id="DejaVuSans-73" d="M 2834 3397 
L 2834 2853 
Q 2591 2978 2328 3040 
Q 2066 3103 1784 3103 
Q 1356 3103 1142 2972 
Q 928 2841 928 2578 
Q 928 2378 1081 2264 
Q 1234 2150 1697 2047 
L 1894 2003 
Q 2506 1872 2764 1633 
Q 3022 1394 3022 966 
Q 3022 478 2636 193 
Q 2250 -91 1575 -91 
Q 1294 -91 989 -36 
Q 684 19 347 128 
L 347 722 
Q 666 556 975 473 
Q 1284 391 1588 391 
Q 1994 391 2212 530 
Q 2431 669 2431 922 
Q 2431 1156 2273 1281 
Q 2116 1406 1581 1522 
L 1381 1569 
Q 847 1681 609 1914 
Q 372 2147 372 2553 
Q 372 3047 722 3315 
Q 1072 3584 1716 3584 
Q 2034 3584 2315 3537 
Q 2597 3491 2834 3397 
z
" transform="scale(0.015625)"/>
      <path id="DejaVuSans-66" d="M 2375 4863 
L 2375 4384 
L 1825 4384 
Q 1516 4384 1395 4259 
Q 1275 4134 1275 3809 
L 1275 3500 
L 2222 3500 
L 2222 3053 
L 1275 3053 
L 1275 0 
L 697 0 
L 697 3053 
L 147 3053 
L 147 3500 
L 697 3500 
L 697 3744 
Q 697 4328 969 4595 
Q 1241 4863 1831 4863 
L 2375 4863 
z
" transform="scale(0.015625)"/>
      <path id="DejaVuSans-74" d="M 1172 4494 
L 1172 3500 
L 2356 3500 
L 2356 3053 
L 1172 3053 
L 1172 1153 
Q 1172 725 1289 603 
Q 1406 481 1766 481 
L 2356 481 
L 2356 0 
L 1766 0 
Q 1100 0 847 248 
Q 594 497 594 1153 
L 594 3053 
L 172 3053 
L 172 3500 
L 594 3500 
L 594 4494 
L 1172 4494 
z
" transform="scale(0.015625)"/>
      <path id="DejaVuSans-77" d="M 269 3500 
L 844 3500 
L 1563 769 
L 2278 3500 
L 2956 3500 
L 3675 769 
L 4391 3500 
L 4966 3500 
L 4050 0 
L 3372 0 
L 2619 2869 
L 1863 0 
L 1184 0 
L 269 3500 
z
" transform="scale(0.015625)"/>
      <path id="DejaVuSans-6c" d="M 603 4863 
L 1178 4863 
L 1178 0 
L 603 0 
L 603 4863 
z
" transform="scale(0.015625)"/>
      <path id="DejaVuSans-79" d="M 2059 -325 
Q 1816 -950 1584 -1140 
Q 1353 -1331 966 -1331 
L 506 -1331 
L 506 -850 
L 844 -850 
Q 1081 -850 1212 -737 
Q 1344 -625 1503 -206 
L 1606 56 
L 191 3500 
L 800 3500 
L 1894 763 
L 2988 3500 
L 3597 3500 
L 2059 -325 
z
" transform="scale(0.015625)"/>
      <path id="DejaVuSans-67" d="M 2906 1791 
Q 2906 2416 2648 2759 
Q 2391 3103 1925 3103 
Q 1463 3103 1205 2759 
Q 947 2416 947 1791 
Q 947 1169 1205 825 
Q 1463 481 1925 481 
Q 2391 481 2648 825 
Q 2906 1169 2906 1791 
z
M 3481 434 
Q 3481 -459 3084 -895 
Q 2688 -1331 1869 -1331 
Q 1566 -1331 1297 -1286 
Q 1028 -1241 775 -1147 
L 775 -588 
Q 1028 -725 1275 -790 
Q 1522 -856 1778 -856 
Q 2344 -856 2625 -561 
Q 2906 -266 2906 331 
L 2906 616 
Q 2728 306 2450 153 
Q 2172 0 1784 0 
Q 1141 0 747 490 
Q 353 981 353 1791 
Q 353 2603 747 3093 
Q 1141 3584 1784 3584 
Q 2172 3584 2450 3431 
Q 2728 3278 2906 2969 
L 2906 3500 
L 3481 3500 
L 3481 434 
z
" transform="scale(0.015625)"/>
      <path id="DejaVuSans-70" d="M 1159 525 
L 1159 -1331 
L 581 -1331 
L 581 3500 
L 1159 3500 
L 1159 2969 
Q 1341 3281 1617 3432 
Q 1894 3584 2278 3584 
Q 2916 3584 3314 3078 
Q 3713 2572 3713 1747 
Q 3713 922 3314 415 
Q 2916 -91 2278 -91 
Q 1894 -91 1617 61 
Q 1341 213 1159 525 
z
M 3116 1747 
Q 3116 2381 2855 2742 
Q 2594 3103 2138 3103 
Q 1681 3103 1420 2742 
Q 1159 2381 1159 1747 
Q 1159 1113 1420 752 
Q 1681 391 2138 391 
Q 2594 391 2855 752 
Q 3116 1113 3116 1747 
z
" transform="scale(0.015625)"/>
      <path id="DejaVuSans-68" d="M 3513 2113 
L 3513 0 
L 2938 0 
L 2938 2094 
Q 2938 2591 2744 2837 
Q 2550 3084 2163 3084 
Q 1697 3084 1428 2787 
Q 1159 2491 1159 1978 
L 1159 0 
L 581 0 
L 581 4863 
L 1159 4863 
L 1159 2956 
Q 1366 3272 1645 3428 
Q 1925 3584 2291 3584 
Q 2894 3584 3203 3211 
Q 3513 2838 3513 2113 
z
" transform="scale(0.015625)"/>
     </defs>
     <use xlink:href="#DejaVuSans-4d"/>
     <use xlink:href="#DejaVuSans-6f" x="86.279297"/>
     <use xlink:href="#DejaVuSans-69" x="147.460938"/>
     <use xlink:href="#DejaVuSans-72" x="175.244141"/>
     <use xlink:href="#DejaVuSans-65" x="214.107422"/>
     <use xlink:href="#DejaVuSans-20" x="275.630859"/>
     <use xlink:href="#DejaVuSans-62" x="307.417969"/>
     <use xlink:href="#DejaVuSans-61" x="370.894531"/>
     <use xlink:href="#DejaVuSans-6e" x="432.173828"/>
     <use xlink:href="#DejaVuSans-64" x="495.552734"/>
     <use xlink:href="#DejaVuSans-73" x="559.029297"/>
     <use xlink:href="#DejaVuSans-20" x="611.128906"/>
     <use xlink:href="#DejaVuSans-6f" x="642.916016"/>
     <use xlink:href="#DejaVuSans-66" x="704.097656"/>
     <use xlink:href="#DejaVuSans-20" x="739.302734"/>
     <use xlink:href="#DejaVuSans-74" x="771.089844"/>
     <use xlink:href="#DejaVuSans-77" x="810.298828"/>
     <use xlink:href="#DejaVuSans-69" x="892.085938"/>
     <use xlink:href="#DejaVuSans-73" x="919.869141"/>
     <use xlink:href="#DejaVuSans-74" x="971.96875"/>
     <use xlink:href="#DejaVuSans-65" x="1011.177734"/>
     <use xlink:href="#DejaVuSans-64" x="1072.701172"/>
     <use xlink:href="#DejaVuSans-20" x="1136.177734"/>
     <use xlink:href="#DejaVuSans-62" x="1167.964844"/>
     <use xlink:href="#DejaVuSans-69" x="1231.441406"/>
     <use xlink:href="#DejaVuSans-6c" x="1259.224609"/>
     <use xlink:href="#DejaVuSans-61" x="1287.007812"/>
     <use xlink:href="#DejaVuSans-79" x="1348.287109"/>
     <use xlink:href="#DejaVuSans-65" x="1407.466797"/>
     <use xlink:href="#DejaVuSans-72" x="1468.990234"/>
     <use xlink:href="#DejaVuSans-20" x="1510.103516"/>
     <use xlink:href="#DejaVuSans-67" x="1541.890625"/>
     <use xlink:href="#DejaVuSans-72" x="1605.367188"/>
     <use xlink:href="#DejaVuSans-61" x="1646.480469"/>
     <use xlink:href="#DejaVuSans-70" x="1707.759766"/>
     <use xlink:href="#DejaVuSans-68" x="1771.236328"/>
     <use xlink:href="#DejaVuSans-65" x="1834.615234"/>
     <use xlink:href="#DejaVuSans-6e" x="1896.138672"/>
     <use xlink:href="#DejaVuSans-65" x="1959.517578"/>
    </g>
    <!--           θ=5.00°     $t_\perp$=110.70MeV    $\hbar v_F$=6326Mev·Å  siteN=49 -->
    <g transform="translate(73.95 33.84) scale(0.1 -0.1)">
     <defs>
      <path id="DejaVuSans-3b8" d="M 2953 2219 
L 963 2219 
Q 1009 1284 1225 888 
Q 1494 400 1959 400 
Q 2428 400 2688 891 
Q 2916 1322 2953 2219 
z
M 2944 2750 
Q 2856 3638 2688 3950 
Q 2419 4444 1959 4444 
Q 1481 4444 1228 3956 
Q 1028 3563 969 2750 
L 2944 2750 
z
M 1959 4913 
Q 2709 4913 3138 4250 
Q 3566 3591 3566 2422 
Q 3566 1256 3138 594 
Q 2709 -72 1959 -72 
Q 1206 -72 781 594 
Q 353 1256 353 2422 
Q 353 3591 781 4250 
Q 1206 4913 1959 4913 
z
" transform="scale(0.015625)"/>
      <path id="DejaVuSans-3d" d="M 678 2906 
L 4684 2906 
L 4684 2381 
L 678 2381 
L 678 2906 
z
M 678 1631 
L 4684 1631 
L 4684 1100 
L 678 1100 
L 678 1631 
z
" transform="scale(0.015625)"/>
      <path id="DejaVuSans-2e" d="M 684 794 
L 1344 794 
L 1344 0 
L 684 0 
L 684 794 
z
" transform="scale(0.015625)"/>
      <path id="DejaVuSans-b0" d="M 1600 4347 
Q 1350 4347 1178 4173 
Q 1006 4000 1006 3750 
Q 1006 3503 1178 3333 
Q 1350 3163 1600 3163 
Q 1850 3163 2022 3333 
Q 2194 3503 2194 3750 
Q 2194 3997 2020 4172 
Q 1847 4347 1600 4347 
z
M 1600 4750 
Q 1800 4750 1984 4673 
Q 2169 4597 2303 4453 
Q 2447 4313 2519 4134 
Q 2591 3956 2591 3750 
Q 2591 3338 2302 3052 
Q 2013 2766 1594 2766 
Q 1172 2766 890 3047 
Q 609 3328 609 3750 
Q 609 4169 896 4459 
Q 1184 4750 1600 4750 
z
" transform="scale(0.015625)"/>
      <path id="DejaVuSans-Oblique-74" d="M 2706 3500 
L 2619 3053 
L 1472 3053 
L 1100 1153 
Q 1081 1047 1072 975 
Q 1063 903 1063 863 
Q 1063 663 1183 572 
Q 1303 481 1569 481 
L 2150 481 
L 2053 0 
L 1503 0 
Q 991 0 739 200 
Q 488 400 488 806 
Q 488 878 497 964 
Q 506 1050 525 1153 
L 897 3053 
L 409 3053 
L 500 3500 
L 978 3500 
L 1172 4494 
L 1747 4494 
L 1556 3500 
L 2706 3500 
z
" transform="scale(0.015625)"/>
      <path id="STIXGeneral-Regular-27c2" d="M 4102 0 
L 333 0 
L 333 422 
L 2010 422 
L 2010 4237 
L 2432 4237 
L 2432 422 
L 4102 422 
L 4102 0 
z
" transform="scale(0.015625)"/>
      <path id="DejaVuSans-37" d="M 525 4666 
L 3525 4666 
L 3525 4397 
L 1831 0 
L 1172 0 
L 2766 4134 
L 525 4134 
L 525 4666 
z
" transform="scale(0.015625)"/>
      <path id="DejaVuSans-Oblique-127" d="M 3634 2113 
L 3225 0 
L 2650 0 
L 3056 2094 
Q 3094 2291 3094 2450 
Q 3094 2688 3006 2838 
Q 2863 3084 2475 3084 
Q 2009 3084 1681 2788 
Q 1356 2491 1256 1978 
L 872 0 
L 294 0 
L 1066 3969 
L 675 3969 
L 775 4481 
L 1166 4481 
L 1238 4863 
L 1816 4863 
L 1744 4481 
L 2844 4481 
L 2744 3969 
L 1644 3969 
L 1447 2956 
Q 1713 3272 2025 3428 
Q 2331 3584 2700 3584 
Q 3300 3584 3538 3213 
Q 3688 2975 3688 2606 
Q 3688 2381 3634 2113 
z
" transform="scale(0.015625)"/>
      <path id="DejaVuSans-Oblique-76" d="M 459 3500 
L 1069 3500 
L 1581 525 
L 3256 3500 
L 3866 3500 
L 1875 0 
L 1100 0 
L 459 3500 
z
" transform="scale(0.015625)"/>
      <path id="DejaVuSans-Oblique-46" d="M 1081 4666 
L 3756 4666 
L 3653 4134 
L 1606 4134 
L 1338 2759 
L 3188 2759 
L 3084 2228 
L 1234 2228 
L 800 0 
L 172 0 
L 1081 4666 
z
" transform="scale(0.015625)"/>
      <path id="DejaVuSans-36" d="M 2113 2584 
Q 1688 2584 1439 2293 
Q 1191 2003 1191 1497 
Q 1191 994 1439 701 
Q 1688 409 2113 409 
Q 2538 409 2786 701 
Q 3034 994 3034 1497 
Q 3034 2003 2786 2293 
Q 2538 2584 2113 2584 
z
M 3366 4563 
L 3366 3988 
Q 3128 4100 2886 4159 
Q 2644 4219 2406 4219 
Q 1781 4219 1451 3797 
Q 1122 3375 1075 2522 
Q 1259 2794 1537 2939 
Q 1816 3084 2150 3084 
Q 2853 3084 3261 2657 
Q 3669 2231 3669 1497 
Q 3669 778 3244 343 
Q 2819 -91 2113 -91 
Q 1303 -91 875 529 
Q 447 1150 447 2328 
Q 447 3434 972 4092 
Q 1497 4750 2381 4750 
Q 2619 4750 2861 4703 
Q 3103 4656 3366 4563 
z
" transform="scale(0.015625)"/>
      <path id="DejaVuSans-33" d="M 2597 2516 
Q 3050 2419 3304 2112 
Q 3559 1806 3559 1356 
Q 3559 666 3084 287 
Q 2609 -91 1734 -91 
Q 1441 -91 1130 -33 
Q 819 25 488 141 
L 488 750 
Q 750 597 1062 519 
Q 1375 441 1716 441 
Q 2309 441 2620 675 
Q 2931 909 2931 1356 
Q 2931 1769 2642 2001 
Q 2353 2234 1838 2234 
L 1294 2234 
L 1294 2753 
L 1863 2753 
Q 2328 2753 2575 2939 
Q 2822 3125 2822 3475 
Q 2822 3834 2567 4026 
Q 2313 4219 1838 4219 
Q 1578 4219 1281 4162 
Q 984 4106 628 3988 
L 628 4550 
Q 988 4650 1302 4700 
Q 1616 4750 1894 4750 
Q 2613 4750 3031 4423 
Q 3450 4097 3450 3541 
Q 3450 3153 3228 2886 
Q 3006 2619 2597 2516 
z
" transform="scale(0.015625)"/>
      <path id="DejaVuSans-32" d="M 1228 531 
L 3431 531 
L 3431 0 
L 469 0 
L 469 531 
Q 828 903 1448 1529 
Q 2069 2156 2228 2338 
Q 2531 2678 2651 2914 
Q 2772 3150 2772 3378 
Q 2772 3750 2511 3984 
Q 2250 4219 1831 4219 
Q 1534 4219 1204 4116 
Q 875 4013 500 3803 
L 500 4441 
Q 881 4594 1212 4672 
Q 1544 4750 1819 4750 
Q 2544 4750 2975 4387 
Q 3406 4025 3406 3419 
Q 3406 3131 3298 2873 
Q 3191 2616 2906 2266 
Q 2828 2175 2409 1742 
Q 1991 1309 1228 531 
z
" transform="scale(0.015625)"/>
      <path id="DejaVuSans-76" d="M 191 3500 
L 800 3500 
L 1894 563 
L 2988 3500 
L 3597 3500 
L 2284 0 
L 1503 0 
L 191 3500 
z
" transform="scale(0.015625)"/>
      <path id="DejaVuSans-b7" d="M 684 2619 
L 1344 2619 
L 1344 1825 
L 684 1825 
L 684 2619 
z
" transform="scale(0.015625)"/>
      <path id="DejaVuSans-212b" d="M 2663 5081 
Q 2663 5278 2523 5417 
Q 2384 5556 2188 5556 
Q 1988 5556 1852 5420 
Q 1716 5284 1716 5081 
Q 1716 4884 1853 4746 
Q 1991 4609 2188 4609 
Q 2384 4609 2523 4746 
Q 2663 4884 2663 5081 
z
M 2188 4044 
L 1338 1722 
L 3041 1722 
L 2188 4044 
z
M 1716 4366 
Q 1525 4494 1428 4673 
Q 1331 4853 1331 5081 
Q 1331 5441 1579 5691 
Q 1828 5941 2188 5941 
Q 2544 5941 2795 5689 
Q 3047 5438 3047 5081 
Q 3047 4863 2948 4678 
Q 2850 4494 2663 4366 
L 4325 0 
L 3669 0 
L 3244 1197 
L 1141 1197 
L 716 0 
L 50 0 
L 1716 4366 
z
" transform="scale(0.015625)"/>
      <path id="DejaVuSans-4e" d="M 628 4666 
L 1478 4666 
L 3547 763 
L 3547 4666 
L 4159 4666 
L 4159 0 
L 3309 0 
L 1241 3903 
L 1241 0 
L 628 0 
L 628 4666 
z
" transform="scale(0.015625)"/>
      <path id="DejaVuSans-34" d="M 2419 4116 
L 825 1625 
L 2419 1625 
L 2419 4116 
z
M 2253 4666 
L 3047 4666 
L 3047 1625 
L 3713 1625 
L 3713 1100 
L 3047 1100 
L 3047 0 
L 2419 0 
L 2419 1100 
L 313 1100 
L 313 1709 
L 2253 4666 
z
" transform="scale(0.015625)"/>
      <path id="DejaVuSans-39" d="M 703 97 
L 703 672 
Q 941 559 1184 500 
Q 1428 441 1663 441 
Q 2288 441 2617 861 
Q 2947 1281 2994 2138 
Q 2813 1869 2534 1725 
Q 2256 1581 1919 1581 
Q 1219 1581 811 2004 
Q 403 2428 403 3163 
Q 403 3881 828 4315 
Q 1253 4750 1959 4750 
Q 2769 4750 3195 4129 
Q 3622 3509 3622 2328 
Q 3622 1225 3098 567 
Q 2575 -91 1691 -91 
Q 1453 -91 1209 -44 
Q 966 3 703 97 
z
M 1959 2075 
Q 2384 2075 2632 2365 
Q 2881 2656 2881 3163 
Q 2881 3666 2632 3958 
Q 2384 4250 1959 4250 
Q 1534 4250 1286 3958 
Q 1038 3666 1038 3163 
Q 1038 2656 1286 2365 
Q 1534 2075 1959 2075 
z
" transform="scale(0.015625)"/>
     </defs>
     <use xlink:href="#DejaVuSans-20" transform="translate(0 0.171875)"/>
     <use xlink:href="#DejaVuSans-20" transform="translate(31.787109 0.171875)"/>
     <use xlink:href="#DejaVuSans-20" transform="translate(63.574219 0.171875)"/>
     <use xlink:href="#DejaVuSans-20" transform="translate(95.361328 0.171875)"/>
     <use xlink:href="#DejaVuSans-20" transform="translate(127.148438 0.171875)"/>
     <use xlink:href="#DejaVuSans-20" transform="translate(158.935547 0.171875)"/>
     <use xlink:href="#DejaVuSans-20" transform="translate(190.722656 0.171875)"/>
     <use xlink:href="#DejaVuSans-20" transform="translate(222.509766 0.171875)"/>
     <use xlink:href="#DejaVuSans-20" transform="translate(254.296875 0.171875)"/>
     <use xlink:href="#DejaVuSans-20" transform="translate(286.083984 0.171875)"/>
     <use xlink:href="#DejaVuSans-3b8" transform="translate(317.871094 0.171875)"/>
     <use xlink:href="#DejaVuSans-3d" transform="translate(379.052734 0.171875)"/>
     <use xlink:href="#DejaVuSans-35" transform="translate(462.841797 0.171875)"/>
     <use xlink:href="#DejaVuSans-2e" transform="translate(526.464844 0.171875)"/>
     <use xlink:href="#DejaVuSans-30" transform="translate(558.251953 0.171875)"/>
     <use xlink:href="#DejaVuSans-30" transform="translate(621.875 0.171875)"/>
     <use xlink:href="#DejaVuSans-b0" transform="translate(685.498047 0.171875)"/>
     <use xlink:href="#DejaVuSans-20" transform="translate(735.498047 0.171875)"/>
     <use xlink:href="#DejaVuSans-20" transform="translate(767.285156 0.171875)"/>
     <use xlink:href="#DejaVuSans-20" transform="translate(799.072266 0.171875)"/>
     <use xlink:href="#DejaVuSans-20" transform="translate(830.859375 0.171875)"/>
     <use xlink:href="#DejaVuSans-20" transform="translate(862.646484 0.171875)"/>
     <use xlink:href="#DejaVuSans-Oblique-74" transform="translate(894.433594 0.171875)"/>
     <use xlink:href="#STIXGeneral-Regular-27c2" transform="translate(947.280273 -16.234375) scale(0.7)"/>
     <use xlink:href="#DejaVuSans-3d" transform="translate(1012.162335 0.171875)"/>
     <use xlink:href="#DejaVuSans-31" transform="translate(1095.951398 0.171875)"/>
     <use xlink:href="#DejaVuSans-31" transform="translate(1159.574445 0.171875)"/>
     <use xlink:href="#DejaVuSans-30" transform="translate(1223.197491 0.171875)"/>
     <use xlink:href="#DejaVuSans-2e" transform="translate(1286.820538 0.171875)"/>
     <use xlink:href="#DejaVuSans-37" transform="translate(1310.857648 0.171875)"/>
     <use xlink:href="#DejaVuSans-30" transform="translate(1374.480695 0.171875)"/>
     <use xlink:href="#DejaVuSans-4d" transform="translate(1438.103741 0.171875)"/>
     <use xlink:href="#DejaVuSans-65" transform="translate(1524.383038 0.171875)"/>
     <use xlink:href="#DejaVuSans-56" transform="translate(1585.906476 0.171875)"/>
     <use xlink:href="#DejaVuSans-20" transform="translate(1654.314679 0.171875)"/>
     <use xlink:href="#DejaVuSans-20" transform="translate(1686.101788 0.171875)"/>
     <use xlink:href="#DejaVuSans-20" transform="translate(1717.888898 0.171875)"/>
     <use xlink:href="#DejaVuSans-20" transform="translate(1749.676007 0.171875)"/>
     <use xlink:href="#DejaVuSans-Oblique-127" transform="translate(1781.463116 0.171875)"/>
     <use xlink:href="#DejaVuSans-Oblique-76" transform="translate(1850.945538 0.171875)"/>
     <use xlink:href="#DejaVuSans-Oblique-46" transform="translate(1910.125226 -16.234375) scale(0.7)"/>
     <use xlink:href="#DejaVuSans-3d" transform="translate(1953.123273 0.171875)"/>
     <use xlink:href="#DejaVuSans-36" transform="translate(2036.912335 0.171875)"/>
     <use xlink:href="#DejaVuSans-33" transform="translate(2100.535382 0.171875)"/>
     <use xlink:href="#DejaVuSans-32" transform="translate(2164.158429 0.171875)"/>
     <use xlink:href="#DejaVuSans-36" transform="translate(2227.781476 0.171875)"/>
     <use xlink:href="#DejaVuSans-4d" transform="translate(2291.404523 0.171875)"/>
     <use xlink:href="#DejaVuSans-65" transform="translate(2377.68382 0.171875)"/>
     <use xlink:href="#DejaVuSans-76" transform="translate(2439.207257 0.171875)"/>
     <use xlink:href="#DejaVuSans-b7" transform="translate(2498.386945 0.171875)"/>
     <use xlink:href="#DejaVuSans-212b" transform="translate(2530.174054 0.171875)"/>
     <use xlink:href="#DejaVuSans-20" transform="translate(2598.582257 0.171875)"/>
     <use xlink:href="#DejaVuSans-20" transform="translate(2630.369366 0.171875)"/>
     <use xlink:href="#DejaVuSans-73" transform="translate(2662.156476 0.171875)"/>
     <use xlink:href="#DejaVuSans-69" transform="translate(2714.256085 0.171875)"/>
     <use xlink:href="#DejaVuSans-74" transform="translate(2742.039288 0.171875)"/>
     <use xlink:href="#DejaVuSans-65" transform="translate(2781.248273 0.171875)"/>
     <use xlink:href="#DejaVuSans-4e" transform="translate(2842.77171 0.171875)"/>
     <use xlink:href="#DejaVuSans-3d" transform="translate(2917.576398 0.171875)"/>
     <use xlink:href="#DejaVuSans-34" transform="translate(3001.36546 0.171875)"/>
     <use xlink:href="#DejaVuSans-39" transform="translate(3064.988507 0.171875)"/>
    </g>
   </g>
  </g>
 </g>
 <defs>
  <clipPath id="p1adf3accd2">
   <rect x="184.086667" y="39.84" width="92.626667" height="277.88"/>
  </clipPath>
 </defs>
</svg>
