<?xml version="1.0" encoding="utf-8" standalone="no"?>
<!DOCTYPE svg PUBLIC "-//W3C//DTD SVG 1.1//EN"
  "http://www.w3.org/Graphics/SVG/1.1/DTD/svg11.dtd">
<svg xmlns:xlink="http://www.w3.org/1999/xlink" width="460.8pt" height="345.6pt" viewBox="0 0 460.8 345.6" xmlns="http://www.w3.org/2000/svg" version="1.1">
 <metadata>
  <rdf:RDF xmlns:dc="http://purl.org/dc/elements/1.1/" xmlns:cc="http://creativecommons.org/ns#" xmlns:rdf="http://www.w3.org/1999/02/22-rdf-syntax-ns#">
   <cc:Work>
    <dc:type rdf:resource="http://purl.org/dc/dcmitype/StillImage"/>
    <dc:date>2024-02-17T20:22:37.768306</dc:date>
    <dc:format>image/svg+xml</dc:format>
    <dc:creator>
     <cc:Agent>
      <dc:title>Matplotlib v3.7.0, https://matplotlib.org/</dc:title>
     </cc:Agent>
    </dc:creator>
   </cc:Work>
  </rdf:RDF>
 </metadata>
 <defs>
  <style type="text/css">*{stroke-linejoin: round; stroke-linecap: butt}</style>
 </defs>
 <g id="figure_1">
  <g id="patch_1">
   <path d="M 0 345.6 
L 460.8 345.6 
L 460.8 0 
L 0 0 
z
" style="fill: #ffffff"/>
  </g>
  <g id="axes_1">
   <g id="patch_2">
    <path d="M 57.6 307.584 
L 414.72 307.584 
L 414.72 41.472 
L 57.6 41.472 
z
" style="fill: #ffffff"/>
   </g>
   <g id="PathCollection_1">
    <defs>
     <path id="mc210268a21" d="M 0 1.581139 
C 0.419323 1.581139 0.821528 1.41454 1.118034 1.118034 
C 1.41454 0.821528 1.581139 0.419323 1.581139 0 
C 1.581139 -0.419323 1.41454 -0.821528 1.118034 -1.118034 
C 0.821528 -1.41454 0.419323 -1.581139 0 -1.581139 
C -0.419323 -1.581139 -0.821528 -1.41454 -1.118034 -1.118034 
C -1.41454 -0.821528 -1.581139 -0.419323 -1.581139 0 
C -1.581139 0.419323 -1.41454 0.821528 -1.118034 1.118034 
C -0.821528 1.41454 -0.419323 1.581139 0 1.581139 
z
" style="stroke: #1f77b4"/>
    </defs>
    <g clip-path="url(#pe84df8b0fc)">
     <use xlink:href="#mc210268a21" x="73.832727" y="295.488" style="fill: #1f77b4; stroke: #1f77b4"/>
     <use xlink:href="#mc210268a21" x="75.464157" y="244.045241" style="fill: #1f77b4; stroke: #1f77b4"/>
     <use xlink:href="#mc210268a21" x="77.095587" y="295.488" style="fill: #1f77b4; stroke: #1f77b4"/>
     <use xlink:href="#mc210268a21" x="78.727017" y="295.488" style="fill: #1f77b4; stroke: #1f77b4"/>
     <use xlink:href="#mc210268a21" x="80.358447" y="249.606621" style="fill: #1f77b4; stroke: #1f77b4"/>
     <use xlink:href="#mc210268a21" x="81.989877" y="295.488" style="fill: #1f77b4; stroke: #1f77b4"/>
     <use xlink:href="#mc210268a21" x="83.621307" y="295.488" style="fill: #1f77b4; stroke: #1f77b4"/>
     <use xlink:href="#mc210268a21" x="85.252736" y="295.488" style="fill: #1f77b4; stroke: #1f77b4"/>
     <use xlink:href="#mc210268a21" x="86.884166" y="295.488" style="fill: #1f77b4; stroke: #1f77b4"/>
     <use xlink:href="#mc210268a21" x="88.515596" y="295.488" style="fill: #1f77b4; stroke: #1f77b4"/>
     <use xlink:href="#mc210268a21" x="90.147026" y="295.488" style="fill: #1f77b4; stroke: #1f77b4"/>
     <use xlink:href="#mc210268a21" x="91.778456" y="295.488" style="fill: #1f77b4; stroke: #1f77b4"/>
     <use xlink:href="#mc210268a21" x="93.409886" y="295.488" style="fill: #1f77b4; stroke: #1f77b4"/>
     <use xlink:href="#mc210268a21" x="95.041316" y="249.606621" style="fill: #1f77b4; stroke: #1f77b4"/>
     <use xlink:href="#mc210268a21" x="96.672746" y="295.488" style="fill: #1f77b4; stroke: #1f77b4"/>
     <use xlink:href="#mc210268a21" x="98.304175" y="295.488" style="fill: #1f77b4; stroke: #1f77b4"/>
     <use xlink:href="#mc210268a21" x="99.935605" y="295.488" style="fill: #1f77b4; stroke: #1f77b4"/>
     <use xlink:href="#mc210268a21" x="101.567035" y="295.488" style="fill: #1f77b4; stroke: #1f77b4"/>
     <use xlink:href="#mc210268a21" x="103.198465" y="250.996966" style="fill: #1f77b4; stroke: #1f77b4"/>
     <use xlink:href="#mc210268a21" x="104.829895" y="295.488" style="fill: #1f77b4; stroke: #1f77b4"/>
     <use xlink:href="#mc210268a21" x="106.461325" y="295.488" style="fill: #1f77b4; stroke: #1f77b4"/>
     <use xlink:href="#mc210268a21" x="108.092755" y="295.488" style="fill: #1f77b4; stroke: #1f77b4"/>
     <use xlink:href="#mc210268a21" x="109.724185" y="295.488" style="fill: #1f77b4; stroke: #1f77b4"/>
     <use xlink:href="#mc210268a21" x="111.355614" y="242.654897" style="fill: #1f77b4; stroke: #1f77b4"/>
     <use xlink:href="#mc210268a21" x="112.987044" y="295.488" style="fill: #1f77b4; stroke: #1f77b4"/>
     <use xlink:href="#mc210268a21" x="114.618474" y="295.488" style="fill: #1f77b4; stroke: #1f77b4"/>
     <use xlink:href="#mc210268a21" x="116.249904" y="249.606621" style="fill: #1f77b4; stroke: #1f77b4"/>
     <use xlink:href="#mc210268a21" x="117.881334" y="295.488" style="fill: #1f77b4; stroke: #1f77b4"/>
     <use xlink:href="#mc210268a21" x="119.512764" y="295.488" style="fill: #1f77b4; stroke: #1f77b4"/>
     <use xlink:href="#mc210268a21" x="121.144194" y="253.777655" style="fill: #1f77b4; stroke: #1f77b4"/>
     <use xlink:href="#mc210268a21" x="122.775624" y="295.488" style="fill: #1f77b4; stroke: #1f77b4"/>
     <use xlink:href="#mc210268a21" x="124.407053" y="295.488" style="fill: #1f77b4; stroke: #1f77b4"/>
     <use xlink:href="#mc210268a21" x="126.038483" y="295.488" style="fill: #1f77b4; stroke: #1f77b4"/>
     <use xlink:href="#mc210268a21" x="127.669913" y="295.488" style="fill: #1f77b4; stroke: #1f77b4"/>
     <use xlink:href="#mc210268a21" x="129.301343" y="295.488" style="fill: #1f77b4; stroke: #1f77b4"/>
     <use xlink:href="#mc210268a21" x="130.932773" y="295.488" style="fill: #1f77b4; stroke: #1f77b4"/>
     <use xlink:href="#mc210268a21" x="132.564203" y="295.488" style="fill: #1f77b4; stroke: #1f77b4"/>
     <use xlink:href="#mc210268a21" x="134.195633" y="295.488" style="fill: #1f77b4; stroke: #1f77b4"/>
     <use xlink:href="#mc210268a21" x="135.827063" y="295.488" style="fill: #1f77b4; stroke: #1f77b4"/>
     <use xlink:href="#mc210268a21" x="137.458492" y="295.488" style="fill: #1f77b4; stroke: #1f77b4"/>
     <use xlink:href="#mc210268a21" x="139.089922" y="295.488" style="fill: #1f77b4; stroke: #1f77b4"/>
     <use xlink:href="#mc210268a21" x="140.721352" y="295.488" style="fill: #1f77b4; stroke: #1f77b4"/>
     <use xlink:href="#mc210268a21" x="142.352782" y="295.488" style="fill: #1f77b4; stroke: #1f77b4"/>
     <use xlink:href="#mc210268a21" x="143.984212" y="292.70731" style="fill: #1f77b4; stroke: #1f77b4"/>
     <use xlink:href="#mc210268a21" x="145.615642" y="295.488" style="fill: #1f77b4; stroke: #1f77b4"/>
     <use xlink:href="#mc210268a21" x="147.247072" y="295.488" style="fill: #1f77b4; stroke: #1f77b4"/>
     <use xlink:href="#mc210268a21" x="148.878502" y="292.70731" style="fill: #1f77b4; stroke: #1f77b4"/>
     <use xlink:href="#mc210268a21" x="150.509931" y="292.70731" style="fill: #1f77b4; stroke: #1f77b4"/>
     <use xlink:href="#mc210268a21" x="152.141361" y="295.488" style="fill: #1f77b4; stroke: #1f77b4"/>
     <use xlink:href="#mc210268a21" x="153.772791" y="292.70731" style="fill: #1f77b4; stroke: #1f77b4"/>
     <use xlink:href="#mc210268a21" x="155.404221" y="295.488" style="fill: #1f77b4; stroke: #1f77b4"/>
     <use xlink:href="#mc210268a21" x="157.035651" y="288.536276" style="fill: #1f77b4; stroke: #1f77b4"/>
     <use xlink:href="#mc210268a21" x="158.667081" y="295.488" style="fill: #1f77b4; stroke: #1f77b4"/>
     <use xlink:href="#mc210268a21" x="160.298511" y="276.023172" style="fill: #1f77b4; stroke: #1f77b4"/>
     <use xlink:href="#mc210268a21" x="161.929941" y="295.488" style="fill: #1f77b4; stroke: #1f77b4"/>
     <use xlink:href="#mc210268a21" x="163.56137" y="287.145931" style="fill: #1f77b4; stroke: #1f77b4"/>
     <use xlink:href="#mc210268a21" x="165.1928" y="289.926621" style="fill: #1f77b4; stroke: #1f77b4"/>
     <use xlink:href="#mc210268a21" x="166.82423" y="295.488" style="fill: #1f77b4; stroke: #1f77b4"/>
     <use xlink:href="#mc210268a21" x="168.45566" y="289.926621" style="fill: #1f77b4; stroke: #1f77b4"/>
     <use xlink:href="#mc210268a21" x="170.08709" y="295.488" style="fill: #1f77b4; stroke: #1f77b4"/>
     <use xlink:href="#mc210268a21" x="171.71852" y="289.926621" style="fill: #1f77b4; stroke: #1f77b4"/>
     <use xlink:href="#mc210268a21" x="173.34995" y="284.365241" style="fill: #1f77b4; stroke: #1f77b4"/>
     <use xlink:href="#mc210268a21" x="174.98138" y="280.194207" style="fill: #1f77b4; stroke: #1f77b4"/>
     <use xlink:href="#mc210268a21" x="176.61281" y="289.926621" style="fill: #1f77b4; stroke: #1f77b4"/>
     <use xlink:href="#mc210268a21" x="178.244239" y="288.536276" style="fill: #1f77b4; stroke: #1f77b4"/>
     <use xlink:href="#mc210268a21" x="179.875669" y="287.145931" style="fill: #1f77b4; stroke: #1f77b4"/>
     <use xlink:href="#mc210268a21" x="181.507099" y="281.584552" style="fill: #1f77b4; stroke: #1f77b4"/>
     <use xlink:href="#mc210268a21" x="183.138529" y="289.926621" style="fill: #1f77b4; stroke: #1f77b4"/>
     <use xlink:href="#mc210268a21" x="184.769959" y="281.584552" style="fill: #1f77b4; stroke: #1f77b4"/>
     <use xlink:href="#mc210268a21" x="186.401389" y="276.023172" style="fill: #1f77b4; stroke: #1f77b4"/>
     <use xlink:href="#mc210268a21" x="188.032819" y="278.803862" style="fill: #1f77b4; stroke: #1f77b4"/>
     <use xlink:href="#mc210268a21" x="189.664249" y="271.852138" style="fill: #1f77b4; stroke: #1f77b4"/>
     <use xlink:href="#mc210268a21" x="191.295678" y="264.900414" style="fill: #1f77b4; stroke: #1f77b4"/>
     <use xlink:href="#mc210268a21" x="192.927108" y="276.023172" style="fill: #1f77b4; stroke: #1f77b4"/>
     <use xlink:href="#mc210268a21" x="194.558538" y="270.461793" style="fill: #1f77b4; stroke: #1f77b4"/>
     <use xlink:href="#mc210268a21" x="196.189968" y="285.755586" style="fill: #1f77b4; stroke: #1f77b4"/>
     <use xlink:href="#mc210268a21" x="197.821398" y="276.023172" style="fill: #1f77b4; stroke: #1f77b4"/>
     <use xlink:href="#mc210268a21" x="199.452828" y="255.168" style="fill: #1f77b4; stroke: #1f77b4"/>
     <use xlink:href="#mc210268a21" x="201.084258" y="267.681103" style="fill: #1f77b4; stroke: #1f77b4"/>
     <use xlink:href="#mc210268a21" x="202.715688" y="274.632828" style="fill: #1f77b4; stroke: #1f77b4"/>
     <use xlink:href="#mc210268a21" x="204.347117" y="278.803862" style="fill: #1f77b4; stroke: #1f77b4"/>
     <use xlink:href="#mc210268a21" x="205.978547" y="249.606621" style="fill: #1f77b4; stroke: #1f77b4"/>
     <use xlink:href="#mc210268a21" x="207.609977" y="262.119724" style="fill: #1f77b4; stroke: #1f77b4"/>
     <use xlink:href="#mc210268a21" x="209.241407" y="246.825931" style="fill: #1f77b4; stroke: #1f77b4"/>
     <use xlink:href="#mc210268a21" x="210.872837" y="234.312828" style="fill: #1f77b4; stroke: #1f77b4"/>
     <use xlink:href="#mc210268a21" x="212.504267" y="250.996966" style="fill: #1f77b4; stroke: #1f77b4"/>
     <use xlink:href="#mc210268a21" x="214.135697" y="255.168" style="fill: #1f77b4; stroke: #1f77b4"/>
     <use xlink:href="#mc210268a21" x="215.767127" y="219.019034" style="fill: #1f77b4; stroke: #1f77b4"/>
     <use xlink:href="#mc210268a21" x="217.398556" y="235.703172" style="fill: #1f77b4; stroke: #1f77b4"/>
     <use xlink:href="#mc210268a21" x="219.029986" y="216.238345" style="fill: #1f77b4; stroke: #1f77b4"/>
     <use xlink:href="#mc210268a21" x="220.661416" y="249.606621" style="fill: #1f77b4; stroke: #1f77b4"/>
     <use xlink:href="#mc210268a21" x="222.292846" y="191.212138" style="fill: #1f77b4; stroke: #1f77b4"/>
     <use xlink:href="#mc210268a21" x="223.924276" y="232.922483" style="fill: #1f77b4; stroke: #1f77b4"/>
     <use xlink:href="#mc210268a21" x="225.555706" y="227.361103" style="fill: #1f77b4; stroke: #1f77b4"/>
     <use xlink:href="#mc210268a21" x="227.187136" y="189.821793" style="fill: #1f77b4; stroke: #1f77b4"/>
     <use xlink:href="#mc210268a21" x="228.818566" y="182.870069" style="fill: #1f77b4; stroke: #1f77b4"/>
     <use xlink:href="#mc210268a21" x="230.449995" y="167.576276" style="fill: #1f77b4; stroke: #1f77b4"/>
     <use xlink:href="#mc210268a21" x="232.081425" y="168.966621" style="fill: #1f77b4; stroke: #1f77b4"/>
     <use xlink:href="#mc210268a21" x="233.712855" y="203.725241" style="fill: #1f77b4; stroke: #1f77b4"/>
     <use xlink:href="#mc210268a21" x="235.344285" y="191.212138" style="fill: #1f77b4; stroke: #1f77b4"/>
     <use xlink:href="#mc210268a21" x="236.975715" y="159.234207" style="fill: #1f77b4; stroke: #1f77b4"/>
     <use xlink:href="#mc210268a21" x="238.607145" y="166.185931" style="fill: #1f77b4; stroke: #1f77b4"/>
     <use xlink:href="#mc210268a21" x="240.238575" y="170.356966" style="fill: #1f77b4; stroke: #1f77b4"/>
     <use xlink:href="#mc210268a21" x="241.870005" y="168.966621" style="fill: #1f77b4; stroke: #1f77b4"/>
     <use xlink:href="#mc210268a21" x="243.501434" y="156.453517" style="fill: #1f77b4; stroke: #1f77b4"/>
     <use xlink:href="#mc210268a21" x="245.132864" y="149.501793" style="fill: #1f77b4; stroke: #1f77b4"/>
     <use xlink:href="#mc210268a21" x="246.764294" y="149.501793" style="fill: #1f77b4; stroke: #1f77b4"/>
     <use xlink:href="#mc210268a21" x="248.395724" y="142.550069" style="fill: #1f77b4; stroke: #1f77b4"/>
     <use xlink:href="#mc210268a21" x="250.027154" y="175.918345" style="fill: #1f77b4; stroke: #1f77b4"/>
     <use xlink:href="#mc210268a21" x="251.658584" y="132.817655" style="fill: #1f77b4; stroke: #1f77b4"/>
     <use xlink:href="#mc210268a21" x="253.290014" y="131.42731" style="fill: #1f77b4; stroke: #1f77b4"/>
     <use xlink:href="#mc210268a21" x="254.921444" y="142.550069" style="fill: #1f77b4; stroke: #1f77b4"/>
     <use xlink:href="#mc210268a21" x="256.552873" y="160.624552" style="fill: #1f77b4; stroke: #1f77b4"/>
     <use xlink:href="#mc210268a21" x="258.184303" y="138.379034" style="fill: #1f77b4; stroke: #1f77b4"/>
     <use xlink:href="#mc210268a21" x="259.815733" y="146.721103" style="fill: #1f77b4; stroke: #1f77b4"/>
     <use xlink:href="#mc210268a21" x="261.447163" y="138.379034" style="fill: #1f77b4; stroke: #1f77b4"/>
     <use xlink:href="#mc210268a21" x="263.078593" y="105.010759" style="fill: #1f77b4; stroke: #1f77b4"/>
     <use xlink:href="#mc210268a21" x="264.710023" y="145.330759" style="fill: #1f77b4; stroke: #1f77b4"/>
     <use xlink:href="#mc210268a21" x="266.341453" y="118.914207" style="fill: #1f77b4; stroke: #1f77b4"/>
     <use xlink:href="#mc210268a21" x="267.972883" y="141.159724" style="fill: #1f77b4; stroke: #1f77b4"/>
     <use xlink:href="#mc210268a21" x="269.604312" y="121.694897" style="fill: #1f77b4; stroke: #1f77b4"/>
     <use xlink:href="#mc210268a21" x="271.235742" y="123.085241" style="fill: #1f77b4; stroke: #1f77b4"/>
     <use xlink:href="#mc210268a21" x="272.867172" y="130.036966" style="fill: #1f77b4; stroke: #1f77b4"/>
     <use xlink:href="#mc210268a21" x="274.498602" y="121.694897" style="fill: #1f77b4; stroke: #1f77b4"/>
     <use xlink:href="#mc210268a21" x="276.130032" y="123.085241" style="fill: #1f77b4; stroke: #1f77b4"/>
     <use xlink:href="#mc210268a21" x="277.761462" y="130.036966" style="fill: #1f77b4; stroke: #1f77b4"/>
     <use xlink:href="#mc210268a21" x="279.392892" y="114.743172" style="fill: #1f77b4; stroke: #1f77b4"/>
     <use xlink:href="#mc210268a21" x="281.024322" y="120.304552" style="fill: #1f77b4; stroke: #1f77b4"/>
     <use xlink:href="#mc210268a21" x="282.655751" y="117.523862" style="fill: #1f77b4; stroke: #1f77b4"/>
     <use xlink:href="#mc210268a21" x="284.287181" y="120.304552" style="fill: #1f77b4; stroke: #1f77b4"/>
     <use xlink:href="#mc210268a21" x="285.918611" y="102.230069" style="fill: #1f77b4; stroke: #1f77b4"/>
     <use xlink:href="#mc210268a21" x="287.550041" y="130.036966" style="fill: #1f77b4; stroke: #1f77b4"/>
     <use xlink:href="#mc210268a21" x="289.181471" y="113.352828" style="fill: #1f77b4; stroke: #1f77b4"/>
     <use xlink:href="#mc210268a21" x="290.812901" y="120.304552" style="fill: #1f77b4; stroke: #1f77b4"/>
     <use xlink:href="#mc210268a21" x="292.444331" y="109.181793" style="fill: #1f77b4; stroke: #1f77b4"/>
     <use xlink:href="#mc210268a21" x="294.075761" y="130.036966" style="fill: #1f77b4; stroke: #1f77b4"/>
     <use xlink:href="#mc210268a21" x="295.70719" y="120.304552" style="fill: #1f77b4; stroke: #1f77b4"/>
     <use xlink:href="#mc210268a21" x="297.33862" y="103.620414" style="fill: #1f77b4; stroke: #1f77b4"/>
     <use xlink:href="#mc210268a21" x="298.97005" y="110.572138" style="fill: #1f77b4; stroke: #1f77b4"/>
     <use xlink:href="#mc210268a21" x="300.60148" y="95.278345" style="fill: #1f77b4; stroke: #1f77b4"/>
     <use xlink:href="#mc210268a21" x="302.23291" y="116.133517" style="fill: #1f77b4; stroke: #1f77b4"/>
     <use xlink:href="#mc210268a21" x="303.86434" y="93.888" style="fill: #1f77b4; stroke: #1f77b4"/>
     <use xlink:href="#mc210268a21" x="305.49577" y="106.401103" style="fill: #1f77b4; stroke: #1f77b4"/>
     <use xlink:href="#mc210268a21" x="307.1272" y="102.230069" style="fill: #1f77b4; stroke: #1f77b4"/>
     <use xlink:href="#mc210268a21" x="308.75863" y="109.181793" style="fill: #1f77b4; stroke: #1f77b4"/>
     <use xlink:href="#mc210268a21" x="310.390059" y="117.523862" style="fill: #1f77b4; stroke: #1f77b4"/>
     <use xlink:href="#mc210268a21" x="312.021489" y="98.059034" style="fill: #1f77b4; stroke: #1f77b4"/>
     <use xlink:href="#mc210268a21" x="313.652919" y="85.545931" style="fill: #1f77b4; stroke: #1f77b4"/>
     <use xlink:href="#mc210268a21" x="315.284349" y="111.962483" style="fill: #1f77b4; stroke: #1f77b4"/>
     <use xlink:href="#mc210268a21" x="316.915779" y="92.497655" style="fill: #1f77b4; stroke: #1f77b4"/>
     <use xlink:href="#mc210268a21" x="318.547209" y="81.374897" style="fill: #1f77b4; stroke: #1f77b4"/>
     <use xlink:href="#mc210268a21" x="320.178639" y="110.572138" style="fill: #1f77b4; stroke: #1f77b4"/>
     <use xlink:href="#mc210268a21" x="321.810069" y="93.888" style="fill: #1f77b4; stroke: #1f77b4"/>
     <use xlink:href="#mc210268a21" x="323.441498" y="89.716966" style="fill: #1f77b4; stroke: #1f77b4"/>
     <use xlink:href="#mc210268a21" x="325.072928" y="98.059034" style="fill: #1f77b4; stroke: #1f77b4"/>
     <use xlink:href="#mc210268a21" x="326.704358" y="95.278345" style="fill: #1f77b4; stroke: #1f77b4"/>
     <use xlink:href="#mc210268a21" x="328.335788" y="93.888" style="fill: #1f77b4; stroke: #1f77b4"/>
     <use xlink:href="#mc210268a21" x="329.967218" y="74.423172" style="fill: #1f77b4; stroke: #1f77b4"/>
     <use xlink:href="#mc210268a21" x="331.598648" y="103.620414" style="fill: #1f77b4; stroke: #1f77b4"/>
     <use xlink:href="#mc210268a21" x="333.230078" y="99.449379" style="fill: #1f77b4; stroke: #1f77b4"/>
     <use xlink:href="#mc210268a21" x="334.861508" y="102.230069" style="fill: #1f77b4; stroke: #1f77b4"/>
     <use xlink:href="#mc210268a21" x="336.492937" y="82.765241" style="fill: #1f77b4; stroke: #1f77b4"/>
     <use xlink:href="#mc210268a21" x="338.124367" y="78.594207" style="fill: #1f77b4; stroke: #1f77b4"/>
     <use xlink:href="#mc210268a21" x="339.755797" y="91.10731" style="fill: #1f77b4; stroke: #1f77b4"/>
     <use xlink:href="#mc210268a21" x="341.387227" y="118.914207" style="fill: #1f77b4; stroke: #1f77b4"/>
     <use xlink:href="#mc210268a21" x="343.018657" y="113.352828" style="fill: #1f77b4; stroke: #1f77b4"/>
     <use xlink:href="#mc210268a21" x="344.650087" y="79.984552" style="fill: #1f77b4; stroke: #1f77b4"/>
     <use xlink:href="#mc210268a21" x="346.281517" y="81.374897" style="fill: #1f77b4; stroke: #1f77b4"/>
     <use xlink:href="#mc210268a21" x="347.912947" y="68.861793" style="fill: #1f77b4; stroke: #1f77b4"/>
     <use xlink:href="#mc210268a21" x="349.544376" y="85.545931" style="fill: #1f77b4; stroke: #1f77b4"/>
     <use xlink:href="#mc210268a21" x="351.175806" y="79.984552" style="fill: #1f77b4; stroke: #1f77b4"/>
     <use xlink:href="#mc210268a21" x="352.807236" y="92.497655" style="fill: #1f77b4; stroke: #1f77b4"/>
     <use xlink:href="#mc210268a21" x="354.438666" y="88.326621" style="fill: #1f77b4; stroke: #1f77b4"/>
     <use xlink:href="#mc210268a21" x="356.070096" y="99.449379" style="fill: #1f77b4; stroke: #1f77b4"/>
     <use xlink:href="#mc210268a21" x="357.701526" y="75.813517" style="fill: #1f77b4; stroke: #1f77b4"/>
     <use xlink:href="#mc210268a21" x="359.332956" y="56.34869" style="fill: #1f77b4; stroke: #1f77b4"/>
     <use xlink:href="#mc210268a21" x="360.964386" y="95.278345" style="fill: #1f77b4; stroke: #1f77b4"/>
     <use xlink:href="#mc210268a21" x="362.595815" y="92.497655" style="fill: #1f77b4; stroke: #1f77b4"/>
     <use xlink:href="#mc210268a21" x="364.227245" y="96.66869" style="fill: #1f77b4; stroke: #1f77b4"/>
     <use xlink:href="#mc210268a21" x="365.858675" y="84.155586" style="fill: #1f77b4; stroke: #1f77b4"/>
     <use xlink:href="#mc210268a21" x="367.490105" y="85.545931" style="fill: #1f77b4; stroke: #1f77b4"/>
     <use xlink:href="#mc210268a21" x="369.121535" y="92.497655" style="fill: #1f77b4; stroke: #1f77b4"/>
     <use xlink:href="#mc210268a21" x="370.752965" y="84.155586" style="fill: #1f77b4; stroke: #1f77b4"/>
     <use xlink:href="#mc210268a21" x="372.384395" y="91.10731" style="fill: #1f77b4; stroke: #1f77b4"/>
     <use xlink:href="#mc210268a21" x="374.015825" y="81.374897" style="fill: #1f77b4; stroke: #1f77b4"/>
     <use xlink:href="#mc210268a21" x="375.647254" y="98.059034" style="fill: #1f77b4; stroke: #1f77b4"/>
     <use xlink:href="#mc210268a21" x="377.278684" y="85.545931" style="fill: #1f77b4; stroke: #1f77b4"/>
     <use xlink:href="#mc210268a21" x="378.910114" y="73.032828" style="fill: #1f77b4; stroke: #1f77b4"/>
     <use xlink:href="#mc210268a21" x="380.541544" y="92.497655" style="fill: #1f77b4; stroke: #1f77b4"/>
     <use xlink:href="#mc210268a21" x="382.172974" y="74.423172" style="fill: #1f77b4; stroke: #1f77b4"/>
     <use xlink:href="#mc210268a21" x="383.804404" y="53.568" style="fill: #1f77b4; stroke: #1f77b4"/>
     <use xlink:href="#mc210268a21" x="385.435834" y="78.594207" style="fill: #1f77b4; stroke: #1f77b4"/>
     <use xlink:href="#mc210268a21" x="387.067264" y="95.278345" style="fill: #1f77b4; stroke: #1f77b4"/>
     <use xlink:href="#mc210268a21" x="388.698693" y="67.471448" style="fill: #1f77b4; stroke: #1f77b4"/>
     <use xlink:href="#mc210268a21" x="390.330123" y="66.081103" style="fill: #1f77b4; stroke: #1f77b4"/>
     <use xlink:href="#mc210268a21" x="391.961553" y="75.813517" style="fill: #1f77b4; stroke: #1f77b4"/>
     <use xlink:href="#mc210268a21" x="393.592983" y="61.910069" style="fill: #1f77b4; stroke: #1f77b4"/>
     <use xlink:href="#mc210268a21" x="395.224413" y="91.10731" style="fill: #1f77b4; stroke: #1f77b4"/>
     <use xlink:href="#mc210268a21" x="396.855843" y="64.690759" style="fill: #1f77b4; stroke: #1f77b4"/>
     <use xlink:href="#mc210268a21" x="398.487273" y="99.449379" style="fill: #1f77b4; stroke: #1f77b4"/>
    </g>
   </g>
   <g id="matplotlib.axis_1">
    <g id="xtick_1">
     <g id="line2d_1">
      <defs>
       <path id="m9b58f9c924" d="M 0 0 
L 0 3.5 
" style="stroke: #000000; stroke-width: 0.8"/>
      </defs>
      <g>
       <use xlink:href="#m9b58f9c924" x="72.201297" y="307.584" style="stroke: #000000; stroke-width: 0.8"/>
      </g>
     </g>
     <g id="text_1">
      <!-- 0 -->
      <g transform="translate(69.020047 322.182437) scale(0.1 -0.1)">
       <defs>
        <path id="DejaVuSans-30" d="M 2034 4250 
Q 1547 4250 1301 3770 
Q 1056 3291 1056 2328 
Q 1056 1369 1301 889 
Q 1547 409 2034 409 
Q 2525 409 2770 889 
Q 3016 1369 3016 2328 
Q 3016 3291 2770 3770 
Q 2525 4250 2034 4250 
z
M 2034 4750 
Q 2819 4750 3233 4129 
Q 3647 3509 3647 2328 
Q 3647 1150 3233 529 
Q 2819 -91 2034 -91 
Q 1250 -91 836 529 
Q 422 1150 422 2328 
Q 422 3509 836 4129 
Q 1250 4750 2034 4750 
z
" transform="scale(0.015625)"/>
       </defs>
       <use xlink:href="#DejaVuSans-30"/>
      </g>
     </g>
    </g>
    <g id="xtick_2">
     <g id="line2d_2">
      <g>
       <use xlink:href="#m9b58f9c924" x="137.458492" y="307.584" style="stroke: #000000; stroke-width: 0.8"/>
      </g>
     </g>
     <g id="text_2">
      <!-- 1 -->
      <g transform="translate(134.277242 322.182437) scale(0.1 -0.1)">
       <defs>
        <path id="DejaVuSans-31" d="M 794 531 
L 1825 531 
L 1825 4091 
L 703 3866 
L 703 4441 
L 1819 4666 
L 2450 4666 
L 2450 531 
L 3481 531 
L 3481 0 
L 794 0 
L 794 531 
z
" transform="scale(0.015625)"/>
       </defs>
       <use xlink:href="#DejaVuSans-31"/>
      </g>
     </g>
    </g>
    <g id="xtick_3">
     <g id="line2d_3">
      <g>
       <use xlink:href="#m9b58f9c924" x="202.715688" y="307.584" style="stroke: #000000; stroke-width: 0.8"/>
      </g>
     </g>
     <g id="text_3">
      <!-- 2 -->
      <g transform="translate(199.534438 322.182437) scale(0.1 -0.1)">
       <defs>
        <path id="DejaVuSans-32" d="M 1228 531 
L 3431 531 
L 3431 0 
L 469 0 
L 469 531 
Q 828 903 1448 1529 
Q 2069 2156 2228 2338 
Q 2531 2678 2651 2914 
Q 2772 3150 2772 3378 
Q 2772 3750 2511 3984 
Q 2250 4219 1831 4219 
Q 1534 4219 1204 4116 
Q 875 4013 500 3803 
L 500 4441 
Q 881 4594 1212 4672 
Q 1544 4750 1819 4750 
Q 2544 4750 2975 4387 
Q 3406 4025 3406 3419 
Q 3406 3131 3298 2873 
Q 3191 2616 2906 2266 
Q 2828 2175 2409 1742 
Q 1991 1309 1228 531 
z
" transform="scale(0.015625)"/>
       </defs>
       <use xlink:href="#DejaVuSans-32"/>
      </g>
     </g>
    </g>
    <g id="xtick_4">
     <g id="line2d_4">
      <g>
       <use xlink:href="#m9b58f9c924" x="267.972883" y="307.584" style="stroke: #000000; stroke-width: 0.8"/>
      </g>
     </g>
     <g id="text_4">
      <!-- 3 -->
      <g transform="translate(264.791633 322.182437) scale(0.1 -0.1)">
       <defs>
        <path id="DejaVuSans-33" d="M 2597 2516 
Q 3050 2419 3304 2112 
Q 3559 1806 3559 1356 
Q 3559 666 3084 287 
Q 2609 -91 1734 -91 
Q 1441 -91 1130 -33 
Q 819 25 488 141 
L 488 750 
Q 750 597 1062 519 
Q 1375 441 1716 441 
Q 2309 441 2620 675 
Q 2931 909 2931 1356 
Q 2931 1769 2642 2001 
Q 2353 2234 1838 2234 
L 1294 2234 
L 1294 2753 
L 1863 2753 
Q 2328 2753 2575 2939 
Q 2822 3125 2822 3475 
Q 2822 3834 2567 4026 
Q 2313 4219 1838 4219 
Q 1578 4219 1281 4162 
Q 984 4106 628 3988 
L 628 4550 
Q 988 4650 1302 4700 
Q 1616 4750 1894 4750 
Q 2613 4750 3031 4423 
Q 3450 4097 3450 3541 
Q 3450 3153 3228 2886 
Q 3006 2619 2597 2516 
z
" transform="scale(0.015625)"/>
       </defs>
       <use xlink:href="#DejaVuSans-33"/>
      </g>
     </g>
    </g>
    <g id="xtick_5">
     <g id="line2d_5">
      <g>
       <use xlink:href="#m9b58f9c924" x="333.230078" y="307.584" style="stroke: #000000; stroke-width: 0.8"/>
      </g>
     </g>
     <g id="text_5">
      <!-- 4 -->
      <g transform="translate(330.048828 322.182437) scale(0.1 -0.1)">
       <defs>
        <path id="DejaVuSans-34" d="M 2419 4116 
L 825 1625 
L 2419 1625 
L 2419 4116 
z
M 2253 4666 
L 3047 4666 
L 3047 1625 
L 3713 1625 
L 3713 1100 
L 3047 1100 
L 3047 0 
L 2419 0 
L 2419 1100 
L 313 1100 
L 313 1709 
L 2253 4666 
z
" transform="scale(0.015625)"/>
       </defs>
       <use xlink:href="#DejaVuSans-34"/>
      </g>
     </g>
    </g>
    <g id="xtick_6">
     <g id="line2d_6">
      <g>
       <use xlink:href="#m9b58f9c924" x="398.487273" y="307.584" style="stroke: #000000; stroke-width: 0.8"/>
      </g>
     </g>
     <g id="text_6">
      <!-- 5 -->
      <g transform="translate(395.306023 322.182437) scale(0.1 -0.1)">
       <defs>
        <path id="DejaVuSans-35" d="M 691 4666 
L 3169 4666 
L 3169 4134 
L 1269 4134 
L 1269 2991 
Q 1406 3038 1543 3061 
Q 1681 3084 1819 3084 
Q 2600 3084 3056 2656 
Q 3513 2228 3513 1497 
Q 3513 744 3044 326 
Q 2575 -91 1722 -91 
Q 1428 -91 1123 -41 
Q 819 9 494 109 
L 494 744 
Q 775 591 1075 516 
Q 1375 441 1709 441 
Q 2250 441 2565 725 
Q 2881 1009 2881 1497 
Q 2881 1984 2565 2268 
Q 2250 2553 1709 2553 
Q 1456 2553 1204 2497 
Q 953 2441 691 2322 
L 691 4666 
z
" transform="scale(0.015625)"/>
       </defs>
       <use xlink:href="#DejaVuSans-35"/>
      </g>
     </g>
    </g>
    <g id="text_7">
     <!-- Temperature/(J/k) -->
     <g transform="translate(192.849844 335.860562) scale(0.1 -0.1)">
      <defs>
       <path id="DejaVuSans-54" d="M -19 4666 
L 3928 4666 
L 3928 4134 
L 2272 4134 
L 2272 0 
L 1638 0 
L 1638 4134 
L -19 4134 
L -19 4666 
z
" transform="scale(0.015625)"/>
       <path id="DejaVuSans-65" d="M 3597 1894 
L 3597 1613 
L 953 1613 
Q 991 1019 1311 708 
Q 1631 397 2203 397 
Q 2534 397 2845 478 
Q 3156 559 3463 722 
L 3463 178 
Q 3153 47 2828 -22 
Q 2503 -91 2169 -91 
Q 1331 -91 842 396 
Q 353 884 353 1716 
Q 353 2575 817 3079 
Q 1281 3584 2069 3584 
Q 2775 3584 3186 3129 
Q 3597 2675 3597 1894 
z
M 3022 2063 
Q 3016 2534 2758 2815 
Q 2500 3097 2075 3097 
Q 1594 3097 1305 2825 
Q 1016 2553 972 2059 
L 3022 2063 
z
" transform="scale(0.015625)"/>
       <path id="DejaVuSans-6d" d="M 3328 2828 
Q 3544 3216 3844 3400 
Q 4144 3584 4550 3584 
Q 5097 3584 5394 3201 
Q 5691 2819 5691 2113 
L 5691 0 
L 5113 0 
L 5113 2094 
Q 5113 2597 4934 2840 
Q 4756 3084 4391 3084 
Q 3944 3084 3684 2787 
Q 3425 2491 3425 1978 
L 3425 0 
L 2847 0 
L 2847 2094 
Q 2847 2600 2669 2842 
Q 2491 3084 2119 3084 
Q 1678 3084 1418 2786 
Q 1159 2488 1159 1978 
L 1159 0 
L 581 0 
L 581 3500 
L 1159 3500 
L 1159 2956 
Q 1356 3278 1631 3431 
Q 1906 3584 2284 3584 
Q 2666 3584 2933 3390 
Q 3200 3197 3328 2828 
z
" transform="scale(0.015625)"/>
       <path id="DejaVuSans-70" d="M 1159 525 
L 1159 -1331 
L 581 -1331 
L 581 3500 
L 1159 3500 
L 1159 2969 
Q 1341 3281 1617 3432 
Q 1894 3584 2278 3584 
Q 2916 3584 3314 3078 
Q 3713 2572 3713 1747 
Q 3713 922 3314 415 
Q 2916 -91 2278 -91 
Q 1894 -91 1617 61 
Q 1341 213 1159 525 
z
M 3116 1747 
Q 3116 2381 2855 2742 
Q 2594 3103 2138 3103 
Q 1681 3103 1420 2742 
Q 1159 2381 1159 1747 
Q 1159 1113 1420 752 
Q 1681 391 2138 391 
Q 2594 391 2855 752 
Q 3116 1113 3116 1747 
z
" transform="scale(0.015625)"/>
       <path id="DejaVuSans-72" d="M 2631 2963 
Q 2534 3019 2420 3045 
Q 2306 3072 2169 3072 
Q 1681 3072 1420 2755 
Q 1159 2438 1159 1844 
L 1159 0 
L 581 0 
L 581 3500 
L 1159 3500 
L 1159 2956 
Q 1341 3275 1631 3429 
Q 1922 3584 2338 3584 
Q 2397 3584 2469 3576 
Q 2541 3569 2628 3553 
L 2631 2963 
z
" transform="scale(0.015625)"/>
       <path id="DejaVuSans-61" d="M 2194 1759 
Q 1497 1759 1228 1600 
Q 959 1441 959 1056 
Q 959 750 1161 570 
Q 1363 391 1709 391 
Q 2188 391 2477 730 
Q 2766 1069 2766 1631 
L 2766 1759 
L 2194 1759 
z
M 3341 1997 
L 3341 0 
L 2766 0 
L 2766 531 
Q 2569 213 2275 61 
Q 1981 -91 1556 -91 
Q 1019 -91 701 211 
Q 384 513 384 1019 
Q 384 1609 779 1909 
Q 1175 2209 1959 2209 
L 2766 2209 
L 2766 2266 
Q 2766 2663 2505 2880 
Q 2244 3097 1772 3097 
Q 1472 3097 1187 3025 
Q 903 2953 641 2809 
L 641 3341 
Q 956 3463 1253 3523 
Q 1550 3584 1831 3584 
Q 2591 3584 2966 3190 
Q 3341 2797 3341 1997 
z
" transform="scale(0.015625)"/>
       <path id="DejaVuSans-74" d="M 1172 4494 
L 1172 3500 
L 2356 3500 
L 2356 3053 
L 1172 3053 
L 1172 1153 
Q 1172 725 1289 603 
Q 1406 481 1766 481 
L 2356 481 
L 2356 0 
L 1766 0 
Q 1100 0 847 248 
Q 594 497 594 1153 
L 594 3053 
L 172 3053 
L 172 3500 
L 594 3500 
L 594 4494 
L 1172 4494 
z
" transform="scale(0.015625)"/>
       <path id="DejaVuSans-75" d="M 544 1381 
L 544 3500 
L 1119 3500 
L 1119 1403 
Q 1119 906 1312 657 
Q 1506 409 1894 409 
Q 2359 409 2629 706 
Q 2900 1003 2900 1516 
L 2900 3500 
L 3475 3500 
L 3475 0 
L 2900 0 
L 2900 538 
Q 2691 219 2414 64 
Q 2138 -91 1772 -91 
Q 1169 -91 856 284 
Q 544 659 544 1381 
z
M 1991 3584 
L 1991 3584 
z
" transform="scale(0.015625)"/>
       <path id="DejaVuSans-2f" d="M 1625 4666 
L 2156 4666 
L 531 -594 
L 0 -594 
L 1625 4666 
z
" transform="scale(0.015625)"/>
       <path id="DejaVuSans-28" d="M 1984 4856 
Q 1566 4138 1362 3434 
Q 1159 2731 1159 2009 
Q 1159 1288 1364 580 
Q 1569 -128 1984 -844 
L 1484 -844 
Q 1016 -109 783 600 
Q 550 1309 550 2009 
Q 550 2706 781 3412 
Q 1013 4119 1484 4856 
L 1984 4856 
z
" transform="scale(0.015625)"/>
       <path id="DejaVuSans-4a" d="M 628 4666 
L 1259 4666 
L 1259 325 
Q 1259 -519 939 -900 
Q 619 -1281 -91 -1281 
L -331 -1281 
L -331 -750 
L -134 -750 
Q 284 -750 456 -515 
Q 628 -281 628 325 
L 628 4666 
z
" transform="scale(0.015625)"/>
       <path id="DejaVuSans-6b" d="M 581 4863 
L 1159 4863 
L 1159 1991 
L 2875 3500 
L 3609 3500 
L 1753 1863 
L 3688 0 
L 2938 0 
L 1159 1709 
L 1159 0 
L 581 0 
L 581 4863 
z
" transform="scale(0.015625)"/>
       <path id="DejaVuSans-29" d="M 513 4856 
L 1013 4856 
Q 1481 4119 1714 3412 
Q 1947 2706 1947 2009 
Q 1947 1309 1714 600 
Q 1481 -109 1013 -844 
L 513 -844 
Q 928 -128 1133 580 
Q 1338 1288 1338 2009 
Q 1338 2731 1133 3434 
Q 928 4138 513 4856 
z
" transform="scale(0.015625)"/>
      </defs>
      <use xlink:href="#DejaVuSans-54"/>
      <use xlink:href="#DejaVuSans-65" x="44.083984"/>
      <use xlink:href="#DejaVuSans-6d" x="105.607422"/>
      <use xlink:href="#DejaVuSans-70" x="203.019531"/>
      <use xlink:href="#DejaVuSans-65" x="266.496094"/>
      <use xlink:href="#DejaVuSans-72" x="328.019531"/>
      <use xlink:href="#DejaVuSans-61" x="369.132812"/>
      <use xlink:href="#DejaVuSans-74" x="430.412109"/>
      <use xlink:href="#DejaVuSans-75" x="469.621094"/>
      <use xlink:href="#DejaVuSans-72" x="533"/>
      <use xlink:href="#DejaVuSans-65" x="571.863281"/>
      <use xlink:href="#DejaVuSans-2f" x="633.386719"/>
      <use xlink:href="#DejaVuSans-28" x="667.078125"/>
      <use xlink:href="#DejaVuSans-4a" x="706.091797"/>
      <use xlink:href="#DejaVuSans-2f" x="735.583984"/>
      <use xlink:href="#DejaVuSans-6b" x="769.275391"/>
      <use xlink:href="#DejaVuSans-29" x="827.185547"/>
     </g>
    </g>
   </g>
   <g id="matplotlib.axis_2">
    <g id="ytick_1">
     <g id="line2d_7">
      <defs>
       <path id="m9416ae178d" d="M 0 0 
L -3.5 0 
" style="stroke: #000000; stroke-width: 0.8"/>
      </defs>
      <g>
       <use xlink:href="#m9416ae178d" x="57.6" y="295.488" style="stroke: #000000; stroke-width: 0.8"/>
      </g>
     </g>
     <g id="text_8">
      <!-- −2.00 -->
      <g transform="translate(19.954687 299.287219) scale(0.1 -0.1)">
       <defs>
        <path id="DejaVuSans-2212" d="M 678 2272 
L 4684 2272 
L 4684 1741 
L 678 1741 
L 678 2272 
z
" transform="scale(0.015625)"/>
        <path id="DejaVuSans-2e" d="M 684 794 
L 1344 794 
L 1344 0 
L 684 0 
L 684 794 
z
" transform="scale(0.015625)"/>
       </defs>
       <use xlink:href="#DejaVuSans-2212"/>
       <use xlink:href="#DejaVuSans-32" x="83.789062"/>
       <use xlink:href="#DejaVuSans-2e" x="147.412109"/>
       <use xlink:href="#DejaVuSans-30" x="179.199219"/>
       <use xlink:href="#DejaVuSans-30" x="242.822266"/>
      </g>
     </g>
    </g>
    <g id="ytick_2">
     <g id="line2d_8">
      <g>
       <use xlink:href="#m9416ae178d" x="57.6" y="260.729379" style="stroke: #000000; stroke-width: 0.8"/>
      </g>
     </g>
     <g id="text_9">
      <!-- −1.75 -->
      <g transform="translate(19.954687 264.528598) scale(0.1 -0.1)">
       <defs>
        <path id="DejaVuSans-37" d="M 525 4666 
L 3525 4666 
L 3525 4397 
L 1831 0 
L 1172 0 
L 2766 4134 
L 525 4134 
L 525 4666 
z
" transform="scale(0.015625)"/>
       </defs>
       <use xlink:href="#DejaVuSans-2212"/>
       <use xlink:href="#DejaVuSans-31" x="83.789062"/>
       <use xlink:href="#DejaVuSans-2e" x="147.412109"/>
       <use xlink:href="#DejaVuSans-37" x="179.199219"/>
       <use xlink:href="#DejaVuSans-35" x="242.822266"/>
      </g>
     </g>
    </g>
    <g id="ytick_3">
     <g id="line2d_9">
      <g>
       <use xlink:href="#m9416ae178d" x="57.6" y="225.970759" style="stroke: #000000; stroke-width: 0.8"/>
      </g>
     </g>
     <g id="text_10">
      <!-- −1.50 -->
      <g transform="translate(19.954687 229.769977) scale(0.1 -0.1)">
       <use xlink:href="#DejaVuSans-2212"/>
       <use xlink:href="#DejaVuSans-31" x="83.789062"/>
       <use xlink:href="#DejaVuSans-2e" x="147.412109"/>
       <use xlink:href="#DejaVuSans-35" x="179.199219"/>
       <use xlink:href="#DejaVuSans-30" x="242.822266"/>
      </g>
     </g>
    </g>
    <g id="ytick_4">
     <g id="line2d_10">
      <g>
       <use xlink:href="#m9416ae178d" x="57.6" y="191.212138" style="stroke: #000000; stroke-width: 0.8"/>
      </g>
     </g>
     <g id="text_11">
      <!-- −1.25 -->
      <g transform="translate(19.954687 195.011357) scale(0.1 -0.1)">
       <use xlink:href="#DejaVuSans-2212"/>
       <use xlink:href="#DejaVuSans-31" x="83.789062"/>
       <use xlink:href="#DejaVuSans-2e" x="147.412109"/>
       <use xlink:href="#DejaVuSans-32" x="179.199219"/>
       <use xlink:href="#DejaVuSans-35" x="242.822266"/>
      </g>
     </g>
    </g>
    <g id="ytick_5">
     <g id="line2d_11">
      <g>
       <use xlink:href="#m9416ae178d" x="57.6" y="156.453517" style="stroke: #000000; stroke-width: 0.8"/>
      </g>
     </g>
     <g id="text_12">
      <!-- −1.00 -->
      <g transform="translate(19.954687 160.252736) scale(0.1 -0.1)">
       <use xlink:href="#DejaVuSans-2212"/>
       <use xlink:href="#DejaVuSans-31" x="83.789062"/>
       <use xlink:href="#DejaVuSans-2e" x="147.412109"/>
       <use xlink:href="#DejaVuSans-30" x="179.199219"/>
       <use xlink:href="#DejaVuSans-30" x="242.822266"/>
      </g>
     </g>
    </g>
    <g id="ytick_6">
     <g id="line2d_12">
      <g>
       <use xlink:href="#m9416ae178d" x="57.6" y="121.694897" style="stroke: #000000; stroke-width: 0.8"/>
      </g>
     </g>
     <g id="text_13">
      <!-- −0.75 -->
      <g transform="translate(19.954687 125.494115) scale(0.1 -0.1)">
       <use xlink:href="#DejaVuSans-2212"/>
       <use xlink:href="#DejaVuSans-30" x="83.789062"/>
       <use xlink:href="#DejaVuSans-2e" x="147.412109"/>
       <use xlink:href="#DejaVuSans-37" x="179.199219"/>
       <use xlink:href="#DejaVuSans-35" x="242.822266"/>
      </g>
     </g>
    </g>
    <g id="ytick_7">
     <g id="line2d_13">
      <g>
       <use xlink:href="#m9416ae178d" x="57.6" y="86.936276" style="stroke: #000000; stroke-width: 0.8"/>
      </g>
     </g>
     <g id="text_14">
      <!-- −0.50 -->
      <g transform="translate(19.954687 90.735495) scale(0.1 -0.1)">
       <use xlink:href="#DejaVuSans-2212"/>
       <use xlink:href="#DejaVuSans-30" x="83.789062"/>
       <use xlink:href="#DejaVuSans-2e" x="147.412109"/>
       <use xlink:href="#DejaVuSans-35" x="179.199219"/>
       <use xlink:href="#DejaVuSans-30" x="242.822266"/>
      </g>
     </g>
    </g>
    <g id="ytick_8">
     <g id="line2d_14">
      <g>
       <use xlink:href="#m9416ae178d" x="57.6" y="52.177655" style="stroke: #000000; stroke-width: 0.8"/>
      </g>
     </g>
     <g id="text_15">
      <!-- −0.25 -->
      <g transform="translate(19.954687 55.976874) scale(0.1 -0.1)">
       <use xlink:href="#DejaVuSans-2212"/>
       <use xlink:href="#DejaVuSans-30" x="83.789062"/>
       <use xlink:href="#DejaVuSans-2e" x="147.412109"/>
       <use xlink:href="#DejaVuSans-32" x="179.199219"/>
       <use xlink:href="#DejaVuSans-35" x="242.822266"/>
      </g>
     </g>
    </g>
    <g id="text_16">
     <!-- Energy/J -->
     <g transform="translate(13.875 195.193625) rotate(-90) scale(0.1 -0.1)">
      <defs>
       <path id="DejaVuSans-45" d="M 628 4666 
L 3578 4666 
L 3578 4134 
L 1259 4134 
L 1259 2753 
L 3481 2753 
L 3481 2222 
L 1259 2222 
L 1259 531 
L 3634 531 
L 3634 0 
L 628 0 
L 628 4666 
z
" transform="scale(0.015625)"/>
       <path id="DejaVuSans-6e" d="M 3513 2113 
L 3513 0 
L 2938 0 
L 2938 2094 
Q 2938 2591 2744 2837 
Q 2550 3084 2163 3084 
Q 1697 3084 1428 2787 
Q 1159 2491 1159 1978 
L 1159 0 
L 581 0 
L 581 3500 
L 1159 3500 
L 1159 2956 
Q 1366 3272 1645 3428 
Q 1925 3584 2291 3584 
Q 2894 3584 3203 3211 
Q 3513 2838 3513 2113 
z
" transform="scale(0.015625)"/>
       <path id="DejaVuSans-67" d="M 2906 1791 
Q 2906 2416 2648 2759 
Q 2391 3103 1925 3103 
Q 1463 3103 1205 2759 
Q 947 2416 947 1791 
Q 947 1169 1205 825 
Q 1463 481 1925 481 
Q 2391 481 2648 825 
Q 2906 1169 2906 1791 
z
M 3481 434 
Q 3481 -459 3084 -895 
Q 2688 -1331 1869 -1331 
Q 1566 -1331 1297 -1286 
Q 1028 -1241 775 -1147 
L 775 -588 
Q 1028 -725 1275 -790 
Q 1522 -856 1778 -856 
Q 2344 -856 2625 -561 
Q 2906 -266 2906 331 
L 2906 616 
Q 2728 306 2450 153 
Q 2172 0 1784 0 
Q 1141 0 747 490 
Q 353 981 353 1791 
Q 353 2603 747 3093 
Q 1141 3584 1784 3584 
Q 2172 3584 2450 3431 
Q 2728 3278 2906 2969 
L 2906 3500 
L 3481 3500 
L 3481 434 
z
" transform="scale(0.015625)"/>
       <path id="DejaVuSans-79" d="M 2059 -325 
Q 1816 -950 1584 -1140 
Q 1353 -1331 966 -1331 
L 506 -1331 
L 506 -850 
L 844 -850 
Q 1081 -850 1212 -737 
Q 1344 -625 1503 -206 
L 1606 56 
L 191 3500 
L 800 3500 
L 1894 763 
L 2988 3500 
L 3597 3500 
L 2059 -325 
z
" transform="scale(0.015625)"/>
      </defs>
      <use xlink:href="#DejaVuSans-45"/>
      <use xlink:href="#DejaVuSans-6e" x="63.183594"/>
      <use xlink:href="#DejaVuSans-65" x="126.5625"/>
      <use xlink:href="#DejaVuSans-72" x="188.085938"/>
      <use xlink:href="#DejaVuSans-67" x="227.449219"/>
      <use xlink:href="#DejaVuSans-79" x="290.925781"/>
      <use xlink:href="#DejaVuSans-2f" x="350.105469"/>
      <use xlink:href="#DejaVuSans-4a" x="383.796875"/>
     </g>
    </g>
   </g>
   <g id="patch_3">
    <path d="M 57.6 307.584 
L 57.6 41.472 
" style="fill: none; stroke: #000000; stroke-width: 0.8; stroke-linejoin: miter; stroke-linecap: square"/>
   </g>
   <g id="patch_4">
    <path d="M 414.72 307.584 
L 414.72 41.472 
" style="fill: none; stroke: #000000; stroke-width: 0.8; stroke-linejoin: miter; stroke-linecap: square"/>
   </g>
   <g id="patch_5">
    <path d="M 57.6 307.584 
L 414.72 307.584 
" style="fill: none; stroke: #000000; stroke-width: 0.8; stroke-linejoin: miter; stroke-linecap: square"/>
   </g>
   <g id="patch_6">
    <path d="M 57.6 41.472 
L 414.72 41.472 
" style="fill: none; stroke: #000000; stroke-width: 0.8; stroke-linejoin: miter; stroke-linecap: square"/>
   </g>
   <g id="text_17">
    <!-- 2D Ising Model E-T -->
    <g transform="translate(180.73875 35.472) scale(0.12 -0.12)">
     <defs>
      <path id="DejaVuSans-44" d="M 1259 4147 
L 1259 519 
L 2022 519 
Q 2988 519 3436 956 
Q 3884 1394 3884 2338 
Q 3884 3275 3436 3711 
Q 2988 4147 2022 4147 
L 1259 4147 
z
M 628 4666 
L 1925 4666 
Q 3281 4666 3915 4102 
Q 4550 3538 4550 2338 
Q 4550 1131 3912 565 
Q 3275 0 1925 0 
L 628 0 
L 628 4666 
z
" transform="scale(0.015625)"/>
      <path id="DejaVuSans-20" transform="scale(0.015625)"/>
      <path id="DejaVuSans-49" d="M 628 4666 
L 1259 4666 
L 1259 0 
L 628 0 
L 628 4666 
z
" transform="scale(0.015625)"/>
      <path id="DejaVuSans-73" d="M 2834 3397 
L 2834 2853 
Q 2591 2978 2328 3040 
Q 2066 3103 1784 3103 
Q 1356 3103 1142 2972 
Q 928 2841 928 2578 
Q 928 2378 1081 2264 
Q 1234 2150 1697 2047 
L 1894 2003 
Q 2506 1872 2764 1633 
Q 3022 1394 3022 966 
Q 3022 478 2636 193 
Q 2250 -91 1575 -91 
Q 1294 -91 989 -36 
Q 684 19 347 128 
L 347 722 
Q 666 556 975 473 
Q 1284 391 1588 391 
Q 1994 391 2212 530 
Q 2431 669 2431 922 
Q 2431 1156 2273 1281 
Q 2116 1406 1581 1522 
L 1381 1569 
Q 847 1681 609 1914 
Q 372 2147 372 2553 
Q 372 3047 722 3315 
Q 1072 3584 1716 3584 
Q 2034 3584 2315 3537 
Q 2597 3491 2834 3397 
z
" transform="scale(0.015625)"/>
      <path id="DejaVuSans-69" d="M 603 3500 
L 1178 3500 
L 1178 0 
L 603 0 
L 603 3500 
z
M 603 4863 
L 1178 4863 
L 1178 4134 
L 603 4134 
L 603 4863 
z
" transform="scale(0.015625)"/>
      <path id="DejaVuSans-4d" d="M 628 4666 
L 1569 4666 
L 2759 1491 
L 3956 4666 
L 4897 4666 
L 4897 0 
L 4281 0 
L 4281 4097 
L 3078 897 
L 2444 897 
L 1241 4097 
L 1241 0 
L 628 0 
L 628 4666 
z
" transform="scale(0.015625)"/>
      <path id="DejaVuSans-6f" d="M 1959 3097 
Q 1497 3097 1228 2736 
Q 959 2375 959 1747 
Q 959 1119 1226 758 
Q 1494 397 1959 397 
Q 2419 397 2687 759 
Q 2956 1122 2956 1747 
Q 2956 2369 2687 2733 
Q 2419 3097 1959 3097 
z
M 1959 3584 
Q 2709 3584 3137 3096 
Q 3566 2609 3566 1747 
Q 3566 888 3137 398 
Q 2709 -91 1959 -91 
Q 1206 -91 779 398 
Q 353 888 353 1747 
Q 353 2609 779 3096 
Q 1206 3584 1959 3584 
z
" transform="scale(0.015625)"/>
      <path id="DejaVuSans-64" d="M 2906 2969 
L 2906 4863 
L 3481 4863 
L 3481 0 
L 2906 0 
L 2906 525 
Q 2725 213 2448 61 
Q 2172 -91 1784 -91 
Q 1150 -91 751 415 
Q 353 922 353 1747 
Q 353 2572 751 3078 
Q 1150 3584 1784 3584 
Q 2172 3584 2448 3432 
Q 2725 3281 2906 2969 
z
M 947 1747 
Q 947 1113 1208 752 
Q 1469 391 1925 391 
Q 2381 391 2643 752 
Q 2906 1113 2906 1747 
Q 2906 2381 2643 2742 
Q 2381 3103 1925 3103 
Q 1469 3103 1208 2742 
Q 947 2381 947 1747 
z
" transform="scale(0.015625)"/>
      <path id="DejaVuSans-6c" d="M 603 4863 
L 1178 4863 
L 1178 0 
L 603 0 
L 603 4863 
z
" transform="scale(0.015625)"/>
      <path id="DejaVuSans-2d" d="M 313 2009 
L 1997 2009 
L 1997 1497 
L 313 1497 
L 313 2009 
z
" transform="scale(0.015625)"/>
     </defs>
     <use xlink:href="#DejaVuSans-32"/>
     <use xlink:href="#DejaVuSans-44" x="63.623047"/>
     <use xlink:href="#DejaVuSans-20" x="140.625"/>
     <use xlink:href="#DejaVuSans-49" x="172.412109"/>
     <use xlink:href="#DejaVuSans-73" x="201.904297"/>
     <use xlink:href="#DejaVuSans-69" x="254.003906"/>
     <use xlink:href="#DejaVuSans-6e" x="281.787109"/>
     <use xlink:href="#DejaVuSans-67" x="345.166016"/>
     <use xlink:href="#DejaVuSans-20" x="408.642578"/>
     <use xlink:href="#DejaVuSans-4d" x="440.429688"/>
     <use xlink:href="#DejaVuSans-6f" x="526.708984"/>
     <use xlink:href="#DejaVuSans-64" x="587.890625"/>
     <use xlink:href="#DejaVuSans-65" x="651.367188"/>
     <use xlink:href="#DejaVuSans-6c" x="712.890625"/>
     <use xlink:href="#DejaVuSans-20" x="740.673828"/>
     <use xlink:href="#DejaVuSans-45" x="772.460938"/>
     <use xlink:href="#DejaVuSans-2d" x="835.644531"/>
     <use xlink:href="#DejaVuSans-54" x="862.603516"/>
    </g>
   </g>
  </g>
 </g>
 <defs>
  <clipPath id="pe84df8b0fc">
   <rect x="57.6" y="41.472" width="357.12" height="266.112"/>
  </clipPath>
 </defs>
</svg>
